STARTFONT 2.1
COMMENT
COMMENT Converted from OpenType font "UbuntuMono-BoldItalic.ttf" by "otf2bdf 3.0".
COMMENT
FONT -FreeType-Ubuntu Mono-Bold-I-Normal--19-140-100-100-P-98-ISO10646-1
SIZE 14 100 100
FONTBOUNDINGBOX 18 19 -5 -3
STARTPROPERTIES 19
FOUNDRY "FreeType"
FAMILY_NAME "Ubuntu Mono"
WEIGHT_NAME "Bold"
SLANT "I"
SETWIDTH_NAME "Normal"
ADD_STYLE_NAME ""
PIXEL_SIZE 19
POINT_SIZE 140
RESOLUTION_X 100
RESOLUTION_Y 100
SPACING "P"
AVERAGE_WIDTH 98
CHARSET_REGISTRY "ISO10646"
CHARSET_ENCODING "1"
FONT_ASCENT 15
FONT_DESCENT 3
COPYRIGHT "Copyright 2011 Canonical Ltd.  Licensed under the Ubuntu Font Licence 1.0"
_OTF_FONTFILE "UbuntuMono-BoldItalic.ttf"
_OTF_PSNAME "UbuntuMono-BoldItalic"
ENDPROPERTIES
CHARS 1224
STARTCHAR 0000
ENCODING 0
SWIDTH 462 0
DWIDTH 9 0
BBX 0 0 0 0
BITMAP
ENDCHAR
STARTCHAR 0008
ENCODING 8
SWIDTH 462 0
DWIDTH 9 0
BBX 0 0 0 0
BITMAP
ENDCHAR
STARTCHAR 0009
ENCODING 9
SWIDTH 462 0
DWIDTH 9 0
BBX 0 0 0 0
BITMAP
ENDCHAR
STARTCHAR 000D
ENCODING 13
SWIDTH 462 0
DWIDTH 9 0
BBX 0 0 0 0
BITMAP
ENDCHAR
STARTCHAR 001D
ENCODING 29
SWIDTH 462 0
DWIDTH 9 0
BBX 0 0 0 0
BITMAP
ENDCHAR
STARTCHAR 0020
ENCODING 32
SWIDTH 462 0
DWIDTH 9 0
BBX 0 0 0 0
BITMAP
ENDCHAR
STARTCHAR 0021
ENCODING 33
SWIDTH 462 0
DWIDTH 9 0
BBX 6 12 3 0
BITMAP
1C
18
38
38
38
30
30
60
00
60
E0
E0
ENDCHAR
STARTCHAR 0022
ENCODING 34
SWIDTH 462 0
DWIDTH 9 0
BBX 7 5 4 8
BITMAP
EE
EC
CC
CC
88
ENDCHAR
STARTCHAR 0023
ENCODING 35
SWIDTH 462 0
DWIDTH 9 0
BBX 10 12 1 0
BITMAP
0CC0
0D80
1980
7FC0
7FC0
3300
3600
FF80
FF80
6C00
CC00
D800
ENDCHAR
STARTCHAR 0024
ENCODING 36
SWIDTH 462 0
DWIDTH 9 0
BBX 9 15 1 -2
BITMAP
0600
0F00
1F80
3880
3000
3800
3C00
1F00
0700
0300
4700
FF00
7C00
3000
3000
ENDCHAR
STARTCHAR 0025
ENCODING 37
SWIDTH 462 0
DWIDTH 9 0
BBX 11 12 0 0
BITMAP
1C20
3460
24C0
2580
3F00
1A00
0580
0FC0
1A40
3240
62C0
C380
ENDCHAR
STARTCHAR 0026
ENCODING 38
SWIDTH 462 0
DWIDTH 9 0
BBX 9 12 1 0
BITMAP
1F00
1B00
3300
3300
3600
1C00
7D80
ED80
C700
C700
FF00
7B00
ENDCHAR
STARTCHAR 0027
ENCODING 39
SWIDTH 462 0
DWIDTH 9 0
BBX 4 6 5 7
BITMAP
70
60
60
60
40
C0
ENDCHAR
STARTCHAR 0028
ENCODING 40
SWIDTH 462 0
DWIDTH 9 0
BBX 7 17 3 -3
BITMAP
02
06
1E
38
30
70
60
E0
C0
C0
C0
C0
C0
C0
E0
70
20
ENDCHAR
STARTCHAR 0029
ENCODING 41
SWIDTH 462 0
DWIDTH 9 0
BBX 8 17 1 -3
BITMAP
08
1C
0E
06
06
07
07
07
06
06
0E
0C
1C
38
70
E0
C0
ENDCHAR
STARTCHAR 002A
ENCODING 42
SWIDTH 462 0
DWIDTH 9 0
BBX 8 7 2 4
BITMAP
1C
18
6B
FF
1C
36
36
ENDCHAR
STARTCHAR 002B
ENCODING 43
SWIDTH 462 0
DWIDTH 9 0
BBX 9 8 1 1
BITMAP
0C00
0C00
0C00
7F80
FF80
1800
1800
1800
ENDCHAR
STARTCHAR 002C
ENCODING 44
SWIDTH 462 0
DWIDTH 9 0
BBX 5 6 2 -3
BITMAP
30
78
70
30
E0
C0
ENDCHAR
STARTCHAR 002D
ENCODING 45
SWIDTH 462 0
DWIDTH 9 0
BBX 5 2 3 4
BITMAP
F8
F8
ENDCHAR
STARTCHAR 002E
ENCODING 46
SWIDTH 462 0
DWIDTH 9 0
BBX 4 3 3 0
BITMAP
60
F0
E0
ENDCHAR
STARTCHAR 002F
ENCODING 47
SWIDTH 462 0
DWIDTH 9 0
BBX 11 17 0 -3
BITMAP
0060
00E0
00C0
01C0
0180
0380
0300
0600
0E00
0C00
1C00
1800
3800
3000
7000
6000
E000
ENDCHAR
STARTCHAR 0030
ENCODING 48
SWIDTH 462 0
DWIDTH 9 0
BBX 9 12 1 0
BITMAP
0F00
1F80
3180
7180
6180
6D80
6D80
E180
E300
E700
7E00
3C00
ENDCHAR
STARTCHAR 0031
ENCODING 49
SWIDTH 462 0
DWIDTH 9 0
BBX 8 12 1 0
BITMAP
07
0F
3E
36
06
0E
0C
0C
0C
1C
7F
FF
ENDCHAR
STARTCHAR 0032
ENCODING 50
SWIDTH 462 0
DWIDTH 9 0
BBX 9 12 1 0
BITMAP
1F00
3F80
2180
0180
0380
0700
0E00
3800
7000
6000
FF00
FF00
ENDCHAR
STARTCHAR 0033
ENCODING 51
SWIDTH 462 0
DWIDTH 9 0
BBX 9 12 1 0
BITMAP
1F00
1F80
0180
0180
0300
1E00
1F00
0300
0300
0700
FF00
FC00
ENDCHAR
STARTCHAR 0034
ENCODING 52
SWIDTH 462 0
DWIDTH 9 0
BBX 9 12 1 0
BITMAP
0180
0380
0780
0F80
1B00
3300
6300
FF80
FF80
0600
0600
0600
ENDCHAR
STARTCHAR 0035
ENCODING 53
SWIDTH 462 0
DWIDTH 9 0
BBX 10 12 1 0
BITMAP
1FC0
1F80
1800
3000
3000
3E00
0F00
0300
0300
0700
FF00
FC00
ENDCHAR
STARTCHAR 0036
ENCODING 54
SWIDTH 462 0
DWIDTH 9 0
BBX 10 12 1 0
BITMAP
03C0
0FC0
3C00
3000
7400
7F00
6380
E180
E380
6300
7F00
3E00
ENDCHAR
STARTCHAR 0037
ENCODING 55
SWIDTH 462 0
DWIDTH 9 0
BBX 9 12 2 0
BITMAP
7F80
7F80
0300
0600
0E00
1C00
1800
3800
3000
7000
6000
E000
ENDCHAR
STARTCHAR 0038
ENCODING 56
SWIDTH 462 0
DWIDTH 9 0
BBX 10 12 1 0
BITMAP
1F80
3F80
31C0
3180
3B80
1F00
3F00
6300
E300
E300
FF00
7E00
ENDCHAR
STARTCHAR 0039
ENCODING 57
SWIDTH 462 0
DWIDTH 9 0
BBX 9 12 1 0
BITMAP
1F00
3F80
7180
6180
6180
7380
3F80
0380
0300
0E00
FC00
F000
ENDCHAR
STARTCHAR 003A
ENCODING 58
SWIDTH 462 0
DWIDTH 9 0
BBX 5 9 3 0
BITMAP
38
38
38
00
00
00
60
F0
E0
ENDCHAR
STARTCHAR 003B
ENCODING 59
SWIDTH 462 0
DWIDTH 9 0
BBX 6 12 2 -3
BITMAP
1C
1C
1C
00
00
00
30
78
70
30
E0
C0
ENDCHAR
STARTCHAR 003C
ENCODING 60
SWIDTH 462 0
DWIDTH 9 0
BBX 8 8 2 1
BITMAP
03
0F
7E
F0
E0
7C
1E
06
ENDCHAR
STARTCHAR 003D
ENCODING 61
SWIDTH 462 0
DWIDTH 9 0
BBX 9 6 1 2
BITMAP
7F80
7F80
0000
0000
FF00
FF00
ENDCHAR
STARTCHAR 003E
ENCODING 62
SWIDTH 462 0
DWIDTH 9 0
BBX 9 8 1 1
BITMAP
3000
7C00
1F00
0780
0F80
7E00
F000
C000
ENDCHAR
STARTCHAR 003F
ENCODING 63
SWIDTH 462 0
DWIDTH 9 0
BBX 7 12 3 0
BITMAP
7E
7E
06
0E
1C
38
70
60
00
E0
E0
E0
ENDCHAR
STARTCHAR 0040
ENCODING 64
SWIDTH 462 0
DWIDTH 9 0
BBX 10 15 1 -3
BITMAP
0F80
1DC0
30C0
63C0
6FC0
4D80
D980
D980
D980
DF00
CF00
C000
6000
3E00
0C00
ENDCHAR
STARTCHAR 0041
ENCODING 65
SWIDTH 462 0
DWIDTH 9 0
BBX 9 12 0 0
BITMAP
0380
0780
0780
0D80
0D80
1980
1980
3F80
3F80
6180
6180
E180
ENDCHAR
STARTCHAR 0042
ENCODING 66
SWIDTH 462 0
DWIDTH 9 0
BBX 9 12 1 0
BITMAP
3F00
3F80
3180
3180
3380
7F00
7F00
6380
6380
E380
FF00
FC00
ENDCHAR
STARTCHAR 0043
ENCODING 67
SWIDTH 462 0
DWIDTH 9 0
BBX 9 12 2 0
BITMAP
1F80
3F80
7000
6000
E000
C000
C000
C000
C000
E000
FE00
7E00
ENDCHAR
STARTCHAR 0044
ENCODING 68
SWIDTH 462 0
DWIDTH 9 0
BBX 9 12 1 0
BITMAP
3F00
3F80
3380
3180
7180
7180
6180
6380
E300
E700
FE00
FC00
ENDCHAR
STARTCHAR 0045
ENCODING 69
SWIDTH 462 0
DWIDTH 9 0
BBX 10 12 1 0
BITMAP
1FC0
1FC0
3800
3000
3000
3F00
7F00
6000
6000
6000
FF00
FF00
ENDCHAR
STARTCHAR 0046
ENCODING 70
SWIDTH 462 0
DWIDTH 9 0
BBX 10 12 1 0
BITMAP
1FC0
1FC0
3800
3800
3000
3F00
7F00
7000
6000
6000
E000
E000
ENDCHAR
STARTCHAR 0047
ENCODING 71
SWIDTH 462 0
DWIDTH 9 0
BBX 9 12 2 0
BITMAP
1F80
3F80
7000
6000
E000
C000
C700
C700
C600
C600
FE00
7E00
ENDCHAR
STARTCHAR 0048
ENCODING 72
SWIDTH 462 0
DWIDTH 9 0
BBX 10 12 1 0
BITMAP
38C0
30C0
31C0
31C0
7180
7F80
7F80
6380
E300
C300
C700
C700
ENDCHAR
STARTCHAR 0049
ENCODING 73
SWIDTH 462 0
DWIDTH 9 0
BBX 10 12 1 0
BITMAP
3FC0
3FC0
0600
0E00
0E00
0C00
0C00
1C00
1C00
1800
FF00
FE00
ENDCHAR
STARTCHAR 004A
ENCODING 74
SWIDTH 462 0
DWIDTH 9 0
BBX 10 12 1 0
BITMAP
1FC0
1F80
0180
0180
0380
0380
0300
0300
0700
0600
FE00
FC00
ENDCHAR
STARTCHAR 004B
ENCODING 75
SWIDTH 462 0
DWIDTH 9 0
BBX 10 12 1 0
BITMAP
38C0
39C0
3380
3700
7E00
7C00
7C00
6E00
E600
E700
C700
C300
ENDCHAR
STARTCHAR 004C
ENCODING 76
SWIDTH 462 0
DWIDTH 9 0
BBX 8 12 1 0
BITMAP
18
38
38
30
30
70
70
60
60
E0
FF
FE
ENDCHAR
STARTCHAR 004D
ENCODING 77
SWIDTH 462 0
DWIDTH 9 0
BBX 11 12 0 0
BITMAP
1C60
1CE0
1CE0
35E0
3540
37C0
36C0
66C0
60C0
6180
6180
C180
ENDCHAR
STARTCHAR 004E
ENCODING 78
SWIDTH 462 0
DWIDTH 9 0
BBX 10 12 1 0
BITMAP
38C0
38C0
38C0
39C0
6D80
6D80
6D80
6780
C700
C700
C700
C700
ENDCHAR
STARTCHAR 004F
ENCODING 79
SWIDTH 462 0
DWIDTH 9 0
BBX 9 12 1 0
BITMAP
0F00
3F80
3180
7180
6180
6180
E180
E380
E300
E700
7E00
7C00
ENDCHAR
STARTCHAR 0050
ENCODING 80
SWIDTH 462 0
DWIDTH 9 0
BBX 10 12 1 0
BITMAP
1F80
3F80
31C0
31C0
31C0
7380
7F00
7E00
6000
E000
C000
C000
ENDCHAR
STARTCHAR 0051
ENCODING 81
SWIDTH 462 0
DWIDTH 9 0
BBX 9 15 1 -3
BITMAP
0F00
3F80
3180
7180
6180
6180
E180
E380
E300
E700
7E00
7C00
3000
1C00
0E00
ENDCHAR
STARTCHAR 0052
ENCODING 82
SWIDTH 462 0
DWIDTH 9 0
BBX 9 12 1 0
BITMAP
3F00
3F80
3180
3180
7180
7780
7F00
7E00
E600
E600
C700
C300
ENDCHAR
STARTCHAR 0053
ENCODING 83
SWIDTH 462 0
DWIDTH 9 0
BBX 9 12 1 0
BITMAP
1F80
3F80
3000
3000
3800
3E00
0F00
0700
0300
0300
FF00
FE00
ENDCHAR
STARTCHAR 0054
ENCODING 84
SWIDTH 462 0
DWIDTH 9 0
BBX 9 12 3 0
BITMAP
FF80
FF00
1800
3800
3000
3000
3000
7000
6000
6000
6000
E000
ENDCHAR
STARTCHAR 0055
ENCODING 85
SWIDTH 462 0
DWIDTH 9 0
BBX 10 12 1 0
BITMAP
38C0
31C0
31C0
7180
7180
6180
6380
6300
E300
E700
7E00
7C00
ENDCHAR
STARTCHAR 0056
ENCODING 86
SWIDTH 462 0
DWIDTH 9 0
BBX 9 12 3 0
BITMAP
C380
C300
C700
C600
C600
CC00
CC00
D800
D800
F000
F000
E000
ENDCHAR
STARTCHAR 0057
ENCODING 87
SWIDTH 462 0
DWIDTH 9 0
BBX 11 12 1 0
BITMAP
3060
30C0
70C0
60C0
6CC0
6D80
7D80
D580
F500
E700
E700
C700
ENDCHAR
STARTCHAR 0058
ENCODING 88
SWIDTH 462 0
DWIDTH 9 0
BBX 11 12 0 0
BITMAP
1C60
0CE0
0CC0
0F80
0700
0700
0F00
1F00
1B00
3B80
7180
E180
ENDCHAR
STARTCHAR 0059
ENCODING 89
SWIDTH 462 0
DWIDTH 9 0
BBX 9 12 3 0
BITMAP
C380
C300
C600
EE00
6C00
7800
7800
7000
7000
6000
6000
E000
ENDCHAR
STARTCHAR 005A
ENCODING 90
SWIDTH 462 0
DWIDTH 9 0
BBX 10 12 1 0
BITMAP
3FC0
3FC0
0380
0300
0600
0C00
1C00
3800
7000
6000
FF00
FF00
ENDCHAR
STARTCHAR 005B
ENCODING 91
SWIDTH 462 0
DWIDTH 9 0
BBX 9 17 2 -3
BITMAP
0F80
0F80
1C00
1800
1800
1800
3800
3000
3000
3000
7000
6000
6000
6000
E000
FC00
F800
ENDCHAR
STARTCHAR 005C
ENCODING 92
SWIDTH 462 0
DWIDTH 9 0
BBX 4 17 4 -3
BITMAP
C0
C0
C0
E0
E0
E0
60
60
60
60
60
60
60
70
70
70
70
ENDCHAR
STARTCHAR 005D
ENCODING 93
SWIDTH 462 0
DWIDTH 9 0
BBX 10 17 0 -3
BITMAP
0FC0
0F80
0180
0180
0380
0380
0300
0300
0700
0700
0600
0600
0600
0E00
0C00
7C00
FC00
ENDCHAR
STARTCHAR 005E
ENCODING 94
SWIDTH 462 0
DWIDTH 9 0
BBX 8 7 2 5
BITMAP
0E
1E
3E
77
67
C3
42
ENDCHAR
STARTCHAR 005F
ENCODING 95
SWIDTH 462 0
DWIDTH 9 0
BBX 8 2 0 -3
BITMAP
FF
FF
ENDCHAR
STARTCHAR 0060
ENCODING 96
SWIDTH 462 0
DWIDTH 9 0
BBX 3 3 5 10
BITMAP
C0
E0
20
ENDCHAR
STARTCHAR 0061
ENCODING 97
SWIDTH 462 0
DWIDTH 9 0
BBX 9 9 1 0
BITMAP
1F80
3F80
7380
6300
E300
E300
E700
7F00
7B00
ENDCHAR
STARTCHAR 0062
ENCODING 98
SWIDTH 462 0
DWIDTH 9 0
BBX 9 13 1 0
BITMAP
1800
3800
3800
3000
3F00
3F80
7380
6380
6380
6300
E700
FE00
FC00
ENDCHAR
STARTCHAR 0063
ENCODING 99
SWIDTH 462 0
DWIDTH 9 0
BBX 9 9 1 0
BITMAP
1F80
3F80
7000
6000
6000
E000
6000
7F00
3F00
ENDCHAR
STARTCHAR 0064
ENCODING 100
SWIDTH 462 0
DWIDTH 9 0
BBX 10 13 1 0
BITMAP
00C0
01C0
01C0
0180
1F80
3F80
7380
6300
E300
E300
E700
7F00
7B00
ENDCHAR
STARTCHAR 0065
ENCODING 101
SWIDTH 462 0
DWIDTH 9 0
BBX 9 9 1 0
BITMAP
1F80
3F80
7180
6380
7F00
FC00
6000
7F00
3F00
ENDCHAR
STARTCHAR 0066
ENCODING 102
SWIDTH 462 0
DWIDTH 9 0
BBX 12 16 -1 -3
BITMAP
01F0
03F0
0300
0300
0FE0
1FE0
0700
0600
0600
0600
0E00
0E00
0C00
0C00
7C00
F800
ENDCHAR
STARTCHAR 0067
ENCODING 103
SWIDTH 462 0
DWIDTH 9 0
BBX 10 12 0 -3
BITMAP
0FC0
1FC0
39C0
31C0
3180
7180
3F80
3F80
0300
0700
FE00
FC00
ENDCHAR
STARTCHAR 0068
ENCODING 104
SWIDTH 462 0
DWIDTH 9 0
BBX 9 13 1 0
BITMAP
1800
1800
3800
3800
3F00
3F80
7380
7380
6300
6300
E700
E700
C600
ENDCHAR
STARTCHAR 0069
ENCODING 105
SWIDTH 462 0
DWIDTH 9 0
BBX 7 13 2 0
BITMAP
1C
1C
08
00
F8
F8
18
38
30
30
30
3E
3E
ENDCHAR
STARTCHAR 006A
ENCODING 106
SWIDTH 462 0
DWIDTH 9 0
BBX 9 16 0 -3
BITMAP
0180
0380
0180
0000
1F80
1F80
0380
0300
0300
0700
0700
0600
0600
0E00
FC00
FC00
ENDCHAR
STARTCHAR 006B
ENCODING 107
SWIDTH 462 0
DWIDTH 9 0
BBX 10 13 1 0
BITMAP
1800
1800
1800
3800
31C0
3380
3600
7C00
7C00
6E00
6600
E700
E700
ENDCHAR
STARTCHAR 006C
ENCODING 108
SWIDTH 462 0
DWIDTH 9 0
BBX 6 13 3 0
BITMAP
F8
F8
38
30
30
70
70
60
60
E0
E0
FC
7C
ENDCHAR
STARTCHAR 006D
ENCODING 109
SWIDTH 462 0
DWIDTH 9 0
BBX 9 9 1 0
BITMAP
7F80
7F80
6D80
6D80
CD80
D900
C300
C300
8300
ENDCHAR
STARTCHAR 006E
ENCODING 110
SWIDTH 462 0
DWIDTH 9 0
BBX 9 9 1 0
BITMAP
3F00
3F80
7380
7380
6300
6300
E700
E700
C600
ENDCHAR
STARTCHAR 006F
ENCODING 111
SWIDTH 462 0
DWIDTH 9 0
BBX 9 9 1 0
BITMAP
1F00
3F80
7380
6380
E380
E300
E700
7E00
7C00
ENDCHAR
STARTCHAR 0070
ENCODING 112
SWIDTH 462 0
DWIDTH 9 0
BBX 10 12 0 -3
BITMAP
1F80
1FC0
39C0
31C0
31C0
3180
7380
7F00
7E00
6000
E000
E000
ENDCHAR
STARTCHAR 0071
ENCODING 113
SWIDTH 462 0
DWIDTH 9 0
BBX 9 12 1 -3
BITMAP
1F80
3F80
7380
6380
E300
E300
E700
7F00
7E00
0600
0600
0E00
ENDCHAR
STARTCHAR 0072
ENCODING 114
SWIDTH 462 0
DWIDTH 9 0
BBX 9 9 1 0
BITMAP
3F80
3F80
3000
3000
7000
7000
6000
6000
E000
ENDCHAR
STARTCHAR 0073
ENCODING 115
SWIDTH 462 0
DWIDTH 9 0
BBX 9 9 1 0
BITMAP
1F80
3F00
3000
3800
3E00
0700
0700
FE00
FE00
ENDCHAR
STARTCHAR 0074
ENCODING 116
SWIDTH 462 0
DWIDTH 9 0
BBX 8 12 2 0
BITMAP
18
18
18
FF
FF
30
30
70
60
60
7E
3E
ENDCHAR
STARTCHAR 0075
ENCODING 117
SWIDTH 462 0
DWIDTH 9 0
BBX 9 9 1 0
BITMAP
3180
7380
7380
6300
6300
6700
E700
7F00
7B00
ENDCHAR
STARTCHAR 0076
ENCODING 118
SWIDTH 462 0
DWIDTH 9 0
BBX 9 9 2 0
BITMAP
E380
E300
E700
E600
6E00
6C00
7800
7800
7000
ENDCHAR
STARTCHAR 0077
ENCODING 119
SWIDTH 462 0
DWIDTH 9 0
BBX 10 9 1 0
BITMAP
60C0
60C0
6D80
4D80
DD80
D500
F700
E600
C600
ENDCHAR
STARTCHAR 0078
ENCODING 120
SWIDTH 462 0
DWIDTH 9 0
BBX 9 9 1 0
BITMAP
7180
3300
3F00
1E00
1C00
3E00
7600
6700
C700
ENDCHAR
STARTCHAR 0079
ENCODING 121
SWIDTH 462 0
DWIDTH 9 0
BBX 11 12 -1 -3
BITMAP
1C60
1C60
1CE0
0CC0
0DC0
0D80
0F80
0F00
0E00
0E00
7C00
F000
ENDCHAR
STARTCHAR 007A
ENCODING 122
SWIDTH 462 0
DWIDTH 9 0
BBX 9 9 1 0
BITMAP
3F80
3F80
0700
0E00
1C00
3800
7000
FF00
FE00
ENDCHAR
STARTCHAR 007B
ENCODING 123
SWIDTH 462 0
DWIDTH 9 0
BBX 9 17 2 -3
BITMAP
0380
0F80
0C00
0C00
1C00
1800
1800
3800
F000
F000
3000
3000
7000
6000
6000
7C00
3C00
ENDCHAR
STARTCHAR 007C
ENCODING 124
SWIDTH 462 0
DWIDTH 9 0
BBX 6 17 3 -3
BITMAP
1C
1C
18
18
38
38
30
30
30
70
60
60
60
E0
C0
C0
C0
ENDCHAR
STARTCHAR 007D
ENCODING 125
SWIDTH 462 0
DWIDTH 9 0
BBX 9 17 0 -3
BITMAP
0E00
0F00
0300
0300
0300
0300
0700
0700
0380
0780
0E00
0C00
0C00
0C00
1C00
F800
F800
ENDCHAR
STARTCHAR 007E
ENCODING 126
SWIDTH 462 0
DWIDTH 9 0
BBX 9 4 1 3
BITMAP
3980
7F80
CF00
4600
ENDCHAR
STARTCHAR 00A0
ENCODING 160
SWIDTH 462 0
DWIDTH 9 0
BBX 0 0 0 0
BITMAP
ENDCHAR
STARTCHAR 00A1
ENCODING 161
SWIDTH 462 0
DWIDTH 9 0
BBX 5 12 3 -3
BITMAP
38
38
38
00
30
70
60
60
E0
E0
E0
C0
ENDCHAR
STARTCHAR 00A2
ENCODING 162
SWIDTH 462 0
DWIDTH 9 0
BBX 8 14 2 -2
BITMAP
06
06
0E
3F
7B
E0
C0
C0
C0
FE
7E
38
30
30
ENDCHAR
STARTCHAR 00A3
ENCODING 163
SWIDTH 462 0
DWIDTH 9 0
BBX 9 12 2 0
BITMAP
0F80
1F80
3800
3000
3000
FE00
FE00
6000
6000
E000
FE00
FE00
ENDCHAR
STARTCHAR 00A4
ENCODING 164
SWIDTH 462 0
DWIDTH 9 0
BBX 8 8 2 2
BITMAP
C3
FF
6E
C7
E6
7E
FF
C3
ENDCHAR
STARTCHAR 00A5
ENCODING 165
SWIDTH 462 0
DWIDTH 9 0
BBX 11 12 1 0
BITMAP
30E0
30C0
3980
1B80
1F00
1E00
7F80
1C00
1C00
FF00
1800
3800
ENDCHAR
STARTCHAR 00A6
ENCODING 166
SWIDTH 462 0
DWIDTH 9 0
BBX 6 17 3 -3
BITMAP
0C
1C
18
18
18
38
38
00
00
00
70
60
60
E0
E0
C0
C0
ENDCHAR
STARTCHAR 00A7
ENCODING 167
SWIDTH 462 0
DWIDTH 9 0
BBX 9 14 1 -2
BITMAP
0F80
1F80
1800
1C00
3F00
7300
6300
6300
7E00
1C00
0E00
8E00
FC00
F800
ENDCHAR
STARTCHAR 00A8
ENCODING 168
SWIDTH 462 0
DWIDTH 9 0
BBX 6 3 4 10
BITMAP
CC
EC
40
ENDCHAR
STARTCHAR 00A9
ENCODING 169
SWIDTH 462 0
DWIDTH 9 0
BBX 9 9 1 0
BITMAP
3E00
6300
5D80
D080
F080
D080
5D80
6300
3E00
ENDCHAR
STARTCHAR 00AA
ENCODING 170
SWIDTH 462 0
DWIDTH 9 0
BBX 7 7 3 5
BITMAP
3E
76
CC
CC
CC
7C
34
ENDCHAR
STARTCHAR 00AB
ENCODING 171
SWIDTH 462 0
DWIDTH 9 0
BBX 8 8 2 1
BITMAP
11
33
66
CC
CC
CC
66
66
ENDCHAR
STARTCHAR 00AC
ENCODING 172
SWIDTH 462 0
DWIDTH 9 0
BBX 8 6 2 1
BITMAP
FF
FF
06
06
06
06
ENDCHAR
STARTCHAR 00AD
ENCODING 173
SWIDTH 462 0
DWIDTH 9 0
BBX 5 2 3 4
BITMAP
F8
F8
ENDCHAR
STARTCHAR 00AE
ENCODING 174
SWIDTH 462 0
DWIDTH 9 0
BBX 9 9 1 0
BITMAP
3E00
6300
5D80
D480
DC80
D480
5580
6300
3E00
ENDCHAR
STARTCHAR 00AF
ENCODING 175
SWIDTH 462 0
DWIDTH 9 0
BBX 6 2 4 11
BITMAP
7C
FC
ENDCHAR
STARTCHAR 00B0
ENCODING 176
SWIDTH 462 0
DWIDTH 9 0
BBX 6 6 4 8
BITMAP
20
F8
CC
CC
F8
70
ENDCHAR
STARTCHAR 00B1
ENCODING 177
SWIDTH 462 0
DWIDTH 9 0
BBX 9 11 1 0
BITMAP
0600
0600
0600
7F80
7F80
0C00
0C00
1800
0000
FF00
FF00
ENDCHAR
STARTCHAR 00B2
ENCODING 178
SWIDTH 462 0
DWIDTH 9 0
BBX 6 7 3 5
BITMAP
3C
2C
0C
38
70
7C
F8
ENDCHAR
STARTCHAR 00B3
ENCODING 179
SWIDTH 462 0
DWIDTH 9 0
BBX 5 7 4 5
BITMAP
78
18
18
78
18
F8
F0
ENDCHAR
STARTCHAR 00B4
ENCODING 180
SWIDTH 462 0
DWIDTH 9 0
BBX 3 3 6 10
BITMAP
60
E0
C0
ENDCHAR
STARTCHAR 00B5
ENCODING 181
SWIDTH 462 0
DWIDTH 9 0
BBX 10 12 0 -3
BITMAP
18C0
19C0
39C0
3180
3180
3180
7380
7F80
7F80
6000
E000
E000
ENDCHAR
STARTCHAR 00B6
ENCODING 182
SWIDTH 462 0
DWIDTH 9 0
BBX 9 15 2 -3
BITMAP
1F80
7F80
F980
F980
FB00
FB00
F300
3300
3600
3600
6600
6600
6C00
6C00
CC00
ENDCHAR
STARTCHAR 00B7
ENCODING 183
SWIDTH 462 0
DWIDTH 9 0
BBX 3 4 4 3
BITMAP
60
E0
E0
40
ENDCHAR
STARTCHAR 00B8
ENCODING 184
SWIDTH 462 0
DWIDTH 9 0
BBX 4 3 3 -3
BITMAP
60
30
E0
ENDCHAR
STARTCHAR 00B9
ENCODING 185
SWIDTH 462 0
DWIDTH 9 0
BBX 6 7 3 5
BITMAP
18
78
58
18
30
FC
F8
ENDCHAR
STARTCHAR 00BA
ENCODING 186
SWIDTH 462 0
DWIDTH 9 0
BBX 7 7 3 5
BITMAP
3C
66
66
C6
CC
7C
30
ENDCHAR
STARTCHAR 00BB
ENCODING 187
SWIDTH 462 0
DWIDTH 9 0
BBX 7 8 2 1
BITMAP
44
66
66
36
76
6E
CC
98
ENDCHAR
STARTCHAR 00BC
ENCODING 188
SWIDTH 462 0
DWIDTH 9 0
BBX 10 12 1 0
BITMAP
18C0
7180
1300
3300
3600
0C00
1800
1B80
3300
6500
CF80
C300
ENDCHAR
STARTCHAR 00BD
ENCODING 189
SWIDTH 462 0
DWIDTH 9 0
BBX 10 12 1 0
BITMAP
18C0
7180
1300
3200
3600
0C00
1800
1700
3580
6300
C600
8F00
ENDCHAR
STARTCHAR 00BE
ENCODING 190
SWIDTH 462 0
DWIDTH 9 0
BBX 10 12 1 0
BITMAP
38C0
0980
3980
5B00
7600
0C00
0C00
1B80
3300
6500
6F80
C300
ENDCHAR
STARTCHAR 00BF
ENCODING 191
SWIDTH 462 0
DWIDTH 9 0
BBX 7 12 1 -3
BITMAP
06
0E
0E
00
0C
0C
38
70
E0
E0
FC
7C
ENDCHAR
STARTCHAR 00C0
ENCODING 192
SWIDTH 462 0
DWIDTH 9 0
BBX 9 16 0 0
BITMAP
0200
0780
0180
0000
0380
0780
0780
0D80
0D80
1980
1980
3F80
3F80
6180
6180
E180
ENDCHAR
STARTCHAR 00C1
ENCODING 193
SWIDTH 462 0
DWIDTH 9 0
BBX 10 16 0 0
BITMAP
00C0
01C0
0380
0000
0380
0780
0780
0D80
0D80
1980
1980
3F80
3F80
6180
6180
E180
ENDCHAR
STARTCHAR 00C2
ENCODING 194
SWIDTH 462 0
DWIDTH 9 0
BBX 10 16 0 0
BITMAP
0180
03C0
06C0
0000
0380
0780
0780
0D80
0D80
1980
1980
3F80
3F80
6180
6180
E180
ENDCHAR
STARTCHAR 00C3
ENCODING 195
SWIDTH 462 0
DWIDTH 9 0
BBX 11 16 0 0
BITMAP
0300
07E0
04C0
0000
0380
0780
0780
0D80
0D80
1980
1980
3F80
3F80
6180
6180
E180
ENDCHAR
STARTCHAR 00C4
ENCODING 196
SWIDTH 462 0
DWIDTH 9 0
BBX 11 16 0 0
BITMAP
0660
0660
0660
0000
0380
0780
0780
0D80
0D80
1980
1980
3F80
3F80
6180
6180
E180
ENDCHAR
STARTCHAR 00C5
ENCODING 197
SWIDTH 462 0
DWIDTH 9 0
BBX 10 15 0 0
BITMAP
0380
06C0
0380
0380
0780
0780
0D80
0D80
1980
1980
3F80
3F80
6180
6180
E180
ENDCHAR
STARTCHAR 00C6
ENCODING 198
SWIDTH 462 0
DWIDTH 9 0
BBX 12 12 0 0
BITMAP
03F0
07E0
0780
0D80
0F00
1BC0
3BC0
3F00
7F00
6600
E7C0
C780
ENDCHAR
STARTCHAR 00C7
ENCODING 199
SWIDTH 462 0
DWIDTH 9 0
BBX 9 15 2 -3
BITMAP
1F80
3F80
7000
6000
E000
C000
C000
C000
C000
E000
FE00
7E00
3000
1800
7000
ENDCHAR
STARTCHAR 00C8
ENCODING 200
SWIDTH 462 0
DWIDTH 9 0
BBX 10 16 1 0
BITMAP
0600
0700
0380
0000
1FC0
1FC0
3800
3000
3000
3F00
7F00
6000
6000
6000
FF00
FF00
ENDCHAR
STARTCHAR 00C9
ENCODING 201
SWIDTH 462 0
DWIDTH 9 0
BBX 10 16 1 0
BITMAP
0180
0380
0700
0000
1FC0
1FC0
3800
3000
3000
3F00
7F00
6000
6000
6000
FF00
FF00
ENDCHAR
STARTCHAR 00CA
ENCODING 202
SWIDTH 462 0
DWIDTH 9 0
BBX 10 16 1 0
BITMAP
0100
0780
0C80
0000
1FC0
1FC0
3800
3000
3000
3F00
7F00
6000
6000
6000
FF00
FF00
ENDCHAR
STARTCHAR 00CB
ENCODING 203
SWIDTH 462 0
DWIDTH 9 0
BBX 10 16 1 0
BITMAP
0CC0
0CC0
0CC0
0000
1FC0
1FC0
3800
3000
3000
3F00
7F00
6000
6000
6000
FF00
FF00
ENDCHAR
STARTCHAR 00CC
ENCODING 204
SWIDTH 462 0
DWIDTH 9 0
BBX 10 16 1 0
BITMAP
0400
0F00
0300
0000
3FC0
3FC0
0600
0E00
0E00
0C00
0C00
1C00
1C00
1800
FF00
FE00
ENDCHAR
STARTCHAR 00CD
ENCODING 205
SWIDTH 462 0
DWIDTH 9 0
BBX 10 16 1 0
BITMAP
0180
0380
0700
0000
3FC0
3FC0
0600
0E00
0E00
0C00
0C00
1C00
1C00
1800
FF00
FE00
ENDCHAR
STARTCHAR 00CE
ENCODING 206
SWIDTH 462 0
DWIDTH 9 0
BBX 10 16 1 0
BITMAP
0300
0780
0D80
0000
3FC0
3FC0
0600
0E00
0E00
0C00
0C00
1C00
1C00
1800
FF00
FE00
ENDCHAR
STARTCHAR 00CF
ENCODING 207
SWIDTH 462 0
DWIDTH 9 0
BBX 10 16 1 0
BITMAP
0CC0
0CC0
0CC0
0000
3FC0
3FC0
0600
0E00
0E00
0C00
0C00
1C00
1C00
1800
FF00
FE00
ENDCHAR
STARTCHAR 00D0
ENCODING 208
SWIDTH 462 0
DWIDTH 9 0
BBX 9 12 1 0
BITMAP
1F00
3F80
3980
3180
3180
F980
F980
6380
6300
6700
FE00
FC00
ENDCHAR
STARTCHAR 00D1
ENCODING 209
SWIDTH 462 0
DWIDTH 9 0
BBX 10 16 1 0
BITMAP
0600
0FC0
0980
0000
38C0
38C0
38C0
39C0
6D80
6D80
6D80
6780
C700
C700
C700
C700
ENDCHAR
STARTCHAR 00D2
ENCODING 210
SWIDTH 462 0
DWIDTH 9 0
BBX 9 16 1 0
BITMAP
0600
0700
0380
0000
0F00
3F80
3180
7180
6180
6180
E180
E380
E300
E700
7E00
7C00
ENDCHAR
STARTCHAR 00D3
ENCODING 211
SWIDTH 462 0
DWIDTH 9 0
BBX 9 16 1 0
BITMAP
0100
0780
0600
0000
0F00
3F80
3180
7180
6180
6180
E180
E380
E300
E700
7E00
7C00
ENDCHAR
STARTCHAR 00D4
ENCODING 212
SWIDTH 462 0
DWIDTH 9 0
BBX 9 16 1 0
BITMAP
0300
0700
0D80
0000
0F00
3F80
3180
7180
6180
6180
E180
E380
E300
E700
7E00
7C00
ENDCHAR
STARTCHAR 00D5
ENCODING 213
SWIDTH 462 0
DWIDTH 9 0
BBX 10 16 1 0
BITMAP
0600
0FC0
0980
0000
0F00
3F80
3180
7180
6180
6180
E180
E380
E300
E700
7E00
7C00
ENDCHAR
STARTCHAR 00D6
ENCODING 214
SWIDTH 462 0
DWIDTH 9 0
BBX 10 16 1 0
BITMAP
0CC0
0DC0
0C80
0000
0F00
3F80
3180
7180
6180
6180
E180
E380
E300
E700
7E00
7C00
ENDCHAR
STARTCHAR 00D7
ENCODING 215
SWIDTH 462 0
DWIDTH 9 0
BBX 8 8 2 1
BITMAP
21
67
7E
3C
3C
EC
CE
84
ENDCHAR
STARTCHAR 00D8
ENCODING 216
SWIDTH 462 0
DWIDTH 9 0
BBX 9 14 1 -1
BITMAP
0080
0F80
3F80
3380
7380
6780
6D80
E980
F980
F300
E700
7E00
FC00
4000
ENDCHAR
STARTCHAR 00D9
ENCODING 217
SWIDTH 462 0
DWIDTH 9 0
BBX 10 16 1 0
BITMAP
0400
0E00
0700
0000
38C0
31C0
31C0
7180
7180
6180
6380
6300
E300
E700
7E00
7C00
ENDCHAR
STARTCHAR 00DA
ENCODING 218
SWIDTH 462 0
DWIDTH 9 0
BBX 10 16 1 0
BITMAP
0100
0380
0600
0000
38C0
31C0
31C0
7180
7180
6180
6380
6300
E300
E700
7E00
7C00
ENDCHAR
STARTCHAR 00DB
ENCODING 219
SWIDTH 462 0
DWIDTH 9 0
BBX 10 16 1 0
BITMAP
0300
0780
0D80
0000
38C0
31C0
31C0
7180
7180
6180
6380
6300
E300
E700
7E00
7C00
ENDCHAR
STARTCHAR 00DC
ENCODING 220
SWIDTH 462 0
DWIDTH 9 0
BBX 10 16 1 0
BITMAP
0CC0
0CC0
0CC0
0000
38C0
31C0
31C0
7180
7180
6180
6380
6300
E300
E700
7E00
7C00
ENDCHAR
STARTCHAR 00DD
ENCODING 221
SWIDTH 462 0
DWIDTH 9 0
BBX 9 16 3 0
BITMAP
0600
0E00
1C00
0000
C380
C300
C600
EE00
6C00
7800
7800
7000
7000
6000
6000
E000
ENDCHAR
STARTCHAR 00DE
ENCODING 222
SWIDTH 462 0
DWIDTH 9 0
BBX 9 12 1 0
BITMAP
1800
3800
3F00
3F80
3180
7180
6180
6780
7F00
FC00
C000
C000
ENDCHAR
STARTCHAR 00DF
ENCODING 223
SWIDTH 462 0
DWIDTH 9 0
BBX 12 16 -2 -3
BITMAP
03F0
03F0
0730
0630
0660
0EC0
0EC0
0CE0
0C60
0C70
1C70
1DF0
1BE0
3800
F800
F000
ENDCHAR
STARTCHAR 00E0
ENCODING 224
SWIDTH 462 0
DWIDTH 9 0
BBX 9 13 1 0
BITMAP
0600
0F00
0300
0000
1F80
3F80
7380
6300
E300
E300
E700
7F00
7B00
ENDCHAR
STARTCHAR 00E1
ENCODING 225
SWIDTH 462 0
DWIDTH 9 0
BBX 9 13 1 0
BITMAP
0180
0780
0600
0000
1F80
3F80
7380
6300
E300
E300
E700
7F00
7B00
ENDCHAR
STARTCHAR 00E2
ENCODING 226
SWIDTH 462 0
DWIDTH 9 0
BBX 9 13 1 0
BITMAP
0300
0780
0D80
0000
1F80
3F80
7380
6300
E300
E300
E700
7F00
7B00
ENDCHAR
STARTCHAR 00E3
ENCODING 227
SWIDTH 462 0
DWIDTH 9 0
BBX 10 13 1 0
BITMAP
0EC0
0F80
0000
0000
1F80
3F80
7380
6300
E300
E300
E700
7F00
7B00
ENDCHAR
STARTCHAR 00E4
ENCODING 228
SWIDTH 462 0
DWIDTH 9 0
BBX 10 13 1 0
BITMAP
0CC0
0DC0
0880
0000
1F80
3F80
7380
6300
E300
E300
E700
7F00
7B00
ENDCHAR
STARTCHAR 00E5
ENCODING 229
SWIDTH 462 0
DWIDTH 9 0
BBX 9 14 1 0
BITMAP
0700
0480
0580
0300
0000
1F80
3F80
7380
6300
E300
E300
E700
7F00
7B00
ENDCHAR
STARTCHAR 00E6
ENCODING 230
SWIDTH 462 0
DWIDTH 9 0
BBX 10 9 1 0
BITMAP
7B80
5EC0
0CC0
3D80
7F00
DE00
9800
FF00
EF00
ENDCHAR
STARTCHAR 00E7
ENCODING 231
SWIDTH 462 0
DWIDTH 9 0
BBX 9 12 1 -3
BITMAP
1F80
3F80
7000
6000
6000
E000
6000
7F00
3F00
1800
0C00
3C00
ENDCHAR
STARTCHAR 00E8
ENCODING 232
SWIDTH 462 0
DWIDTH 9 0
BBX 9 13 1 0
BITMAP
0400
0F00
0300
0000
1F80
3F80
7180
6380
7F00
FC00
6000
7F00
3F00
ENDCHAR
STARTCHAR 00E9
ENCODING 233
SWIDTH 462 0
DWIDTH 9 0
BBX 9 13 1 0
BITMAP
0300
0780
0600
0000
1F80
3F80
7180
6380
7F00
FC00
6000
7F00
3F00
ENDCHAR
STARTCHAR 00EA
ENCODING 234
SWIDTH 462 0
DWIDTH 9 0
BBX 9 13 1 0
BITMAP
0300
0F00
0980
0000
1F80
3F80
7180
6380
7F00
FC00
6000
7F00
3F00
ENDCHAR
STARTCHAR 00EB
ENCODING 235
SWIDTH 462 0
DWIDTH 9 0
BBX 9 13 1 0
BITMAP
1980
1D80
0800
0000
1F80
3F80
7180
6380
7F00
FC00
6000
7F00
3F00
ENDCHAR
STARTCHAR 00EC
ENCODING 236
SWIDTH 462 0
DWIDTH 9 0
BBX 7 13 2 0
BITMAP
10
3C
0C
00
F8
F8
18
38
30
30
30
3E
3E
ENDCHAR
STARTCHAR 00ED
ENCODING 237
SWIDTH 462 0
DWIDTH 9 0
BBX 7 13 2 0
BITMAP
04
1E
18
00
F8
F8
18
38
30
30
30
3E
3E
ENDCHAR
STARTCHAR 00EE
ENCODING 238
SWIDTH 462 0
DWIDTH 9 0
BBX 7 13 2 0
BITMAP
0C
3E
26
00
F8
F8
18
38
30
30
30
3E
3E
ENDCHAR
STARTCHAR 00EF
ENCODING 239
SWIDTH 462 0
DWIDTH 9 0
BBX 8 13 2 0
BITMAP
33
77
22
00
F8
F8
18
38
30
30
30
3E
3E
ENDCHAR
STARTCHAR 00F0
ENCODING 240
SWIDTH 462 0
DWIDTH 9 0
BBX 10 13 1 0
BITMAP
0600
07C0
0F80
0F80
0180
3F80
7F80
6380
E300
E300
E700
7E00
7C00
ENDCHAR
STARTCHAR 00F1
ENCODING 241
SWIDTH 462 0
DWIDTH 9 0
BBX 9 13 1 0
BITMAP
0E80
1F80
0000
0000
3F00
3F80
7380
7380
6300
6300
E700
E700
C600
ENDCHAR
STARTCHAR 00F2
ENCODING 242
SWIDTH 462 0
DWIDTH 9 0
BBX 9 13 1 0
BITMAP
0C00
0E00
0200
0000
1F00
3F80
7380
6380
E380
E300
E700
7E00
7C00
ENDCHAR
STARTCHAR 00F3
ENCODING 243
SWIDTH 462 0
DWIDTH 9 0
BBX 9 13 1 0
BITMAP
0300
0700
0400
0000
1F00
3F80
7380
6380
E380
E300
E700
7E00
7C00
ENDCHAR
STARTCHAR 00F4
ENCODING 244
SWIDTH 462 0
DWIDTH 9 0
BBX 9 13 1 0
BITMAP
0600
0F00
0900
0000
1F00
3F80
7380
6380
E380
E300
E700
7E00
7C00
ENDCHAR
STARTCHAR 00F5
ENCODING 245
SWIDTH 462 0
DWIDTH 9 0
BBX 9 13 1 0
BITMAP
0E80
1F80
0000
0000
1F00
3F80
7380
6380
E380
E300
E700
7E00
7C00
ENDCHAR
STARTCHAR 00F6
ENCODING 246
SWIDTH 462 0
DWIDTH 9 0
BBX 9 13 1 0
BITMAP
1980
1D80
0800
0000
1F00
3F80
7380
6380
E380
E300
E700
7E00
7C00
ENDCHAR
STARTCHAR 00F7
ENCODING 247
SWIDTH 462 0
DWIDTH 9 0
BBX 8 10 2 0
BITMAP
0C
1C
08
00
FF
FF
00
30
30
30
ENDCHAR
STARTCHAR 00F8
ENCODING 248
SWIDTH 462 0
DWIDTH 9 0
BBX 8 11 2 -1
BITMAP
01
3F
7F
67
CF
DB
F3
E6
FE
FC
80
ENDCHAR
STARTCHAR 00F9
ENCODING 249
SWIDTH 462 0
DWIDTH 9 0
BBX 9 13 1 0
BITMAP
0C00
0E00
0600
0000
3180
7380
7380
6300
6300
6700
E700
7F00
7B00
ENDCHAR
STARTCHAR 00FA
ENCODING 250
SWIDTH 462 0
DWIDTH 9 0
BBX 9 13 1 0
BITMAP
0300
0700
0C00
0000
3180
7380
7380
6300
6300
6700
E700
7F00
7B00
ENDCHAR
STARTCHAR 00FB
ENCODING 251
SWIDTH 462 0
DWIDTH 9 0
BBX 9 13 1 0
BITMAP
0600
0F00
0900
0000
3180
7380
7380
6300
6300
6700
E700
7F00
7B00
ENDCHAR
STARTCHAR 00FC
ENCODING 252
SWIDTH 462 0
DWIDTH 9 0
BBX 9 13 1 0
BITMAP
1980
1980
0100
0000
3180
7380
7380
6300
6300
6700
E700
7F00
7B00
ENDCHAR
STARTCHAR 00FD
ENCODING 253
SWIDTH 462 0
DWIDTH 9 0
BBX 11 16 -1 -3
BITMAP
00C0
01C0
0300
0000
1C60
1C60
1CE0
0CC0
0DC0
0D80
0F80
0F00
0E00
0E00
7C00
F000
ENDCHAR
STARTCHAR 00FE
ENCODING 254
SWIDTH 462 0
DWIDTH 9 0
BBX 10 16 0 -3
BITMAP
0C00
0C00
1C00
1800
1F80
1FC0
39C0
31C0
31C0
3180
7380
7F00
7E00
6000
E000
E000
ENDCHAR
STARTCHAR 00FF
ENCODING 255
SWIDTH 462 0
DWIDTH 9 0
BBX 11 16 -1 -3
BITMAP
0660
0660
0040
0000
1C60
1C60
1CE0
0CC0
0DC0
0D80
0F80
0F00
0E00
0E00
7C00
F000
ENDCHAR
STARTCHAR 0100
ENCODING 256
SWIDTH 462 0
DWIDTH 9 0
BBX 11 15 0 0
BITMAP
07E0
0000
0000
0380
0780
0780
0D80
0D80
1980
1980
3F80
3F80
6180
6180
E180
ENDCHAR
STARTCHAR 0101
ENCODING 257
SWIDTH 462 0
DWIDTH 9 0
BBX 10 13 1 0
BITMAP
0FC0
0FC0
0000
0000
1F80
3F80
7380
6300
E300
E300
E700
7F00
7B00
ENDCHAR
STARTCHAR 0102
ENCODING 258
SWIDTH 462 0
DWIDTH 9 0
BBX 11 16 0 0
BITMAP
0660
03C0
0380
0000
0380
0780
0780
0D80
0D80
1980
1980
3F80
3F80
6180
6180
E180
ENDCHAR
STARTCHAR 0103
ENCODING 259
SWIDTH 462 0
DWIDTH 9 0
BBX 9 13 1 0
BITMAP
0C80
0F80
0200
0000
1F80
3F80
7380
6300
E300
E300
E700
7F00
7B00
ENDCHAR
STARTCHAR 0104
ENCODING 260
SWIDTH 462 0
DWIDTH 9 0
BBX 9 15 0 -3
BITMAP
0380
0780
0780
0D80
0D80
1980
1980
3F80
3F80
7180
6180
E180
0180
0300
0380
ENDCHAR
STARTCHAR 0105
ENCODING 261
SWIDTH 462 0
DWIDTH 9 0
BBX 9 12 1 -3
BITMAP
1F80
3F80
7380
6300
E300
E300
E700
7F00
7B00
0600
0C00
0F00
ENDCHAR
STARTCHAR 0106
ENCODING 262
SWIDTH 462 0
DWIDTH 9 0
BBX 9 16 2 0
BITMAP
0300
0700
0E00
0000
1F80
3F80
7000
6000
E000
C000
C000
C000
C000
E000
FE00
7E00
ENDCHAR
STARTCHAR 0107
ENCODING 263
SWIDTH 462 0
DWIDTH 9 0
BBX 9 13 1 0
BITMAP
0180
0380
0600
0000
1F80
3F80
7000
6000
6000
E000
6000
7F00
3F00
ENDCHAR
STARTCHAR 0108
ENCODING 264
SWIDTH 462 0
DWIDTH 9 0
BBX 9 16 2 0
BITMAP
0200
0700
0D80
0000
1F80
3F80
7000
6000
E000
C000
C000
C000
C000
E000
FE00
7E00
ENDCHAR
STARTCHAR 0109
ENCODING 265
SWIDTH 462 0
DWIDTH 9 0
BBX 9 13 1 0
BITMAP
0300
0780
0480
0000
1F80
3F80
7000
6000
6000
E000
6000
7F00
3F00
ENDCHAR
STARTCHAR 010A
ENCODING 266
SWIDTH 462 0
DWIDTH 9 0
BBX 9 16 2 0
BITMAP
0200
0700
0600
0000
1F80
3F80
7000
6000
E000
C000
C000
C000
C000
E000
FE00
7E00
ENDCHAR
STARTCHAR 010B
ENCODING 267
SWIDTH 462 0
DWIDTH 9 0
BBX 9 13 1 0
BITMAP
0300
0700
0200
0000
1F80
3F80
7000
6000
6000
E000
6000
7F00
3F00
ENDCHAR
STARTCHAR 010C
ENCODING 268
SWIDTH 462 0
DWIDTH 9 0
BBX 9 16 2 0
BITMAP
0C80
0780
0600
0000
1F80
3F80
7000
6000
E000
C000
C000
C000
C000
E000
FE00
7E00
ENDCHAR
STARTCHAR 010D
ENCODING 269
SWIDTH 462 0
DWIDTH 9 0
BBX 10 13 1 0
BITMAP
06C0
0780
0200
0000
1F80
3F80
7000
6000
6000
E000
6000
7F00
3F00
ENDCHAR
STARTCHAR 010E
ENCODING 270
SWIDTH 462 0
DWIDTH 9 0
BBX 9 16 1 0
BITMAP
0D80
0F00
0600
0000
3F00
3F80
3380
3180
7180
7180
6180
6380
E300
E700
FE00
FC00
ENDCHAR
STARTCHAR 010F
ENCODING 271
SWIDTH 462 0
DWIDTH 9 0
BBX 12 13 1 0
BITMAP
03B0
03E0
0360
0340
3F00
7F00
E600
C600
CE00
CE00
CC00
FE00
FE00
ENDCHAR
STARTCHAR 0110
ENCODING 272
SWIDTH 462 0
DWIDTH 9 0
BBX 9 12 1 0
BITMAP
1F00
3F80
3980
3180
3180
F980
F980
6380
6300
6700
FE00
FC00
ENDCHAR
STARTCHAR 0111
ENCODING 273
SWIDTH 462 0
DWIDTH 9 0
BBX 11 13 1 0
BITMAP
01C0
0FE0
0FE0
0180
1F80
3F80
7300
6300
E700
E700
E700
7F00
7F00
ENDCHAR
STARTCHAR 0112
ENCODING 274
SWIDTH 462 0
DWIDTH 9 0
BBX 10 15 1 0
BITMAP
0FC0
0000
0000
1FC0
1FC0
3800
3000
3000
3F00
7F00
6000
6000
6000
FF00
FF00
ENDCHAR
STARTCHAR 0113
ENCODING 275
SWIDTH 462 0
DWIDTH 9 0
BBX 10 13 1 0
BITMAP
0FC0
0F80
0000
0000
1F80
3F80
7180
6380
7F00
FC00
6000
7F00
3F00
ENDCHAR
STARTCHAR 0114
ENCODING 276
SWIDTH 462 0
DWIDTH 9 0
BBX 10 16 1 0
BITMAP
06C0
07C0
0380
0000
1FC0
1FC0
3800
3000
3000
3F00
7F00
6000
6000
6000
FF00
FF00
ENDCHAR
STARTCHAR 0115
ENCODING 277
SWIDTH 462 0
DWIDTH 9 0
BBX 10 13 1 0
BITMAP
0CC0
0780
0300
0000
1F80
3F80
7180
6380
7F00
FC00
6000
7F00
3F00
ENDCHAR
STARTCHAR 0116
ENCODING 278
SWIDTH 462 0
DWIDTH 9 0
BBX 10 16 1 0
BITMAP
0300
0380
0300
0000
1FC0
1FC0
3800
3000
3000
3F00
7F00
6000
6000
6000
FF00
FF00
ENDCHAR
STARTCHAR 0117
ENCODING 279
SWIDTH 462 0
DWIDTH 9 0
BBX 9 13 1 0
BITMAP
0300
0700
0200
0000
1F80
3F80
7180
6380
7F00
FC00
6000
7F00
3F00
ENDCHAR
STARTCHAR 0118
ENCODING 280
SWIDTH 462 0
DWIDTH 9 0
BBX 10 15 1 -3
BITMAP
1FC0
1FC0
3800
3000
3000
3F00
7F00
6000
6000
6000
FF00
FF00
0600
0C00
0E00
ENDCHAR
STARTCHAR 0119
ENCODING 281
SWIDTH 462 0
DWIDTH 9 0
BBX 9 12 1 -3
BITMAP
1F80
3F80
7180
6380
7F00
FC00
6000
7F00
3F00
0C00
1C00
1E00
ENDCHAR
STARTCHAR 011A
ENCODING 282
SWIDTH 462 0
DWIDTH 9 0
BBX 10 16 1 0
BITMAP
06C0
0780
0300
0000
1FC0
1FC0
3800
3000
3000
3F00
7F00
6000
6000
6000
FF00
FF00
ENDCHAR
STARTCHAR 011B
ENCODING 283
SWIDTH 462 0
DWIDTH 9 0
BBX 9 13 1 0
BITMAP
0D80
0700
0200
0000
1F80
3F80
7180
6380
7F00
FC00
6000
7F00
3F00
ENDCHAR
STARTCHAR 011C
ENCODING 284
SWIDTH 462 0
DWIDTH 9 0
BBX 9 16 2 0
BITMAP
0200
0700
0D80
0000
1F80
3F80
7000
6000
E000
C000
C700
C700
C600
C600
FE00
7E00
ENDCHAR
STARTCHAR 011D
ENCODING 285
SWIDTH 462 0
DWIDTH 9 0
BBX 10 16 0 -3
BITMAP
0180
03C0
0240
0000
0FC0
1FC0
39C0
31C0
3180
7180
3F80
3F80
0300
0700
FE00
FC00
ENDCHAR
STARTCHAR 011E
ENCODING 286
SWIDTH 462 0
DWIDTH 9 0
BBX 9 16 2 0
BITMAP
0D80
0F80
0700
0000
1F80
3F80
7000
6000
E000
C000
C700
C700
C600
C600
FE00
7E00
ENDCHAR
STARTCHAR 011F
ENCODING 287
SWIDTH 462 0
DWIDTH 9 0
BBX 11 16 0 -3
BITMAP
0660
03C0
0180
0000
0FC0
1FC0
39C0
31C0
3180
7180
3F80
3F80
0300
0700
FE00
FC00
ENDCHAR
STARTCHAR 0120
ENCODING 288
SWIDTH 462 0
DWIDTH 9 0
BBX 9 16 2 0
BITMAP
0200
0700
0600
0000
1F80
3F80
7000
6000
E000
C000
C700
C700
C600
C600
FE00
7E00
ENDCHAR
STARTCHAR 0121
ENCODING 289
SWIDTH 462 0
DWIDTH 9 0
BBX 10 16 0 -3
BITMAP
0180
0380
0100
0000
0FC0
1FC0
39C0
31C0
3180
7180
3F80
3F80
0300
0700
FE00
FC00
ENDCHAR
STARTCHAR 0122
ENCODING 290
SWIDTH 462 0
DWIDTH 9 0
BBX 9 15 2 -3
BITMAP
1F80
3F80
7000
6000
E000
C000
C700
C700
C600
C600
FE00
7E00
0000
3000
E000
ENDCHAR
STARTCHAR 0123
ENCODING 291
SWIDTH 462 0
DWIDTH 9 0
BBX 10 17 0 -3
BITMAP
0080
01C0
0180
0300
0000
0FC0
1FC0
39C0
31C0
3180
7180
3F80
3F80
0300
0700
FE00
FC00
ENDCHAR
STARTCHAR 0124
ENCODING 292
SWIDTH 462 0
DWIDTH 9 0
BBX 10 16 1 0
BITMAP
0300
0780
0D80
0000
38C0
30C0
31C0
31C0
7180
7F80
7F80
6380
E300
C300
C700
C700
ENDCHAR
STARTCHAR 0125
ENCODING 293
SWIDTH 462 0
DWIDTH 9 0
BBX 9 16 1 0
BITMAP
0600
0F00
0900
0800
1800
3800
3800
3F00
3F80
7380
7380
6300
6300
E700
E700
C600
ENDCHAR
STARTCHAR 0126
ENCODING 294
SWIDTH 462 0
DWIDTH 9 0
BBX 11 12 1 0
BITMAP
19C0
3FE0
7FC0
3180
3380
3F80
7F00
7300
6700
6700
E600
E600
ENDCHAR
STARTCHAR 0127
ENCODING 295
SWIDTH 462 0
DWIDTH 9 0
BBX 9 13 1 0
BITMAP
1800
3F00
3E00
3800
3F00
3F80
3380
7380
7300
6300
6700
E700
E600
ENDCHAR
STARTCHAR 0128
ENCODING 296
SWIDTH 462 0
DWIDTH 9 0
BBX 10 16 1 0
BITMAP
0600
0FC0
0980
0000
3FC0
3FC0
0600
0E00
0E00
0C00
0C00
1C00
1C00
1800
FF00
FE00
ENDCHAR
STARTCHAR 0129
ENCODING 297
SWIDTH 462 0
DWIDTH 9 0
BBX 8 13 2 0
BITMAP
3B
3E
00
00
F8
F8
18
38
30
30
30
3E
3E
ENDCHAR
STARTCHAR 012A
ENCODING 298
SWIDTH 462 0
DWIDTH 9 0
BBX 10 15 1 0
BITMAP
0FC0
0000
0000
3FC0
3FC0
0600
0E00
0E00
0C00
0C00
1C00
1C00
1800
FF00
FE00
ENDCHAR
STARTCHAR 012B
ENCODING 299
SWIDTH 462 0
DWIDTH 9 0
BBX 8 13 2 0
BITMAP
3F
3F
00
00
F8
F8
18
38
30
30
30
3E
3E
ENDCHAR
STARTCHAR 012C
ENCODING 300
SWIDTH 462 0
DWIDTH 9 0
BBX 10 16 1 0
BITMAP
0CC0
0780
0700
0000
3FC0
3FC0
0600
0E00
0E00
0C00
0C00
1C00
1C00
1800
FF00
FE00
ENDCHAR
STARTCHAR 012D
ENCODING 301
SWIDTH 462 0
DWIDTH 9 0
BBX 8 13 2 0
BITMAP
33
1E
0C
00
F8
F8
18
38
30
30
30
3E
3E
ENDCHAR
STARTCHAR 012E
ENCODING 302
SWIDTH 462 0
DWIDTH 9 0
BBX 10 15 1 -3
BITMAP
3FC0
3FC0
0600
0E00
0E00
0C00
0C00
1C00
1C00
1800
FF00
FE00
3000
6000
7000
ENDCHAR
STARTCHAR 012F
ENCODING 303
SWIDTH 462 0
DWIDTH 9 0
BBX 7 16 2 -3
BITMAP
1C
1C
08
00
F8
F8
18
38
30
30
30
3E
3E
0C
18
1C
ENDCHAR
STARTCHAR 0130
ENCODING 304
SWIDTH 462 0
DWIDTH 9 0
BBX 10 16 1 0
BITMAP
0300
0700
0300
0000
3FC0
3FC0
0600
0E00
0E00
0C00
0C00
1C00
1C00
1800
FF00
FE00
ENDCHAR
STARTCHAR 0131
ENCODING 305
SWIDTH 462 0
DWIDTH 9 0
BBX 7 9 2 0
BITMAP
F8
F8
18
38
30
30
30
3E
3E
ENDCHAR
STARTCHAR 0132
ENCODING 306
SWIDTH 462 0
DWIDTH 9 0
BBX 12 12 0 0
BITMAP
1870
1860
1860
3860
30E0
30C0
30C0
70C0
61C0
6180
6F80
EF00
ENDCHAR
STARTCHAR 0133
ENCODING 307
SWIDTH 462 0
DWIDTH 9 0
BBX 10 16 1 -3
BITMAP
1DC0
1DC0
1880
0000
3980
3B80
3380
3300
7300
7700
6700
6600
E600
0E00
3C00
3C00
ENDCHAR
STARTCHAR 0134
ENCODING 308
SWIDTH 462 0
DWIDTH 9 0
BBX 10 16 1 0
BITMAP
0100
0380
06C0
0000
1FC0
1F80
0180
0180
0380
0380
0300
0300
0700
0600
FE00
FC00
ENDCHAR
STARTCHAR 0135
ENCODING 309
SWIDTH 462 0
DWIDTH 9 0
BBX 9 16 0 -3
BITMAP
0300
0780
0480
0000
1F80
1F80
0380
0300
0300
0700
0700
0600
0600
0E00
FC00
FC00
ENDCHAR
STARTCHAR 0136
ENCODING 310
SWIDTH 462 0
DWIDTH 9 0
BBX 10 15 1 -3
BITMAP
38C0
39C0
3380
3700
7E00
7C00
7C00
6E00
E600
E700
C700
C300
0000
3000
7000
ENDCHAR
STARTCHAR 0137
ENCODING 311
SWIDTH 462 0
DWIDTH 9 0
BBX 10 16 1 -3
BITMAP
1800
1800
1800
3800
31C0
3380
3600
7C00
7C00
6E00
6600
E700
E700
0000
1800
7000
ENDCHAR
STARTCHAR 0138
ENCODING 312
SWIDTH 462 0
DWIDTH 9 0
BBX 10 9 1 0
BITMAP
31C0
3380
3600
7C00
7C00
6E00
6600
E700
E700
ENDCHAR
STARTCHAR 0139
ENCODING 313
SWIDTH 462 0
DWIDTH 9 0
BBX 8 16 1 0
BITMAP
04
0E
1C
00
18
38
38
30
30
70
70
60
60
E0
FF
FE
ENDCHAR
STARTCHAR 013A
ENCODING 314
SWIDTH 462 0
DWIDTH 9 0
BBX 6 16 3 0
BITMAP
04
1C
30
F8
F8
38
30
30
70
70
60
60
E0
E0
FC
7C
ENDCHAR
STARTCHAR 013B
ENCODING 315
SWIDTH 462 0
DWIDTH 9 0
BBX 8 15 1 -3
BITMAP
18
38
38
30
30
70
70
60
60
E0
FF
FE
00
18
70
ENDCHAR
STARTCHAR 013C
ENCODING 316
SWIDTH 462 0
DWIDTH 9 0
BBX 6 16 3 -3
BITMAP
F8
F8
38
30
30
70
70
60
60
E0
E0
FC
7C
00
30
E0
ENDCHAR
STARTCHAR 013D
ENCODING 317
SWIDTH 462 0
DWIDTH 9 0
BBX 9 12 1 0
BITMAP
1980
3B00
3B00
3300
3000
7000
7000
6000
6000
E000
FF00
FE00
ENDCHAR
STARTCHAR 013E
ENCODING 318
SWIDTH 462 0
DWIDTH 9 0
BBX 9 13 3 0
BITMAP
F980
FB00
3B00
3200
3000
7000
7000
6000
6000
E000
E000
FC00
7C00
ENDCHAR
STARTCHAR 013F
ENCODING 319
SWIDTH 462 0
DWIDTH 9 0
BBX 9 12 1 0
BITMAP
1800
3800
3800
3000
3100
7380
7300
6000
6000
E000
FF00
FE00
ENDCHAR
STARTCHAR 0140
ENCODING 320
SWIDTH 462 0
DWIDTH 9 0
BBX 9 13 3 0
BITMAP
F800
F800
3800
3000
3000
7100
7380
6300
6000
E000
E000
FC00
7C00
ENDCHAR
STARTCHAR 0141
ENCODING 321
SWIDTH 462 0
DWIDTH 9 0
BBX 8 12 1 0
BITMAP
1C
18
18
1A
3E
7C
F0
B0
70
70
7F
7E
ENDCHAR
STARTCHAR 0142
ENCODING 322
SWIDTH 462 0
DWIDTH 9 0
BBX 6 13 3 0
BITMAP
F8
F8
38
34
3C
78
F0
60
60
E0
E0
FC
7C
ENDCHAR
STARTCHAR 0143
ENCODING 323
SWIDTH 462 0
DWIDTH 9 0
BBX 10 16 1 0
BITMAP
0180
0380
0700
0000
38C0
38C0
38C0
39C0
6D80
6D80
6D80
6780
C700
C700
C700
C700
ENDCHAR
STARTCHAR 0144
ENCODING 324
SWIDTH 462 0
DWIDTH 9 0
BBX 9 13 1 0
BITMAP
0300
0700
0600
0000
3F00
3F80
7380
7380
6300
6300
E700
E700
C600
ENDCHAR
STARTCHAR 0145
ENCODING 325
SWIDTH 462 0
DWIDTH 9 0
BBX 10 15 1 -3
BITMAP
38C0
38C0
38C0
39C0
6D80
6D80
6D80
6780
C700
C700
C700
C700
0000
3000
7000
ENDCHAR
STARTCHAR 0146
ENCODING 326
SWIDTH 462 0
DWIDTH 9 0
BBX 9 12 1 -3
BITMAP
3F00
3F80
7380
7380
6300
6300
E700
E700
C600
0000
3000
7000
ENDCHAR
STARTCHAR 0147
ENCODING 327
SWIDTH 462 0
DWIDTH 9 0
BBX 10 16 1 0
BITMAP
0480
0780
0300
0000
38C0
38C0
38C0
39C0
6D80
6D80
6D80
6780
C700
C700
C700
C700
ENDCHAR
STARTCHAR 0148
ENCODING 328
SWIDTH 462 0
DWIDTH 9 0
BBX 9 13 1 0
BITMAP
0D80
0700
0600
0000
3F00
3F80
7380
7380
6300
6300
E700
E700
C600
ENDCHAR
STARTCHAR 0149
ENCODING 329
SWIDTH 462 0
DWIDTH 9 0
BBX 9 13 1 0
BITMAP
3000
3000
6000
0000
3F00
3F80
3380
7380
7380
6300
6300
E700
E700
ENDCHAR
STARTCHAR 014A
ENCODING 330
SWIDTH 462 0
DWIDTH 9 0
BBX 10 15 1 -3
BITMAP
38C0
38C0
38C0
39C0
6D80
6D80
6D80
6780
C700
C700
C700
C700
0600
1E00
3C00
ENDCHAR
STARTCHAR 014B
ENCODING 331
SWIDTH 462 0
DWIDTH 9 0
BBX 9 12 1 -3
BITMAP
3F00
3F80
7380
7380
6300
6300
E700
E700
C600
0600
1E00
3C00
ENDCHAR
STARTCHAR 014C
ENCODING 332
SWIDTH 462 0
DWIDTH 9 0
BBX 10 15 1 0
BITMAP
0FC0
0000
0000
0F00
3F80
3180
7180
6180
6180
E180
E380
E300
E700
7E00
7C00
ENDCHAR
STARTCHAR 014D
ENCODING 333
SWIDTH 462 0
DWIDTH 9 0
BBX 9 13 1 0
BITMAP
0F80
1F80
0000
0000
1F00
3F80
7380
6380
E380
E300
E700
7E00
7C00
ENDCHAR
STARTCHAR 014E
ENCODING 334
SWIDTH 462 0
DWIDTH 9 0
BBX 10 16 1 0
BITMAP
04C0
07C0
0380
0000
0F00
3F80
3180
7180
6180
6180
E180
E380
E300
E700
7E00
7C00
ENDCHAR
STARTCHAR 014F
ENCODING 335
SWIDTH 462 0
DWIDTH 9 0
BBX 9 13 1 0
BITMAP
0D80
0F80
0600
0000
1F00
3F80
7380
6380
E380
E300
E700
7E00
7C00
ENDCHAR
STARTCHAR 0150
ENCODING 336
SWIDTH 462 0
DWIDTH 9 0
BBX 11 16 1 0
BITMAP
0260
0EE0
0CC0
0000
0F00
3F80
3180
7180
6180
6180
E180
E380
E300
E700
7E00
7C00
ENDCHAR
STARTCHAR 0151
ENCODING 337
SWIDTH 462 0
DWIDTH 9 0
BBX 10 13 1 0
BITMAP
0CC0
1DC0
1100
0000
1F00
3F80
7380
6380
E380
E300
E700
7E00
7C00
ENDCHAR
STARTCHAR 0152
ENCODING 338
SWIDTH 462 0
DWIDTH 9 0
BBX 11 12 1 0
BITMAP
1FE0
3FC0
3300
7300
6700
E780
C780
C600
CE00
CC00
FF80
7F00
ENDCHAR
STARTCHAR 0153
ENCODING 339
SWIDTH 462 0
DWIDTH 9 0
BBX 10 9 1 0
BITMAP
3FC0
7EC0
CCC0
CD80
CF80
CE00
DC00
FF00
F780
ENDCHAR
STARTCHAR 0154
ENCODING 340
SWIDTH 462 0
DWIDTH 9 0
BBX 9 16 1 0
BITMAP
0100
0380
0600
0000
3F00
3F80
3180
3180
7180
7780
7F00
7E00
E600
E600
C700
C300
ENDCHAR
STARTCHAR 0155
ENCODING 341
SWIDTH 462 0
DWIDTH 9 0
BBX 9 13 1 0
BITMAP
0100
0780
0600
0000
3F80
3F80
3000
3000
7000
7000
6000
6000
E000
ENDCHAR
STARTCHAR 0156
ENCODING 342
SWIDTH 462 0
DWIDTH 9 0
BBX 9 15 1 -3
BITMAP
3F00
3F80
3180
3180
7180
7780
7F00
7E00
E600
E600
C700
C300
0000
3000
7000
ENDCHAR
STARTCHAR 0157
ENCODING 343
SWIDTH 462 0
DWIDTH 9 0
BBX 11 12 -1 -3
BITMAP
0FE0
0FE0
0C00
0C00
1C00
1C00
1800
1800
3800
0000
3000
F000
ENDCHAR
STARTCHAR 0158
ENCODING 344
SWIDTH 462 0
DWIDTH 9 0
BBX 9 16 1 0
BITMAP
0D80
0F00
0600
0000
3F00
3F80
3180
3180
7180
7780
7F00
7E00
E600
E600
C700
C300
ENDCHAR
STARTCHAR 0159
ENCODING 345
SWIDTH 462 0
DWIDTH 9 0
BBX 10 13 1 0
BITMAP
0DC0
0780
0200
0000
3F80
3F80
3000
3000
7000
7000
6000
6000
E000
ENDCHAR
STARTCHAR 015A
ENCODING 346
SWIDTH 462 0
DWIDTH 9 0
BBX 9 16 1 0
BITMAP
0100
0380
0600
0000
1F80
3F80
3000
3000
3800
3E00
0F00
0700
0300
0300
FF00
FE00
ENDCHAR
STARTCHAR 015B
ENCODING 347
SWIDTH 462 0
DWIDTH 9 0
BBX 9 13 1 0
BITMAP
0300
0700
0600
0000
1F80
3F00
3000
3800
3E00
0700
0700
FE00
FE00
ENDCHAR
STARTCHAR 015C
ENCODING 348
SWIDTH 462 0
DWIDTH 9 0
BBX 9 16 1 0
BITMAP
0300
0780
0D80
0000
1F80
3F80
3000
3000
3800
3E00
0F00
0700
0300
0300
FF00
FE00
ENDCHAR
STARTCHAR 015D
ENCODING 349
SWIDTH 462 0
DWIDTH 9 0
BBX 9 13 1 0
BITMAP
0300
0F00
0980
0000
1F80
3F00
3000
3800
3E00
0700
0700
FE00
FE00
ENDCHAR
STARTCHAR 015E
ENCODING 350
SWIDTH 462 0
DWIDTH 9 0
BBX 9 15 1 -3
BITMAP
1F80
3F80
3000
3000
3800
3E00
0F00
0700
0300
0300
FF00
FE00
3000
1800
7000
ENDCHAR
STARTCHAR 015F
ENCODING 351
SWIDTH 462 0
DWIDTH 9 0
BBX 9 12 1 -3
BITMAP
1F80
3F00
3000
3800
3E00
0700
0700
FE00
FE00
3000
1800
7800
ENDCHAR
STARTCHAR 0160
ENCODING 352
SWIDTH 462 0
DWIDTH 9 0
BBX 9 16 1 0
BITMAP
0480
0780
0300
0000
1F80
3F80
3000
3000
3800
3E00
0F00
0700
0300
0300
FF00
FE00
ENDCHAR
STARTCHAR 0161
ENCODING 353
SWIDTH 462 0
DWIDTH 9 0
BBX 9 13 1 0
BITMAP
0D80
0700
0200
0000
1F80
3F00
3000
3800
3E00
0700
0700
FE00
FE00
ENDCHAR
STARTCHAR 0162
ENCODING 354
SWIDTH 462 0
DWIDTH 9 0
BBX 10 15 2 -3
BITMAP
7FC0
7F80
0C00
1C00
1800
1800
1800
3800
3000
3000
3000
7000
6000
3000
F000
ENDCHAR
STARTCHAR 0163
ENCODING 355
SWIDTH 462 0
DWIDTH 9 0
BBX 8 15 2 -3
BITMAP
18
38
38
FF
FF
30
70
60
60
60
7E
7E
10
18
78
ENDCHAR
STARTCHAR 0164
ENCODING 356
SWIDTH 462 0
DWIDTH 9 0
BBX 9 16 3 0
BITMAP
1200
1E00
0C00
0000
FF80
FF00
1800
3800
3000
3000
3000
7000
6000
6000
6000
E000
ENDCHAR
STARTCHAR 0165
ENCODING 357
SWIDTH 462 0
DWIDTH 9 0
BBX 9 13 2 0
BITMAP
0180
1900
1B00
1800
FF00
FF00
3000
3000
7000
6000
6000
7E00
3E00
ENDCHAR
STARTCHAR 0166
ENCODING 358
SWIDTH 462 0
DWIDTH 9 0
BBX 9 12 3 0
BITMAP
FF80
FF00
1800
3800
3000
FC00
FC00
7000
6000
6000
6000
E000
ENDCHAR
STARTCHAR 0167
ENCODING 359
SWIDTH 462 0
DWIDTH 9 0
BBX 9 12 1 0
BITMAP
0C00
0C00
0C00
7F80
7F80
1800
7F80
FF00
3000
3000
3F00
1F00
ENDCHAR
STARTCHAR 0168
ENCODING 360
SWIDTH 462 0
DWIDTH 9 0
BBX 10 16 1 0
BITMAP
0600
0FC0
0980
0000
38C0
31C0
31C0
7180
7180
6180
6380
6300
E300
E700
7E00
7C00
ENDCHAR
STARTCHAR 0169
ENCODING 361
SWIDTH 462 0
DWIDTH 9 0
BBX 9 13 1 0
BITMAP
0E80
1F80
0000
0000
3180
7380
7380
6300
6300
6700
E700
7F00
7B00
ENDCHAR
STARTCHAR 016A
ENCODING 362
SWIDTH 462 0
DWIDTH 9 0
BBX 10 15 1 0
BITMAP
0FC0
0000
0000
38C0
31C0
31C0
7180
7180
6180
6380
6300
E300
E700
7E00
7C00
ENDCHAR
STARTCHAR 016B
ENCODING 363
SWIDTH 462 0
DWIDTH 9 0
BBX 9 13 1 0
BITMAP
0F80
1F80
0000
0000
3180
7380
7380
6300
6300
6700
E700
7F00
7B00
ENDCHAR
STARTCHAR 016C
ENCODING 364
SWIDTH 462 0
DWIDTH 9 0
BBX 10 16 1 0
BITMAP
0CC0
0780
0700
0000
38C0
31C0
31C0
7180
7180
6180
6380
6300
E300
E700
7E00
7C00
ENDCHAR
STARTCHAR 016D
ENCODING 365
SWIDTH 462 0
DWIDTH 9 0
BBX 9 13 1 0
BITMAP
0980
0F00
0600
0000
3180
7380
7380
6300
6300
6700
E700
7F00
7B00
ENDCHAR
STARTCHAR 016E
ENCODING 366
SWIDTH 462 0
DWIDTH 9 0
BBX 10 16 1 0
BITMAP
0700
0D00
0D00
0700
38C0
31C0
31C0
7180
7180
6180
6380
6300
E300
E700
7E00
7C00
ENDCHAR
STARTCHAR 016F
ENCODING 367
SWIDTH 462 0
DWIDTH 9 0
BBX 9 14 1 0
BITMAP
0700
0D00
0D00
0700
0000
3180
7380
7380
6300
6300
6700
E700
7F00
7B00
ENDCHAR
STARTCHAR 0170
ENCODING 368
SWIDTH 462 0
DWIDTH 9 0
BBX 11 16 1 0
BITMAP
0440
0EE0
1980
0000
38C0
31C0
31C0
7180
7180
6180
6380
6300
E300
E700
7E00
7C00
ENDCHAR
STARTCHAR 0171
ENCODING 369
SWIDTH 462 0
DWIDTH 9 0
BBX 10 13 1 0
BITMAP
0CC0
1DC0
1100
0000
3180
7380
7380
6300
6300
6700
E700
7F00
7B00
ENDCHAR
STARTCHAR 0172
ENCODING 370
SWIDTH 462 0
DWIDTH 9 0
BBX 10 15 1 -3
BITMAP
38C0
31C0
31C0
7180
7180
6180
6380
6300
E300
E700
7E00
7C00
1800
3000
3800
ENDCHAR
STARTCHAR 0173
ENCODING 371
SWIDTH 462 0
DWIDTH 9 0
BBX 9 12 1 -3
BITMAP
3180
7380
7380
6300
6300
6700
E700
7F00
7B00
0600
0C00
0E00
ENDCHAR
STARTCHAR 0174
ENCODING 372
SWIDTH 462 0
DWIDTH 9 0
BBX 11 16 1 0
BITMAP
0300
0780
0D80
0000
3060
30C0
70C0
60C0
6CC0
6D80
7D80
D580
F500
E700
E700
C700
ENDCHAR
STARTCHAR 0175
ENCODING 373
SWIDTH 462 0
DWIDTH 9 0
BBX 10 13 1 0
BITMAP
0600
0F00
0900
0000
60C0
60C0
6D80
4D80
DD80
D500
F700
E600
C600
ENDCHAR
STARTCHAR 0176
ENCODING 374
SWIDTH 462 0
DWIDTH 9 0
BBX 9 16 3 0
BITMAP
0400
1E00
3300
0000
C380
C300
C600
EE00
6C00
7800
7800
7000
7000
6000
6000
E000
ENDCHAR
STARTCHAR 0177
ENCODING 375
SWIDTH 462 0
DWIDTH 9 0
BBX 11 16 -1 -3
BITMAP
0180
03C0
0240
0000
1C60
1C60
1CE0
0CC0
0DC0
0D80
0F80
0F00
0E00
0E00
7C00
F000
ENDCHAR
STARTCHAR 0178
ENCODING 376
SWIDTH 462 0
DWIDTH 9 0
BBX 9 16 3 0
BITMAP
3300
3700
3200
0000
C380
C300
C600
EE00
6C00
7800
7800
7000
7000
6000
6000
E000
ENDCHAR
STARTCHAR 0179
ENCODING 377
SWIDTH 462 0
DWIDTH 9 0
BBX 10 16 1 0
BITMAP
0180
0380
0700
0000
3FC0
3FC0
0380
0300
0600
0C00
1C00
3800
7000
6000
FF00
FF00
ENDCHAR
STARTCHAR 017A
ENCODING 378
SWIDTH 462 0
DWIDTH 9 0
BBX 9 13 1 0
BITMAP
0300
0700
0600
0000
3F80
3F80
0700
0E00
1C00
3800
7000
FF00
FE00
ENDCHAR
STARTCHAR 017B
ENCODING 379
SWIDTH 462 0
DWIDTH 9 0
BBX 10 16 1 0
BITMAP
0300
0700
0300
0000
3FC0
3FC0
0380
0300
0600
0C00
1C00
3800
7000
6000
FF00
FF00
ENDCHAR
STARTCHAR 017C
ENCODING 380
SWIDTH 462 0
DWIDTH 9 0
BBX 9 13 1 0
BITMAP
0700
0700
0200
0000
3F80
3F80
0700
0E00
1C00
3800
7000
FF00
FE00
ENDCHAR
STARTCHAR 017D
ENCODING 381
SWIDTH 462 0
DWIDTH 9 0
BBX 10 16 1 0
BITMAP
0C80
0780
0200
0000
3FC0
3FC0
0380
0300
0600
0C00
1C00
3800
7000
6000
FF00
FF00
ENDCHAR
STARTCHAR 017E
ENCODING 382
SWIDTH 462 0
DWIDTH 9 0
BBX 9 13 1 0
BITMAP
0D80
0700
0600
0000
3F80
3F80
0700
0E00
1C00
3800
7000
FF00
FE00
ENDCHAR
STARTCHAR 017F
ENCODING 383
SWIDTH 462 0
DWIDTH 9 0
BBX 13 16 -1 -3
BITMAP
01F8
03F0
0300
0300
0300
0700
0700
0600
0600
0600
0E00
0E00
0C00
0C00
7C00
F800
ENDCHAR
STARTCHAR 0180
ENCODING 384
SWIDTH 462 0
DWIDTH 9 0
BBX 9 13 1 0
BITMAP
1800
3F00
7E00
3800
3F00
3F80
3380
7180
6380
6380
6700
FE00
FC00
ENDCHAR
STARTCHAR 0181
ENCODING 385
SWIDTH 462 0
DWIDTH 9 0
BBX 9 12 2 0
BITMAP
7F00
FF00
D980
9980
3300
3E00
3F00
3300
6300
6700
7E00
7C00
ENDCHAR
STARTCHAR 0182
ENCODING 386
SWIDTH 462 0
DWIDTH 9 0
BBX 9 12 1 0
BITMAP
3F80
3F80
3000
3000
7E00
7F00
6380
6380
E380
E700
FF00
FC00
ENDCHAR
STARTCHAR 0183
ENCODING 387
SWIDTH 462 0
DWIDTH 9 0
BBX 9 13 1 0
BITMAP
1F80
3F80
3800
3000
3F00
3F80
7380
6380
6380
6300
E700
FE00
FC00
ENDCHAR
STARTCHAR 0184
ENCODING 388
SWIDTH 462 0
DWIDTH 9 0
BBX 9 13 1 0
BITMAP
1800
3800
3800
3800
3F00
3F80
7380
7180
6380
6380
E700
FE00
FC00
ENDCHAR
STARTCHAR 0185
ENCODING 389
SWIDTH 462 0
DWIDTH 9 0
BBX 9 12 1 0
BITMAP
1800
7800
3800
3800
3E00
3F00
3380
7380
6380
6300
7F00
FC00
ENDCHAR
STARTCHAR 0186
ENCODING 390
SWIDTH 462 0
DWIDTH 9 0
BBX 9 12 1 0
BITMAP
3E00
3F00
0380
0380
0180
0380
0380
0380
0300
0700
FE00
FC00
ENDCHAR
STARTCHAR 0187
ENCODING 391
SWIDTH 462 0
DWIDTH 9 0
BBX 10 14 2 0
BITMAP
00C0
01C0
1F80
3F00
7000
E000
E000
C000
C000
C000
C000
C000
FC00
7C00
ENDCHAR
STARTCHAR 0188
ENCODING 392
SWIDTH 462 0
DWIDTH 9 0
BBX 11 11 1 0
BITMAP
00E0
01C0
1F00
3F00
7000
6000
E000
E000
6000
7E00
3E00
ENDCHAR
STARTCHAR 0189
ENCODING 393
SWIDTH 462 0
DWIDTH 9 0
BBX 9 12 1 0
BITMAP
1F00
3F80
3980
3180
3180
F980
F980
6380
6300
6700
FE00
FC00
ENDCHAR
STARTCHAR 018A
ENCODING 394
SWIDTH 462 0
DWIDTH 9 0
BBX 9 12 2 0
BITMAP
7E00
FF00
DB80
9980
3180
3380
3300
3300
6300
6600
7E00
7800
ENDCHAR
STARTCHAR 018B
ENCODING 395
SWIDTH 462 0
DWIDTH 9 0
BBX 10 12 1 0
BITMAP
1FC0
1FC0
01C0
0180
0F80
3F80
7380
E300
E300
E300
7F00
3E00
ENDCHAR
STARTCHAR 018C
ENCODING 396
SWIDTH 462 0
DWIDTH 9 0
BBX 10 13 1 0
BITMAP
1FC0
1FC0
01C0
0180
1F80
3F80
7380
6300
E300
E300
E700
7F00
7B00
ENDCHAR
STARTCHAR 018D
ENCODING 397
SWIDTH 462 0
DWIDTH 9 0
BBX 9 12 1 -3
BITMAP
1F00
3F80
7180
6180
6380
6300
7E00
3C00
1C00
0C00
FC00
F800
ENDCHAR
STARTCHAR 018E
ENCODING 398
SWIDTH 462 0
DWIDTH 9 0
BBX 10 12 1 0
BITMAP
1FC0
3FC0
0180
0180
0180
3F80
3F00
0300
0300
0700
FE00
FE00
ENDCHAR
STARTCHAR 018F
ENCODING 399
SWIDTH 462 0
DWIDTH 9 0
BBX 9 12 1 0
BITMAP
3F00
3F80
0180
0180
0180
7F80
FF80
C180
C380
E300
7E00
7C00
ENDCHAR
STARTCHAR 0190
ENCODING 400
SWIDTH 462 0
DWIDTH 9 0
BBX 10 12 1 0
BITMAP
0FC0
1FC0
3800
3000
3800
1F00
3F00
6000
E000
E000
7F00
3F00
ENDCHAR
STARTCHAR 0191
ENCODING 401
SWIDTH 462 0
DWIDTH 9 0
BBX 12 15 -1 -3
BITMAP
07F0
07F0
0E00
0E00
0C00
0FC0
1FC0
1C00
1800
1800
3800
3800
3000
F000
E000
ENDCHAR
STARTCHAR 0192
ENCODING 402
SWIDTH 462 0
DWIDTH 9 0
BBX 12 16 -1 -3
BITMAP
01F0
03F0
0300
0300
0FE0
1FE0
0700
0600
0600
0600
0E00
0E00
0C00
0C00
7C00
F800
ENDCHAR
STARTCHAR 0193
ENCODING 403
SWIDTH 462 0
DWIDTH 9 0
BBX 10 14 2 0
BITMAP
00C0
01C0
1F80
3F00
7000
E000
C000
C000
C700
C700
C600
C600
FE00
7E00
ENDCHAR
STARTCHAR 0194
ENCODING 404
SWIDTH 462 0
DWIDTH 9 0
BBX 10 15 2 -3
BITMAP
60C0
6180
6380
6300
3600
3E00
3C00
3800
3800
7800
7800
D800
D800
F800
F000
ENDCHAR
STARTCHAR 0195
ENCODING 405
SWIDTH 462 0
DWIDTH 9 0
BBX 11 13 0 0
BITMAP
1800
1800
1800
1000
3E60
3660
3640
26C0
66C0
64C0
6C80
6F80
C780
ENDCHAR
STARTCHAR 0196
ENCODING 406
SWIDTH 462 0
DWIDTH 9 0
BBX 8 12 3 0
BITMAP
FF
FE
30
30
30
70
60
60
60
E0
FC
7C
ENDCHAR
STARTCHAR 0197
ENCODING 407
SWIDTH 462 0
DWIDTH 9 0
BBX 10 12 1 0
BITMAP
3FC0
3FC0
0600
0E00
0C00
3F00
3F00
1C00
1C00
1800
FF00
FE00
ENDCHAR
STARTCHAR 0198
ENCODING 408
SWIDTH 462 0
DWIDTH 9 0
BBX 11 12 1 0
BITMAP
38E0
39E0
3300
3600
7E00
7C00
7C00
6E00
E600
E700
C700
C300
ENDCHAR
STARTCHAR 0199
ENCODING 409
SWIDTH 462 0
DWIDTH 9 0
BBX 10 13 1 0
BITMAP
0E00
1C00
1800
3800
31C0
3380
3600
7C00
7C00
6E00
6600
E700
E700
ENDCHAR
STARTCHAR 019A
ENCODING 410
SWIDTH 462 0
DWIDTH 9 0
BBX 8 13 2 0
BITMAP
7C
7C
1C
18
18
FF
FE
38
30
30
30
3E
3E
ENDCHAR
STARTCHAR 019B
ENCODING 411
SWIDTH 462 0
DWIDTH 9 0
BBX 9 13 3 0
BITMAP
1C00
0F80
1F00
1E00
0700
0F00
1F00
1B00
3300
7300
6300
E300
C300
ENDCHAR
STARTCHAR 019C
ENCODING 412
SWIDTH 462 0
DWIDTH 9 0
BBX 11 12 1 0
BITMAP
3060
30C0
60C0
60C0
60C0
6D80
CD80
C980
D980
DB00
FF00
FF00
ENDCHAR
STARTCHAR 019D
ENCODING 413
SWIDTH 462 0
DWIDTH 9 0
BBX 13 15 -2 -3
BITMAP
0718
0718
0718
07B8
0FB0
0DB0
0CB0
0CF0
1CE0
18E0
18E0
18E0
3800
F000
F000
ENDCHAR
STARTCHAR 019E
ENCODING 414
SWIDTH 462 0
DWIDTH 9 0
BBX 9 12 1 -3
BITMAP
3F00
3F80
7380
7380
6300
6300
E700
E700
C600
0600
0E00
0E00
ENDCHAR
STARTCHAR 019F
ENCODING 415
SWIDTH 462 0
DWIDTH 9 0
BBX 10 12 1 0
BITMAP
0F00
3F80
3180
71C0
6180
7F80
FF80
E380
E380
E700
7E00
7C00
ENDCHAR
STARTCHAR 01A0
ENCODING 416
SWIDTH 462 0
DWIDTH 9 0
BBX 11 14 1 0
BITMAP
00E0
00C0
1FC0
3F80
3180
7180
6180
6180
E380
E380
E300
E700
7E00
7C00
ENDCHAR
STARTCHAR 01A1
ENCODING 417
SWIDTH 462 0
DWIDTH 9 0
BBX 10 11 1 0
BITMAP
00C0
00C0
1F80
3F80
7300
6300
E300
E300
E700
7E00
7C00
ENDCHAR
STARTCHAR 01A2
ENCODING 418
SWIDTH 462 0
DWIDTH 9 0
BBX 10 12 1 0
BITMAP
1FC0
3FC0
26C0
66C0
66C0
4580
CD80
CD80
CD80
D900
FB00
F300
ENDCHAR
STARTCHAR 01A3
ENCODING 419
SWIDTH 462 0
DWIDTH 9 0
BBX 9 12 1 -3
BITMAP
3F80
6D80
6C80
CD80
CD80
CD80
C900
FB00
7300
0300
0200
0600
ENDCHAR
STARTCHAR 01A4
ENCODING 420
SWIDTH 462 0
DWIDTH 9 0
BBX 9 12 2 0
BITMAP
7F00
FF80
D980
D980
3980
3300
3F00
3C00
7000
6000
6000
6000
ENDCHAR
STARTCHAR 01A5
ENCODING 421
SWIDTH 462 0
DWIDTH 9 0
BBX 10 16 0 -3
BITMAP
0F00
0F00
1C00
1800
1F80
1FC0
39C0
31C0
31C0
3180
7380
7F00
7E00
6000
E000
E000
ENDCHAR
STARTCHAR 01A6
ENCODING 422
SWIDTH 462 0
DWIDTH 9 0
BBX 9 15 1 -2
BITMAP
1800
3F00
3F80
3180
3180
7180
7780
7F00
7E00
E600
E600
C700
C300
0300
0380
ENDCHAR
STARTCHAR 01A7
ENCODING 423
SWIDTH 462 0
DWIDTH 9 0
BBX 10 12 1 0
BITMAP
1F80
1F80
01C0
01C0
0780
1F00
7C00
7000
E000
E000
FF00
7F00
ENDCHAR
STARTCHAR 01A8
ENCODING 424
SWIDTH 462 0
DWIDTH 9 0
BBX 9 9 1 0
BITMAP
3F00
3F80
0380
0F00
3E00
7000
E000
FE00
7E00
ENDCHAR
STARTCHAR 01A9
ENCODING 425
SWIDTH 462 0
DWIDTH 9 0
BBX 11 12 0 0
BITMAP
1FE0
1FE0
0C00
0E00
0600
0700
0700
0E00
1C00
3000
7F80
FF80
ENDCHAR
STARTCHAR 01AA
ENCODING 426
SWIDTH 462 0
DWIDTH 9 0
BBX 6 17 3 -3
BITMAP
10
7C
CC
CC
FC
FC
18
18
18
38
30
30
30
70
70
7C
38
ENDCHAR
STARTCHAR 01AB
ENCODING 427
SWIDTH 462 0
DWIDTH 9 0
BBX 8 15 2 -3
BITMAP
18
18
18
FF
FF
30
30
70
60
60
7E
3E
06
3C
3C
ENDCHAR
STARTCHAR 01AC
ENCODING 428
SWIDTH 462 0
DWIDTH 9 0
BBX 10 12 2 0
BITMAP
7FC0
FF80
CC00
CC00
1C00
1C00
1800
1800
3800
3800
3000
3000
ENDCHAR
STARTCHAR 01AD
ENCODING 429
SWIDTH 462 0
DWIDTH 9 0
BBX 9 13 2 0
BITMAP
0F80
1F80
1800
1800
FF00
FF00
3000
3000
7000
6000
6000
7E00
3E00
ENDCHAR
STARTCHAR 01AE
ENCODING 430
SWIDTH 462 0
DWIDTH 9 0
BBX 9 15 3 -3
BITMAP
FF80
FF00
1800
3800
3000
3000
3000
7000
6000
6000
6000
E000
E000
F000
7000
ENDCHAR
STARTCHAR 01AF
ENCODING 431
SWIDTH 462 0
DWIDTH 9 0
BBX 12 14 1 0
BITMAP
0030
0030
31E0
3180
3180
7380
6300
6300
6300
6700
E600
E600
FE00
7C00
ENDCHAR
STARTCHAR 01B0
ENCODING 432
SWIDTH 462 0
DWIDTH 9 0
BBX 11 11 1 0
BITMAP
0060
00C0
73C0
6300
6700
6600
E600
C600
E600
FE00
7E00
ENDCHAR
STARTCHAR 01B1
ENCODING 433
SWIDTH 462 0
DWIDTH 9 0
BBX 11 12 1 0
BITMAP
3DE0
7FE0
3980
3180
6180
6180
E180
E180
E380
E300
7F00
7E00
ENDCHAR
STARTCHAR 01B2
ENCODING 434
SWIDTH 462 0
DWIDTH 9 0
BBX 10 12 1 0
BITMAP
3B80
3380
31C0
31C0
71C0
6180
6180
6380
E300
E700
FE00
7C00
ENDCHAR
STARTCHAR 01B3
ENCODING 435
SWIDTH 462 0
DWIDTH 9 0
BBX 9 12 3 0
BITMAP
C380
C780
CE00
CC00
F800
7800
7000
6000
6000
6000
E000
E000
ENDCHAR
STARTCHAR 01B4
ENCODING 436
SWIDTH 462 0
DWIDTH 9 0
BBX 12 12 -1 -3
BITMAP
1C70
1CF0
1CC0
1D80
0D80
0F80
0F00
0F00
0E00
0C00
7C00
F000
ENDCHAR
STARTCHAR 01B5
ENCODING 437
SWIDTH 462 0
DWIDTH 9 0
BBX 10 12 1 0
BITMAP
3FC0
3FC0
0380
0300
0600
7F80
7F80
3800
7000
6000
FF00
FF00
ENDCHAR
STARTCHAR 01B6
ENCODING 438
SWIDTH 462 0
DWIDTH 9 0
BBX 9 9 1 0
BITMAP
3F80
3F80
0700
0E00
7F00
3800
7000
FF00
FE00
ENDCHAR
STARTCHAR 01B7
ENCODING 439
SWIDTH 462 0
DWIDTH 9 0
BBX 10 12 1 0
BITMAP
1FC0
3FC0
0380
0700
0E00
1E00
0700
0300
0300
0300
FF00
FE00
ENDCHAR
STARTCHAR 01B8
ENCODING 440
SWIDTH 462 0
DWIDTH 9 0
BBX 9 12 2 0
BITMAP
3F80
3F80
3800
1800
0C00
3C00
7800
C000
C000
C000
FE00
7E00
ENDCHAR
STARTCHAR 01B9
ENCODING 441
SWIDTH 462 0
DWIDTH 9 0
BBX 9 12 1 -3
BITMAP
3F80
3F80
1800
0C00
0C00
3E00
7800
E000
C000
E000
FE00
7E00
ENDCHAR
STARTCHAR 01BA
ENCODING 442
SWIDTH 462 0
DWIDTH 9 0
BBX 10 12 0 -3
BITMAP
1FC0
1FC0
0300
0600
0E00
0700
0380
0380
3F00
7C00
E000
C000
ENDCHAR
STARTCHAR 01BB
ENCODING 443
SWIDTH 462 0
DWIDTH 9 0
BBX 9 12 1 0
BITMAP
1F80
3F80
0180
0180
0380
3F80
3F80
1800
7000
6000
FF00
FF00
ENDCHAR
STARTCHAR 01BC
ENCODING 444
SWIDTH 462 0
DWIDTH 9 0
BBX 10 12 1 0
BITMAP
3FC0
3FC0
1800
1800
3800
3F00
0700
0380
0380
0300
FF00
FE00
ENDCHAR
STARTCHAR 01BD
ENCODING 445
SWIDTH 462 0
DWIDTH 9 0
BBX 9 9 1 0
BITMAP
3F80
3F80
1800
3C00
3F00
0700
0700
7F00
FE00
ENDCHAR
STARTCHAR 01BE
ENCODING 446
SWIDTH 462 0
DWIDTH 9 0
BBX 8 12 2 0
BITMAP
18
18
18
FF
FF
30
38
3E
0E
06
FE
FC
ENDCHAR
STARTCHAR 01BF
ENCODING 447
SWIDTH 462 0
DWIDTH 9 0
BBX 10 12 0 -3
BITMAP
1F80
3FC0
39C0
39C0
31C0
3380
7380
7F00
7E00
7000
E000
E000
ENDCHAR
STARTCHAR 01C0
ENCODING 448
SWIDTH 462 0
DWIDTH 9 0
BBX 6 17 3 -3
BITMAP
1C
1C
18
18
38
38
30
30
30
70
60
60
60
E0
C0
C0
C0
ENDCHAR
STARTCHAR 01C1
ENCODING 449
SWIDTH 462 0
DWIDTH 9 0
BBX 10 17 1 -3
BITMAP
0DC0
1DC0
1D80
1980
1B80
3B80
3B00
3300
3300
7700
7600
6600
6600
6E00
EC00
CC00
CC00
ENDCHAR
STARTCHAR 01C2
ENCODING 450
SWIDTH 462 0
DWIDTH 9 0
BBX 10 17 1 -3
BITMAP
0300
0700
0600
0600
0600
0E00
7FC0
7F80
0C00
1C00
FF80
1800
1800
3800
3800
3000
3000
ENDCHAR
STARTCHAR 01C3
ENCODING 451
SWIDTH 462 0
DWIDTH 9 0
BBX 6 12 3 0
BITMAP
1C
18
38
38
38
30
30
60
00
60
E0
E0
ENDCHAR
STARTCHAR 01C4
ENCODING 452
SWIDTH 462 0
DWIDTH 9 0
BBX 13 16 0 0
BITMAP
0048
0078
0020
0000
1EF0
1EF0
3620
3260
3640
26C0
6680
6580
6D00
4F00
FBC0
F380
ENDCHAR
STARTCHAR 01C5
ENCODING 453
SWIDTH 462 0
DWIDTH 9 0
BBX 12 13 0 0
BITMAP
0010
1E70
1E00
3600
32E0
36E0
2660
66C0
6480
6D80
4D00
FBC0
F3C0
ENDCHAR
STARTCHAR 01C6
ENCODING 454
SWIDTH 462 0
DWIDTH 9 0
BBX 11 13 1 0
BITMAP
06A0
04E0
0440
0C00
3DC0
7DC0
C8C0
D980
9900
9B00
9200
F780
F780
ENDCHAR
STARTCHAR 01C7
ENCODING 455
SWIDTH 462 0
DWIDTH 9 0
BBX 12 12 0 0
BITMAP
1030
3020
3020
3060
2060
6040
6040
60C0
40C0
40C0
FB80
FF00
ENDCHAR
STARTCHAR 01C8
ENCODING 456
SWIDTH 462 0
DWIDTH 9 0
BBX 12 16 0 -3
BITMAP
0020
1870
1060
1000
3040
30C0
30C0
20C0
6080
6080
6180
7D80
F980
0300
0F00
1E00
ENDCHAR
STARTCHAR 01C9
ENCODING 457
SWIDTH 462 0
DWIDTH 9 0
BBX 10 16 2 -3
BITMAP
30C0
21C0
2180
6000
6180
6100
4300
C300
C300
C200
8600
E600
E600
0400
2C00
3800
ENDCHAR
STARTCHAR 01CA
ENCODING 458
SWIDTH 462 0
DWIDTH 9 0
BBX 12 12 0 0
BITMAP
1330
3220
3620
3660
3660
7440
7440
7CC0
5CC0
5CC0
D980
DB00
ENDCHAR
STARTCHAR 01CB
ENCODING 459
SWIDTH 462 0
DWIDTH 9 0
BBX 12 16 0 -3
BITMAP
0020
1370
1360
3A00
3E40
3E40
2EC0
6CC0
6CC0
6C80
4D80
C980
C980
0100
0F00
1E00
ENDCHAR
STARTCHAR 01CC
ENCODING 460
SWIDTH 462 0
DWIDTH 9 0
BBX 12 16 0 -3
BITMAP
0030
0070
0020
0000
3E60
3660
2240
66C0
66C0
66C0
4480
CD80
CD80
0180
0B00
0E00
ENDCHAR
STARTCHAR 01CD
ENCODING 461
SWIDTH 462 0
DWIDTH 9 0
BBX 10 16 0 0
BITMAP
0240
03C0
0100
0000
0380
0780
0780
0D80
0D80
1980
1980
3F80
3F80
6180
6180
E180
ENDCHAR
STARTCHAR 01CE
ENCODING 462
SWIDTH 462 0
DWIDTH 9 0
BBX 9 13 1 0
BITMAP
0D80
0700
0200
0000
1F80
3F80
7380
6300
E300
E300
E700
7F00
7B00
ENDCHAR
STARTCHAR 01CF
ENCODING 463
SWIDTH 462 0
DWIDTH 9 0
BBX 10 16 1 0
BITMAP
0480
0780
0300
0000
3FC0
3FC0
0600
0E00
0E00
0C00
0C00
1C00
1C00
1800
FF00
FE00
ENDCHAR
STARTCHAR 01D0
ENCODING 464
SWIDTH 462 0
DWIDTH 9 0
BBX 7 13 2 0
BITMAP
36
1C
08
00
F8
F8
18
38
30
30
30
3E
3E
ENDCHAR
STARTCHAR 01D1
ENCODING 465
SWIDTH 462 0
DWIDTH 9 0
BBX 9 16 1 0
BITMAP
0480
0780
0300
0000
0F00
3F80
3180
7180
6180
6180
E180
E380
E300
E700
7E00
7C00
ENDCHAR
STARTCHAR 01D2
ENCODING 466
SWIDTH 462 0
DWIDTH 9 0
BBX 9 13 1 0
BITMAP
0D80
0700
0600
0000
1F00
3F80
7380
6380
E380
E300
E700
7E00
7C00
ENDCHAR
STARTCHAR 01D3
ENCODING 467
SWIDTH 462 0
DWIDTH 9 0
BBX 10 16 1 0
BITMAP
0480
0780
0300
0000
38C0
31C0
31C0
7180
7180
6180
6380
6300
E300
E700
7E00
7C00
ENDCHAR
STARTCHAR 01D4
ENCODING 468
SWIDTH 462 0
DWIDTH 9 0
BBX 9 13 1 0
BITMAP
0D80
0F00
0600
0000
3180
7380
7380
6300
6300
6700
E700
7F00
7B00
ENDCHAR
STARTCHAR 01D5
ENCODING 469
SWIDTH 462 0
DWIDTH 9 0
BBX 10 16 1 0
BITMAP
0780
0000
0D80
0D80
0000
31C0
31C0
7180
7180
6180
6380
6300
E300
E700
7E00
7C00
ENDCHAR
STARTCHAR 01D6
ENCODING 470
SWIDTH 462 0
DWIDTH 9 0
BBX 9 14 1 0
BITMAP
0F80
0000
1980
1900
0000
3180
7380
7380
6300
6300
6700
E700
7F00
7B00
ENDCHAR
STARTCHAR 01D7
ENCODING 471
SWIDTH 462 0
DWIDTH 9 0
BBX 10 16 1 0
BITMAP
0100
0BC0
18C0
0000
38C0
31C0
31C0
7180
7180
6180
6380
6300
E300
E700
7E00
7C00
ENDCHAR
STARTCHAR 01D8
ENCODING 472
SWIDTH 462 0
DWIDTH 9 0
BBX 10 15 1 1
BITMAP
0100
0300
0600
19C0
1880
0000
3180
7380
7380
6300
6300
6700
E700
7F00
7B00
ENDCHAR
STARTCHAR 01D9
ENCODING 473
SWIDTH 462 0
DWIDTH 9 0
BBX 10 16 1 0
BITMAP
0700
0BC0
18C0
0000
38C0
31C0
31C0
7180
7180
6180
6380
6300
E300
E700
7E00
7C00
ENDCHAR
STARTCHAR 01DA
ENCODING 474
SWIDTH 462 0
DWIDTH 9 0
BBX 10 14 1 1
BITMAP
0700
0600
19C0
1880
0000
3180
7380
7380
6300
6300
6700
E700
7F00
7B00
ENDCHAR
STARTCHAR 01DB
ENCODING 475
SWIDTH 462 0
DWIDTH 9 0
BBX 10 16 1 0
BITMAP
0200
0BC0
18C0
0000
38C0
31C0
31C0
7180
7180
6180
6380
6300
E300
E700
7E00
7C00
ENDCHAR
STARTCHAR 01DC
ENCODING 476
SWIDTH 462 0
DWIDTH 9 0
BBX 9 15 1 0
BITMAP
0C00
0400
0600
1980
1180
0000
3180
7380
7380
6300
6300
6700
E700
7F00
7B00
ENDCHAR
STARTCHAR 01DD
ENCODING 477
SWIDTH 462 0
DWIDTH 9 0
BBX 9 9 1 0
BITMAP
7F00
3F00
0380
1F80
7F80
E300
C700
FE00
7C00
ENDCHAR
STARTCHAR 01DE
ENCODING 478
SWIDTH 462 0
DWIDTH 9 0
BBX 10 16 0 0
BITMAP
03C0
0000
06C0
06C0
0000
0780
0780
0D80
0D80
1980
1980
3180
3F80
7F80
6180
E180
ENDCHAR
STARTCHAR 01DF
ENCODING 479
SWIDTH 462 0
DWIDTH 9 0
BBX 9 14 1 0
BITMAP
0780
0000
0D80
0D80
0000
1F80
3F80
7380
6300
E300
E300
E700
7F00
7B00
ENDCHAR
STARTCHAR 01E0
ENCODING 480
SWIDTH 462 0
DWIDTH 9 0
BBX 10 16 0 0
BITMAP
03C0
0000
0380
0100
0000
0780
0780
0D80
0D80
1980
1980
3180
3F80
7F80
6180
E180
ENDCHAR
STARTCHAR 01E1
ENCODING 481
SWIDTH 462 0
DWIDTH 9 0
BBX 9 14 1 0
BITMAP
0780
0000
0700
0200
0000
1F80
3F80
7380
6300
E300
E300
E700
7F00
7B00
ENDCHAR
STARTCHAR 01E2
ENCODING 482
SWIDTH 462 0
DWIDTH 9 0
BBX 12 15 0 0
BITMAP
01F0
0000
0000
03F0
07E0
0780
0D80
0F00
1BC0
3BC0
3F00
7F00
6600
E7C0
C780
ENDCHAR
STARTCHAR 01E3
ENCODING 483
SWIDTH 462 0
DWIDTH 9 0
BBX 10 13 1 0
BITMAP
0F80
1F80
0000
0000
7B80
5EC0
0CC0
3D80
7F00
DE00
9800
FF00
EF00
ENDCHAR
STARTCHAR 01E4
ENCODING 484
SWIDTH 462 0
DWIDTH 9 0
BBX 9 12 2 0
BITMAP
1F80
3F00
7000
E000
E000
C700
C700
CF00
C600
C600
FE00
7C00
ENDCHAR
STARTCHAR 01E5
ENCODING 485
SWIDTH 462 0
DWIDTH 9 0
BBX 11 12 0 -3
BITMAP
0FC0
1FC0
3980
33E0
37C0
7380
3F80
3F00
0300
0700
FE00
FC00
ENDCHAR
STARTCHAR 01E6
ENCODING 486
SWIDTH 462 0
DWIDTH 9 0
BBX 9 16 2 0
BITMAP
0C80
0780
0600
0000
1F80
3F80
7000
6000
E000
C000
C700
C700
C600
C600
FE00
7E00
ENDCHAR
STARTCHAR 01E7
ENCODING 487
SWIDTH 462 0
DWIDTH 9 0
BBX 11 16 0 -3
BITMAP
0360
01C0
0180
0000
0FC0
1FC0
39C0
31C0
3180
7180
3F80
3F80
0300
0700
FE00
FC00
ENDCHAR
STARTCHAR 01E8
ENCODING 488
SWIDTH 462 0
DWIDTH 9 0
BBX 10 16 1 0
BITMAP
0C80
0780
0200
0000
38C0
39C0
3380
3700
7E00
7C00
7C00
6E00
E600
E700
C700
C300
ENDCHAR
STARTCHAR 01E9
ENCODING 489
SWIDTH 462 0
DWIDTH 9 0
BBX 10 16 1 0
BITMAP
0900
0E00
0400
0000
1800
1800
3800
31C0
3380
3600
7C00
7C00
6E00
6600
E700
E700
ENDCHAR
STARTCHAR 01EA
ENCODING 490
SWIDTH 462 0
DWIDTH 9 0
BBX 9 15 1 -3
BITMAP
0F00
3F80
3180
7180
6180
6180
E180
E380
E300
E700
7E00
7C00
3000
7000
7800
ENDCHAR
STARTCHAR 01EB
ENCODING 491
SWIDTH 462 0
DWIDTH 9 0
BBX 9 12 1 -3
BITMAP
1F00
3F80
7380
6380
E380
E300
E700
7E00
7C00
1800
3000
7800
ENDCHAR
STARTCHAR 01EC
ENCODING 492
SWIDTH 462 0
DWIDTH 9 0
BBX 10 18 1 -3
BITMAP
0FC0
0000
0000
0F00
3F80
3180
7180
6180
6180
E180
E380
E300
E700
7E00
7C00
3000
7000
7800
ENDCHAR
STARTCHAR 01ED
ENCODING 493
SWIDTH 462 0
DWIDTH 9 0
BBX 9 16 1 -3
BITMAP
0F80
0F80
0000
0000
1F00
3F80
7380
6380
E380
E300
E700
7E00
7C00
1800
3000
7800
ENDCHAR
STARTCHAR 01EE
ENCODING 494
SWIDTH 462 0
DWIDTH 9 0
BBX 10 16 1 0
BITMAP
0480
0780
0300
0000
1FC0
3FC0
0380
0700
0E00
1E00
0700
0300
0300
0300
FF00
FE00
ENDCHAR
STARTCHAR 01EF
ENCODING 495
SWIDTH 462 0
DWIDTH 9 0
BBX 10 16 0 -3
BITMAP
06C0
0380
0300
0000
1FC0
3FC0
0380
0700
0C00
1E00
0700
0300
0300
0700
FF00
FC00
ENDCHAR
STARTCHAR 01F0
ENCODING 496
SWIDTH 462 0
DWIDTH 9 0
BBX 10 16 0 -3
BITMAP
06C0
0780
0200
0000
1F80
1F80
0380
0300
0300
0700
0700
0600
0600
0E00
FC00
FC00
ENDCHAR
STARTCHAR 01F1
ENCODING 497
SWIDTH 462 0
DWIDTH 9 0
BBX 12 12 0 0
BITMAP
1EF0
1EF0
3620
3260
3640
26C0
6680
6580
6D00
4F00
FBC0
F380
ENDCHAR
STARTCHAR 01F2
ENCODING 498
SWIDTH 462 0
DWIDTH 9 0
BBX 11 12 0 0
BITMAP
1E00
1E00
3600
32E0
36E0
2660
66C0
6480
6D80
4D00
FBC0
F3C0
ENDCHAR
STARTCHAR 01F3
ENCODING 499
SWIDTH 462 0
DWIDTH 9 0
BBX 10 13 1 0
BITMAP
0600
0400
0400
0C00
3DC0
7DC0
C8C0
D980
9900
9B00
9200
F780
F780
ENDCHAR
STARTCHAR 01F4
ENCODING 500
SWIDTH 462 0
DWIDTH 9 0
BBX 9 16 2 0
BITMAP
0200
0700
0C00
0000
1F80
3F80
7000
6000
E000
C000
C700
C700
C600
C600
FE00
7E00
ENDCHAR
STARTCHAR 01F5
ENCODING 501
SWIDTH 462 0
DWIDTH 9 0
BBX 10 16 0 -3
BITMAP
0080
03C0
0300
0000
0FC0
1FC0
39C0
31C0
3180
7180
3F80
3F80
0300
0700
FE00
FC00
ENDCHAR
STARTCHAR 01F6
ENCODING 502
SWIDTH 462 0
DWIDTH 9 0
BBX 11 12 0 0
BITMAP
1B00
1B00
3300
3360
3660
3E40
7EC0
66C0
6CC0
6C80
CF80
C780
ENDCHAR
STARTCHAR 01F7
ENCODING 503
SWIDTH 462 0
DWIDTH 9 0
BBX 11 15 0 -3
BITMAP
0FC0
1FC0
1CE0
18E0
18E0
18C0
38C0
31C0
3380
3F00
7E00
7800
6000
6000
E000
ENDCHAR
STARTCHAR 01F8
ENCODING 504
SWIDTH 462 0
DWIDTH 9 0
BBX 10 16 1 0
BITMAP
0400
0E00
0300
0000
38C0
38C0
38C0
39C0
6D80
6D80
6D80
6780
C700
C700
C700
C700
ENDCHAR
STARTCHAR 01F9
ENCODING 505
SWIDTH 462 0
DWIDTH 9 0
BBX 9 13 1 0
BITMAP
0C00
0E00
0200
0000
3F00
3F80
7380
7380
6300
6300
E700
E700
C600
ENDCHAR
STARTCHAR 01FA
ENCODING 506
SWIDTH 462 0
DWIDTH 9 0
BBX 9 16 0 0
BITMAP
0080
0380
0100
0280
0280
0780
0780
0D80
0D80
1980
1980
3F80
3F80
6180
6180
E180
ENDCHAR
STARTCHAR 01FB
ENCODING 507
SWIDTH 462 0
DWIDTH 9 0
BBX 9 16 1 0
BITMAP
0180
0300
0000
0700
0580
0300
0000
1F80
3F80
7380
6300
E300
E300
E700
7F00
7B00
ENDCHAR
STARTCHAR 01FC
ENCODING 508
SWIDTH 462 0
DWIDTH 9 0
BBX 12 16 0 0
BITMAP
0060
00E0
01C0
0000
03F0
07E0
0780
0D80
0F00
1BC0
3BC0
3F00
7F00
6600
E7C0
C780
ENDCHAR
STARTCHAR 01FD
ENCODING 509
SWIDTH 462 0
DWIDTH 9 0
BBX 10 13 1 0
BITMAP
0300
0700
0600
0000
7B80
5EC0
0CC0
3D80
7F00
DE00
9800
FF00
EF00
ENDCHAR
STARTCHAR 01FE
ENCODING 510
SWIDTH 462 0
DWIDTH 9 0
BBX 9 17 1 -1
BITMAP
0200
0700
0E00
0080
0F80
3F80
3380
7380
6780
6D80
E980
F980
F300
E700
7E00
FC00
4000
ENDCHAR
STARTCHAR 01FF
ENCODING 511
SWIDTH 462 0
DWIDTH 9 0
BBX 8 14 2 -1
BITMAP
06
1E
18
01
3F
7F
67
CF
DB
F3
E6
FE
FC
80
ENDCHAR
STARTCHAR 0200
ENCODING 512
SWIDTH 462 0
DWIDTH 9 0
BBX 11 16 0 0
BITMAP
04C0
06C0
0260
0000
0380
0780
0780
0D80
0D80
1980
1980
3F80
3F80
6180
6180
E180
ENDCHAR
STARTCHAR 0201
ENCODING 513
SWIDTH 462 0
DWIDTH 9 0
BBX 9 13 1 0
BITMAP
1900
0D80
0C80
0000
1F80
3F80
7380
6300
E300
E300
E700
7F00
7B00
ENDCHAR
STARTCHAR 0202
ENCODING 514
SWIDTH 462 0
DWIDTH 9 0
BBX 10 16 0 0
BITMAP
0380
07C0
06C0
0000
0380
0780
0780
0D80
0D80
1980
1980
3F80
3F80
6180
6180
E180
ENDCHAR
STARTCHAR 0203
ENCODING 515
SWIDTH 462 0
DWIDTH 9 0
BBX 9 13 1 0
BITMAP
0700
0F80
0980
0000
1F80
3F80
7380
6300
E300
E300
E700
7F00
7B00
ENDCHAR
STARTCHAR 0204
ENCODING 516
SWIDTH 462 0
DWIDTH 9 0
BBX 10 16 1 0
BITMAP
0C80
0D80
06C0
0000
1FC0
1FC0
3800
3000
3000
3F00
7F00
6000
6000
6000
FF00
FF00
ENDCHAR
STARTCHAR 0205
ENCODING 517
SWIDTH 462 0
DWIDTH 9 0
BBX 9 13 1 0
BITMAP
1900
0D80
0C80
0000
1F80
3F80
7180
6380
7F00
FC00
6000
7F00
3F00
ENDCHAR
STARTCHAR 0206
ENCODING 518
SWIDTH 462 0
DWIDTH 9 0
BBX 10 16 1 0
BITMAP
0380
07C0
0CC0
0000
1FC0
1FC0
3800
3000
3000
3F00
7F00
6000
6000
6000
FF00
FF00
ENDCHAR
STARTCHAR 0207
ENCODING 519
SWIDTH 462 0
DWIDTH 9 0
BBX 9 13 1 0
BITMAP
0700
0F80
1980
0000
1F80
3F80
7180
6380
7F00
FC00
6000
7F00
3F00
ENDCHAR
STARTCHAR 0208
ENCODING 520
SWIDTH 462 0
DWIDTH 9 0
BBX 10 16 1 0
BITMAP
0980
0D80
04C0
0000
3FC0
3FC0
0600
0E00
0E00
0C00
0C00
1C00
1C00
1800
FF00
FE00
ENDCHAR
STARTCHAR 0209
ENCODING 521
SWIDTH 462 0
DWIDTH 9 0
BBX 7 13 2 0
BITMAP
26
36
12
00
F8
F8
18
38
30
30
30
3E
3E
ENDCHAR
STARTCHAR 020A
ENCODING 522
SWIDTH 462 0
DWIDTH 9 0
BBX 10 16 1 0
BITMAP
0700
0F80
0C80
0000
3FC0
3FC0
0600
0E00
0E00
0C00
0C00
1C00
1C00
1800
FF00
FE00
ENDCHAR
STARTCHAR 020B
ENCODING 523
SWIDTH 462 0
DWIDTH 9 0
BBX 7 13 2 0
BITMAP
1C
3E
26
00
F8
F8
18
38
30
30
30
3E
3E
ENDCHAR
STARTCHAR 020C
ENCODING 524
SWIDTH 462 0
DWIDTH 9 0
BBX 9 16 1 0
BITMAP
0900
0D80
0C80
0000
0F00
3F80
3180
7180
6180
6180
E180
E380
E300
E700
7E00
7C00
ENDCHAR
STARTCHAR 020D
ENCODING 525
SWIDTH 462 0
DWIDTH 9 0
BBX 9 13 1 0
BITMAP
1900
1980
0C80
0000
1F00
3F80
7380
6380
E380
E300
E700
7E00
7C00
ENDCHAR
STARTCHAR 020E
ENCODING 526
SWIDTH 462 0
DWIDTH 9 0
BBX 10 16 1 0
BITMAP
0380
0780
0CC0
0000
0F00
3F80
3180
7180
6180
6180
E180
E380
E300
E700
7E00
7C00
ENDCHAR
STARTCHAR 020F
ENCODING 527
SWIDTH 462 0
DWIDTH 9 0
BBX 9 13 1 0
BITMAP
0700
0F80
1980
0000
1F00
3F80
7380
6380
E380
E300
E700
7E00
7C00
ENDCHAR
STARTCHAR 0210
ENCODING 528
SWIDTH 462 0
DWIDTH 9 0
BBX 9 16 1 0
BITMAP
0900
1980
0C80
0000
3F00
3F80
3180
3180
7180
7780
7F00
7E00
E600
E600
C700
C300
ENDCHAR
STARTCHAR 0211
ENCODING 529
SWIDTH 462 0
DWIDTH 9 0
BBX 9 13 1 0
BITMAP
1900
1980
0C80
0000
3F80
3F80
3000
3000
7000
7000
6000
6000
E000
ENDCHAR
STARTCHAR 0212
ENCODING 530
SWIDTH 462 0
DWIDTH 9 0
BBX 9 16 1 0
BITMAP
0700
0F80
0C80
0000
3F00
3F80
3180
3180
7180
7780
7F00
7E00
E600
E600
C700
C300
ENDCHAR
STARTCHAR 0213
ENCODING 531
SWIDTH 462 0
DWIDTH 9 0
BBX 9 13 1 0
BITMAP
0700
0F80
0980
0000
3F80
3F80
3000
3000
7000
7000
6000
6000
E000
ENDCHAR
STARTCHAR 0214
ENCODING 532
SWIDTH 462 0
DWIDTH 9 0
BBX 10 16 1 0
BITMAP
0980
0D80
04C0
0000
38C0
31C0
31C0
7180
7180
6180
6380
6300
E300
E700
7E00
7C00
ENDCHAR
STARTCHAR 0215
ENCODING 533
SWIDTH 462 0
DWIDTH 9 0
BBX 9 13 1 0
BITMAP
1900
1980
0C80
0000
3180
7380
7380
6300
6300
6700
E700
7F00
7B00
ENDCHAR
STARTCHAR 0216
ENCODING 534
SWIDTH 462 0
DWIDTH 9 0
BBX 10 16 1 0
BITMAP
0700
0F80
0C80
0000
38C0
31C0
31C0
7180
7180
6180
6380
6300
E300
E700
7E00
7C00
ENDCHAR
STARTCHAR 0217
ENCODING 535
SWIDTH 462 0
DWIDTH 9 0
BBX 9 13 1 0
BITMAP
0700
0F80
1980
0000
3180
7380
7380
6300
6300
6700
E700
7F00
7B00
ENDCHAR
STARTCHAR 0218
ENCODING 536
SWIDTH 462 0
DWIDTH 9 0
BBX 9 15 1 -3
BITMAP
1F80
3F80
3000
3000
3800
3E00
0F00
0700
0300
0300
FF00
FE00
0000
3000
E000
ENDCHAR
STARTCHAR 0219
ENCODING 537
SWIDTH 462 0
DWIDTH 9 0
BBX 9 12 1 -3
BITMAP
1F80
3F00
3000
3800
3E00
0700
0700
FE00
FE00
0000
3000
7000
ENDCHAR
STARTCHAR 021A
ENCODING 538
SWIDTH 462 0
DWIDTH 9 0
BBX 11 15 1 -3
BITMAP
3FE0
3FC0
0600
0E00
0C00
0C00
0C00
1C00
1800
1800
1800
3800
0000
3000
F000
ENDCHAR
STARTCHAR 021B
ENCODING 539
SWIDTH 462 0
DWIDTH 9 0
BBX 8 15 2 -3
BITMAP
18
18
18
FF
FF
30
30
70
60
60
7E
3E
00
30
70
ENDCHAR
STARTCHAR 021C
ENCODING 540
SWIDTH 462 0
DWIDTH 9 0
BBX 11 15 -1 -3
BITMAP
0FC0
0FE0
0060
0060
00E0
01C0
0F80
0F80
01C0
00C0
00C0
01C0
0380
7F00
FE00
ENDCHAR
STARTCHAR 021D
ENCODING 541
SWIDTH 462 0
DWIDTH 9 0
BBX 9 12 0 -3
BITMAP
1F80
1F80
0180
0180
0F80
1E00
0F00
0380
0380
0700
FE00
F800
ENDCHAR
STARTCHAR 021E
ENCODING 542
SWIDTH 462 0
DWIDTH 9 0
BBX 10 16 1 0
BITMAP
0480
0780
0300
0000
38C0
30C0
31C0
31C0
7180
7F80
7F80
6380
E300
C300
C700
C700
ENDCHAR
STARTCHAR 021F
ENCODING 543
SWIDTH 462 0
DWIDTH 9 0
BBX 9 16 1 0
BITMAP
1B00
0E00
0400
0000
1800
3800
3800
3F00
3F80
7380
7380
6300
6300
E700
E700
C600
ENDCHAR
STARTCHAR 0220
ENCODING 544
SWIDTH 462 0
DWIDTH 9 0
BBX 9 15 1 -3
BITMAP
3F80
3F80
3180
3180
7180
6180
6380
6380
E300
E300
C700
C700
0600
0600
0E00
ENDCHAR
STARTCHAR 0221
ENCODING 545
SWIDTH 462 0
DWIDTH 9 0
BBX 9 16 1 -3
BITMAP
0180
0300
0300
0300
3F00
7F00
6600
C600
C600
CE00
CC00
FF00
7D80
1980
3F00
2F00
ENDCHAR
STARTCHAR 0222
ENCODING 546
SWIDTH 462 0
DWIDTH 9 0
BBX 10 12 1 0
BITMAP
19C0
39C0
39C0
3180
3F80
3E00
7F80
E380
C380
E380
FF00
7E00
ENDCHAR
STARTCHAR 0223
ENCODING 547
SWIDTH 462 0
DWIDTH 9 0
BBX 10 13 1 0
BITMAP
18C0
38C0
39C0
39C0
3F80
1F00
7F80
6380
E380
E380
E700
FF00
7C00
ENDCHAR
STARTCHAR 0224
ENCODING 548
SWIDTH 462 0
DWIDTH 9 0
BBX 10 15 1 -3
BITMAP
3FC0
3FC0
0380
0300
0600
0C00
1C00
3800
7000
6000
FF00
FF00
0600
0600
1C00
ENDCHAR
STARTCHAR 0225
ENCODING 549
SWIDTH 462 0
DWIDTH 9 0
BBX 9 12 0 -3
BITMAP
3F80
3F80
0700
0E00
1C00
3800
7000
FF00
FF00
0600
0600
1C00
ENDCHAR
STARTCHAR 0226
ENCODING 550
SWIDTH 462 0
DWIDTH 9 0
BBX 9 16 0 0
BITMAP
0180
0380
0180
0000
0380
0780
0780
0D80
0D80
1980
1980
3F80
3F80
6180
6180
E180
ENDCHAR
STARTCHAR 0227
ENCODING 551
SWIDTH 462 0
DWIDTH 9 0
BBX 9 13 1 0
BITMAP
0300
0700
0200
0000
1F80
3F80
7380
6300
E300
E300
E700
7F00
7B00
ENDCHAR
STARTCHAR 0228
ENCODING 552
SWIDTH 462 0
DWIDTH 9 0
BBX 10 15 1 -3
BITMAP
1FC0
1FC0
3800
3000
3000
3F00
7F00
6000
6000
6000
FF00
FF00
1800
0800
7800
ENDCHAR
STARTCHAR 0229
ENCODING 553
SWIDTH 462 0
DWIDTH 9 0
BBX 9 12 1 -3
BITMAP
1F80
3F80
7180
6380
7F00
FC00
6000
7F00
3F00
1800
0C00
3800
ENDCHAR
STARTCHAR 022A
ENCODING 554
SWIDTH 462 0
DWIDTH 9 0
BBX 9 16 1 0
BITMAP
0780
0000
0D80
0D80
0200
1F80
3F80
3180
7180
6180
6180
E380
E380
E700
7E00
7C00
ENDCHAR
STARTCHAR 022B
ENCODING 555
SWIDTH 462 0
DWIDTH 9 0
BBX 9 14 1 0
BITMAP
0780
0000
0D80
0D80
0000
1F00
3F80
7380
6380
E380
E300
E700
7E00
7C00
ENDCHAR
STARTCHAR 022C
ENCODING 556
SWIDTH 462 0
DWIDTH 9 0
BBX 9 16 1 0
BITMAP
0780
0000
0F80
0B00
0200
1F80
3F80
3180
7180
6180
6180
E380
E380
E700
7E00
7C00
ENDCHAR
STARTCHAR 022D
ENCODING 557
SWIDTH 462 0
DWIDTH 9 0
BBX 9 14 1 0
BITMAP
0780
0000
0F80
0B00
0000
1F00
3F80
7380
6380
E380
E300
E700
7E00
7C00
ENDCHAR
STARTCHAR 022E
ENCODING 558
SWIDTH 462 0
DWIDTH 9 0
BBX 9 16 1 0
BITMAP
0300
0380
0300
0000
0F00
3F80
3180
7180
6180
6180
E180
E380
E300
E700
7E00
7C00
ENDCHAR
STARTCHAR 022F
ENCODING 559
SWIDTH 462 0
DWIDTH 9 0
BBX 9 13 1 0
BITMAP
0700
0700
0200
0000
1F00
3F80
7380
6380
E380
E300
E700
7E00
7C00
ENDCHAR
STARTCHAR 0230
ENCODING 560
SWIDTH 462 0
DWIDTH 9 0
BBX 10 16 1 0
BITMAP
07C0
0000
0300
0300
0200
1F80
3F80
3180
7180
6180
6180
E380
E380
E700
7E00
7C00
ENDCHAR
STARTCHAR 0231
ENCODING 561
SWIDTH 462 0
DWIDTH 9 0
BBX 9 14 1 0
BITMAP
0780
0000
0600
0600
0000
1F00
3F80
7380
6380
E380
E300
E700
7E00
7C00
ENDCHAR
STARTCHAR 0232
ENCODING 562
SWIDTH 462 0
DWIDTH 9 0
BBX 9 15 3 0
BITMAP
3F00
0000
0000
C380
C300
C600
EE00
6C00
7800
7800
7000
7000
6000
6000
E000
ENDCHAR
STARTCHAR 0233
ENCODING 563
SWIDTH 462 0
DWIDTH 9 0
BBX 11 16 -1 -3
BITMAP
03E0
07E0
0000
0000
1C60
1C60
1CE0
0CC0
0DC0
0D80
0F80
0F00
0E00
0E00
7C00
F000
ENDCHAR
STARTCHAR 0234
ENCODING 564
SWIDTH 462 0
DWIDTH 9 0
BBX 8 16 1 -3
BITMAP
3E
3E
0E
0C
0C
1C
1C
18
18
38
3C
3F
33
73
FE
9E
ENDCHAR
STARTCHAR 0235
ENCODING 565
SWIDTH 462 0
DWIDTH 9 0
BBX 9 12 1 -3
BITMAP
7E00
7E00
6600
6600
E600
CE00
CC00
CF00
CD80
1980
7F00
2F00
ENDCHAR
STARTCHAR 0236
ENCODING 566
SWIDTH 462 0
DWIDTH 9 0
BBX 10 15 0 -3
BITMAP
0600
0600
0600
3FC0
3FC0
0C00
0C00
1C00
1800
1A00
1F00
3B80
7900
DF00
9E00
ENDCHAR
STARTCHAR 0237
ENCODING 567
SWIDTH 462 0
DWIDTH 9 0
BBX 9 12 0 -3
BITMAP
1F80
1F80
0380
0300
0300
0700
0700
0600
0600
0E00
FC00
FC00
ENDCHAR
STARTCHAR 0238
ENCODING 568
SWIDTH 462 0
DWIDTH 9 0
BBX 9 13 1 0
BITMAP
0600
0600
0600
0600
3F80
7F80
6D80
CD80
C980
D980
DB00
FF00
FE00
ENDCHAR
STARTCHAR 0239
ENCODING 569
SWIDTH 462 0
DWIDTH 9 0
BBX 9 12 1 -3
BITMAP
3F80
7F80
6D80
CD80
C980
D980
DB00
FF00
FE00
3000
3000
3000
ENDCHAR
STARTCHAR 023A
ENCODING 570
SWIDTH 462 0
DWIDTH 9 0
BBX 11 15 0 -2
BITMAP
0060
03C0
07C0
0F80
0D80
1F80
1B80
3F80
3F80
7F80
6D80
E980
D980
1000
1000
ENDCHAR
STARTCHAR 023B
ENCODING 571
SWIDTH 462 0
DWIDTH 9 0
BBX 9 15 2 -1
BITMAP
0180
1F80
3F80
7280
E600
E400
CC00
D800
D800
F000
F000
FE00
7E00
C000
4000
ENDCHAR
STARTCHAR 023C
ENCODING 572
SWIDTH 462 0
DWIDTH 9 0
BBX 9 11 1 -1
BITMAP
0180
1F80
3F80
7200
6600
6400
EC00
6800
7F00
3F00
2000
ENDCHAR
STARTCHAR 023D
ENCODING 573
SWIDTH 462 0
DWIDTH 9 0
BBX 8 12 1 0
BITMAP
1C
18
18
38
38
7E
FC
30
70
60
7F
7E
ENDCHAR
STARTCHAR 023E
ENCODING 574
SWIDTH 462 0
DWIDTH 9 0
BBX 12 13 0 -1
BITMAP
0010
3FF0
3FE0
07C0
0780
0700
0E00
0E00
0C00
1C00
3C00
7C00
D800
ENDCHAR
STARTCHAR 023F
ENCODING 575
SWIDTH 462 0
DWIDTH 9 0
BBX 9 12 1 -3
BITMAP
1F80
3F00
3000
3800
3E00
0700
0700
FE00
FC00
6000
3C00
1C00
ENDCHAR
STARTCHAR 0240
ENCODING 576
SWIDTH 462 0
DWIDTH 9 0
BBX 9 12 1 -3
BITMAP
3F80
3F80
0700
0E00
1C00
3800
7000
E000
F000
3800
1E00
0E00
ENDCHAR
STARTCHAR 0241
ENCODING 577
SWIDTH 462 0
DWIDTH 9 0
BBX 8 12 2 0
BITMAP
7F
7F
03
03
07
1E
38
70
70
60
60
E0
ENDCHAR
STARTCHAR 0242
ENCODING 578
SWIDTH 462 0
DWIDTH 9 0
BBX 7 9 3 0
BITMAP
FC
7E
0E
0C
3C
70
E0
E0
C0
ENDCHAR
STARTCHAR 0243
ENCODING 579
SWIDTH 462 0
DWIDTH 9 0
BBX 9 12 1 0
BITMAP
1F00
1F80
3980
3180
3380
3F00
7F00
6380
F380
6380
FF00
FE00
ENDCHAR
STARTCHAR 0244
ENCODING 580
SWIDTH 462 0
DWIDTH 9 0
BBX 10 12 1 0
BITMAP
38C0
31C0
3180
3180
FFC0
FFC0
6300
6300
E300
E700
7E00
7C00
ENDCHAR
STARTCHAR 0245
ENCODING 581
SWIDTH 462 0
DWIDTH 9 0
BBX 9 12 0 0
BITMAP
0380
0780
0780
0D80
1D80
1980
3980
3180
7180
6180
6180
E180
ENDCHAR
STARTCHAR 0246
ENCODING 582
SWIDTH 462 0
DWIDTH 9 0
BBX 11 15 1 -2
BITMAP
0060
1FC0
3FC0
3180
3180
3300
7F80
7F00
6C00
6800
F800
FF00
FF00
6000
4000
ENDCHAR
STARTCHAR 0247
ENCODING 583
SWIDTH 462 0
DWIDTH 9 0
BBX 9 11 1 -1
BITMAP
0300
1F00
3F80
7580
6780
7F00
E800
7800
7E00
3F00
3000
ENDCHAR
STARTCHAR 0248
ENCODING 584
SWIDTH 462 0
DWIDTH 9 0
BBX 10 12 1 0
BITMAP
1F80
1F80
0180
0380
0300
1FC0
1F80
0700
0600
0600
FE00
FC00
ENDCHAR
STARTCHAR 0249
ENCODING 585
SWIDTH 462 0
DWIDTH 9 0
BBX 10 16 0 -3
BITMAP
0180
0380
0180
0000
1F80
1F80
0380
3FC0
3F80
0700
0700
0600
0600
0E00
FC00
FC00
ENDCHAR
STARTCHAR 024A
ENCODING 586
SWIDTH 462 0
DWIDTH 9 0
BBX 9 15 1 -3
BITMAP
0F00
3F80
3180
7180
6180
6180
6380
E300
E300
E700
7F00
7E00
0600
0700
0700
ENDCHAR
STARTCHAR 024B
ENCODING 587
SWIDTH 462 0
DWIDTH 9 0
BBX 9 12 1 -3
BITMAP
1F80
3F80
7380
6300
E300
E700
E700
7E00
7E00
0600
0F00
0700
ENDCHAR
STARTCHAR 024C
ENCODING 588
SWIDTH 462 0
DWIDTH 9 0
BBX 9 12 1 0
BITMAP
1F00
1F80
1980
3980
3180
3780
FF00
FE00
6600
6700
6300
E300
ENDCHAR
STARTCHAR 024D
ENCODING 589
SWIDTH 462 0
DWIDTH 9 0
BBX 9 9 1 0
BITMAP
1F80
3F80
3000
3000
FE00
FE00
6000
6000
6000
ENDCHAR
STARTCHAR 024E
ENCODING 590
SWIDTH 462 0
DWIDTH 9 0
BBX 10 12 2 0
BITMAP
61C0
6180
FF80
FF80
3600
3C00
3C00
3800
3800
3000
3000
7000
ENDCHAR
STARTCHAR 024F
ENCODING 591
SWIDTH 462 0
DWIDTH 9 0
BBX 11 12 -1 -3
BITMAP
1C60
1CE0
1CC0
3FE0
0DC0
0D80
0F80
0F00
0E00
0E00
7C00
F000
ENDCHAR
STARTCHAR 0292
ENCODING 658
SWIDTH 462 0
DWIDTH 9 0
BBX 10 12 0 -3
BITMAP
1FC0
3FC0
0380
0700
0C00
1E00
0700
0300
0300
0700
FF00
FC00
ENDCHAR
STARTCHAR 02BC
ENCODING 700
SWIDTH 462 0
DWIDTH 9 0
BBX 3 3 5 10
BITMAP
60
60
C0
ENDCHAR
STARTCHAR 02C6
ENCODING 710
SWIDTH 462 0
DWIDTH 9 0
BBX 4 3 5 10
BITMAP
60
F0
90
ENDCHAR
STARTCHAR 02C7
ENCODING 711
SWIDTH 462 0
DWIDTH 9 0
BBX 5 3 5 10
BITMAP
D8
70
60
ENDCHAR
STARTCHAR 02C9
ENCODING 713
SWIDTH 462 0
DWIDTH 9 0
BBX 6 2 4 11
BITMAP
7C
FC
ENDCHAR
STARTCHAR 02D8
ENCODING 728
SWIDTH 462 0
DWIDTH 9 0
BBX 5 3 5 10
BITMAP
D8
F8
60
ENDCHAR
STARTCHAR 02D9
ENCODING 729
SWIDTH 462 0
DWIDTH 9 0
BBX 2 3 6 10
BITMAP
C0
C0
80
ENDCHAR
STARTCHAR 02DA
ENCODING 730
SWIDTH 462 0
DWIDTH 9 0
BBX 4 4 5 10
BITMAP
70
D0
D0
70
ENDCHAR
STARTCHAR 02DB
ENCODING 731
SWIDTH 462 0
DWIDTH 9 0
BBX 4 3 2 -3
BITMAP
70
C0
F0
ENDCHAR
STARTCHAR 02DC
ENCODING 732
SWIDTH 462 0
DWIDTH 9 0
BBX 6 2 4 10
BITMAP
74
FC
ENDCHAR
STARTCHAR 02DD
ENCODING 733
SWIDTH 462 0
DWIDTH 9 0
BBX 7 3 4 10
BITMAP
66
EE
88
ENDCHAR
STARTCHAR 0311
ENCODING 785
SWIDTH 462 0
DWIDTH 9 0
BBX 6 3 4 10
BITMAP
78
7C
CC
ENDCHAR
STARTCHAR 0384
ENCODING 900
SWIDTH 462 0
DWIDTH 9 0
BBX 3 4 6 10
BITMAP
60
E0
C0
80
ENDCHAR
STARTCHAR 0385
ENCODING 901
SWIDTH 462 0
DWIDTH 9 0
BBX 8 4 3 10
BITMAP
08
CF
FB
10
ENDCHAR
STARTCHAR 0386
ENCODING 902
SWIDTH 462 0
DWIDTH 9 0
BBX 9 13 0 0
BITMAP
1000
1B80
3780
3780
0D80
0D80
1980
1980
3F80
3F80
6180
6180
E180
ENDCHAR
STARTCHAR 0388
ENCODING 904
SWIDTH 462 0
DWIDTH 9 0
BBX 11 13 0 0
BITMAP
4000
6FE0
CFE0
DC00
1800
1800
1F80
3F80
3000
3000
3000
7F80
7F80
ENDCHAR
STARTCHAR 0389
ENCODING 905
SWIDTH 462 0
DWIDTH 9 0
BBX 12 13 -1 0
BITMAP
4000
6E30
6C30
CC70
0C70
1C60
1FE0
1FE0
18E0
38C0
30C0
31C0
31C0
ENDCHAR
STARTCHAR 038A
ENCODING 906
SWIDTH 462 0
DWIDTH 9 0
BBX 12 13 -1 0
BITMAP
2000
6FF0
6FF0
C180
0380
0380
0300
0300
0700
0700
0600
3FC0
3F80
ENDCHAR
STARTCHAR 038C
ENCODING 908
SWIDTH 462 0
DWIDTH 9 0
BBX 10 13 0 0
BITMAP
4000
6780
FFC0
D8C0
38C0
30C0
30C0
70C0
71C0
7180
7380
3F00
3E00
ENDCHAR
STARTCHAR 038E
ENCODING 910
SWIDTH 462 0
DWIDTH 9 0
BBX 13 13 -1 0
BITMAP
4000
6C38
CC30
CC60
0EE0
06C0
0780
0780
0700
0700
0600
0600
0E00
ENDCHAR
STARTCHAR 038F
ENCODING 911
SWIDTH 462 0
DWIDTH 9 0
BBX 11 13 0 0
BITMAP
4000
6FC0
DFC0
D8E0
30E0
30E0
30C0
30C0
31C0
3180
3300
F780
F780
ENDCHAR
STARTCHAR 0390
ENCODING 912
SWIDTH 462 0
DWIDTH 9 0
BBX 9 14 2 0
BITMAP
0400
6780
7D80
0800
0000
F800
F800
1800
3800
3000
3000
3000
3E00
3E00
ENDCHAR
STARTCHAR 0391
ENCODING 913
SWIDTH 462 0
DWIDTH 9 0
BBX 9 12 0 0
BITMAP
0380
0780
0780
0D80
0D80
1980
1980
3F80
3F80
6180
6180
E180
ENDCHAR
STARTCHAR 0392
ENCODING 914
SWIDTH 462 0
DWIDTH 9 0
BBX 9 12 1 0
BITMAP
3F00
3F80
3180
3180
3380
7F00
7F00
6380
6380
E380
FF00
FC00
ENDCHAR
STARTCHAR 0393
ENCODING 915
SWIDTH 462 0
DWIDTH 9 0
BBX 12 12 0 0
BITMAP
07F0
07E0
0E00
0C00
0C00
0C00
1C00
1800
1800
1800
7E00
FE00
ENDCHAR
STARTCHAR 0394
ENCODING 916
SWIDTH 462 0
DWIDTH 9 0
BBX 9 12 0 0
BITMAP
0380
0780
0780
0D80
1D80
1980
3980
3180
3180
6180
7F80
FF80
ENDCHAR
STARTCHAR 0395
ENCODING 917
SWIDTH 462 0
DWIDTH 9 0
BBX 10 12 1 0
BITMAP
1FC0
1FC0
3800
3000
3000
3F00
7F00
6000
6000
6000
FF00
FF00
ENDCHAR
STARTCHAR 0396
ENCODING 918
SWIDTH 462 0
DWIDTH 9 0
BBX 10 12 1 0
BITMAP
3FC0
3FC0
0380
0300
0600
0C00
1C00
3800
7000
6000
FF00
FF00
ENDCHAR
STARTCHAR 0397
ENCODING 919
SWIDTH 462 0
DWIDTH 9 0
BBX 10 12 1 0
BITMAP
38C0
30C0
31C0
31C0
7180
7F80
7F80
6380
E300
C300
C700
C700
ENDCHAR
STARTCHAR 0398
ENCODING 920
SWIDTH 462 0
DWIDTH 9 0
BBX 9 12 1 0
BITMAP
0F00
3F80
3180
7180
6180
6D80
7D80
E180
E300
E700
7E00
7C00
ENDCHAR
STARTCHAR 0399
ENCODING 921
SWIDTH 462 0
DWIDTH 9 0
BBX 10 12 1 0
BITMAP
3FC0
3FC0
0600
0E00
0E00
0C00
0C00
1C00
1C00
1800
FF00
FE00
ENDCHAR
STARTCHAR 039A
ENCODING 922
SWIDTH 462 0
DWIDTH 9 0
BBX 10 12 1 0
BITMAP
38C0
39C0
3380
3700
7E00
7C00
7C00
6E00
E600
E700
C700
C300
ENDCHAR
STARTCHAR 039B
ENCODING 923
SWIDTH 462 0
DWIDTH 9 0
BBX 9 12 0 0
BITMAP
0380
0780
0780
0D80
1D80
1980
3980
3180
7180
6180
6180
E180
ENDCHAR
STARTCHAR 039C
ENCODING 924
SWIDTH 462 0
DWIDTH 9 0
BBX 11 12 0 0
BITMAP
1C60
1CE0
1CE0
35E0
3540
37C0
36C0
66C0
60C0
6180
6180
C180
ENDCHAR
STARTCHAR 039D
ENCODING 925
SWIDTH 462 0
DWIDTH 9 0
BBX 10 12 1 0
BITMAP
38C0
38C0
38C0
39C0
6D80
6D80
6D80
6780
C700
C700
C700
C700
ENDCHAR
STARTCHAR 039E
ENCODING 926
SWIDTH 462 0
DWIDTH 9 0
BBX 11 12 0 0
BITMAP
1FE0
1FE0
0000
0000
0000
1F80
3F80
0000
0000
0000
7F80
FF80
ENDCHAR
STARTCHAR 039F
ENCODING 927
SWIDTH 462 0
DWIDTH 9 0
BBX 9 12 1 0
BITMAP
0F00
3F80
3180
7180
6180
6180
E180
E380
E300
E700
7E00
7C00
ENDCHAR
STARTCHAR 03A0
ENCODING 928
SWIDTH 462 0
DWIDTH 9 0
BBX 10 12 1 0
BITMAP
3FC0
3FC0
31C0
31C0
7180
6180
6380
6380
E300
E300
C700
C700
ENDCHAR
STARTCHAR 03A1
ENCODING 929
SWIDTH 462 0
DWIDTH 9 0
BBX 10 12 1 0
BITMAP
1F80
3F80
31C0
31C0
31C0
7380
7F00
7E00
6000
E000
C000
C000
ENDCHAR
STARTCHAR 03A3
ENCODING 931
SWIDTH 462 0
DWIDTH 9 0
BBX 11 12 0 0
BITMAP
1FE0
1FE0
0C00
0E00
0600
0700
0700
0E00
1C00
3000
7F80
FF80
ENDCHAR
STARTCHAR 03A4
ENCODING 932
SWIDTH 462 0
DWIDTH 9 0
BBX 9 12 3 0
BITMAP
FF80
FF00
1800
3800
3000
3000
3000
7000
6000
6000
6000
E000
ENDCHAR
STARTCHAR 03A5
ENCODING 933
SWIDTH 462 0
DWIDTH 9 0
BBX 9 12 3 0
BITMAP
C380
C300
C600
EE00
6C00
7800
7800
7000
7000
6000
6000
E000
ENDCHAR
STARTCHAR 03A6
ENCODING 934
SWIDTH 462 0
DWIDTH 9 0
BBX 10 13 1 0
BITMAP
0600
0600
1F80
3780
64C0
6CC0
4C80
CD80
C980
7B00
7E00
3C00
1800
ENDCHAR
STARTCHAR 03A7
ENCODING 935
SWIDTH 462 0
DWIDTH 9 0
BBX 11 12 0 0
BITMAP
1C60
0CE0
0CC0
0F80
0700
0700
0F00
1F00
1B00
3B80
7180
E180
ENDCHAR
STARTCHAR 03A8
ENCODING 936
SWIDTH 462 0
DWIDTH 9 0
BBX 10 12 2 0
BITMAP
60C0
6180
C180
C980
D980
DB00
DB00
FE00
7E00
3000
3000
3000
ENDCHAR
STARTCHAR 03A9
ENCODING 937
SWIDTH 462 0
DWIDTH 9 0
BBX 11 12 0 0
BITMAP
0FC0
1FC0
18E0
30E0
30E0
30C0
30C0
31C0
3180
3300
F780
F780
ENDCHAR
STARTCHAR 03AA
ENCODING 938
SWIDTH 462 0
DWIDTH 9 0
BBX 10 16 1 0
BITMAP
0CC0
0DC0
0C80
0000
3FC0
3FC0
0600
0E00
0E00
0C00
0C00
1C00
1C00
1800
FF00
FE00
ENDCHAR
STARTCHAR 03AB
ENCODING 939
SWIDTH 462 0
DWIDTH 9 0
BBX 9 16 3 0
BITMAP
3300
3700
3200
0000
C380
C300
C600
EE00
6C00
7800
7800
7000
7000
6000
6000
E000
ENDCHAR
STARTCHAR 03AC
ENCODING 940
SWIDTH 462 0
DWIDTH 9 0
BBX 9 14 1 0
BITMAP
0180
0180
0300
0200
0000
1F80
3F80
7380
6300
E300
E300
E700
7F00
7F00
ENDCHAR
STARTCHAR 03AD
ENCODING 941
SWIDTH 462 0
DWIDTH 9 0
BBX 9 14 1 0
BITMAP
0180
0180
0300
0200
0000
1F80
3F80
3000
3E00
3E00
6000
E000
7F00
7F00
ENDCHAR
STARTCHAR 03AE
ENCODING 942
SWIDTH 462 0
DWIDTH 9 0
BBX 9 17 1 -3
BITMAP
0180
0180
0300
0200
0000
3F00
3F80
7380
7380
6300
6300
E700
E700
C600
0600
0E00
0E00
ENDCHAR
STARTCHAR 03AF
ENCODING 943
SWIDTH 462 0
DWIDTH 9 0
BBX 7 14 2 0
BITMAP
02
06
0C
08
00
F8
F8
18
38
30
30
30
3E
3E
ENDCHAR
STARTCHAR 03B0
ENCODING 944
SWIDTH 462 0
DWIDTH 9 0
BBX 9 14 2 0
BITMAP
0400
6780
7D80
0800
0000
6300
6300
E700
C600
C600
C600
CE00
FC00
F800
ENDCHAR
STARTCHAR 03B1
ENCODING 945
SWIDTH 462 0
DWIDTH 9 0
BBX 9 9 1 0
BITMAP
1F80
3F80
7380
6300
E300
E300
E700
7F00
7F00
ENDCHAR
STARTCHAR 03B2
ENCODING 946
SWIDTH 462 0
DWIDTH 9 0
BBX 10 16 0 -3
BITMAP
07C0
0FC0
1CC0
18C0
19C0
3B80
3F80
31C0
31C0
71C0
7180
7F80
7F00
E000
E000
C000
ENDCHAR
STARTCHAR 03B3
ENCODING 947
SWIDTH 462 0
DWIDTH 9 0
BBX 9 12 2 -3
BITMAP
E380
E300
6700
6600
6E00
6C00
7C00
7800
7000
6000
6000
6000
ENDCHAR
STARTCHAR 03B4
ENCODING 948
SWIDTH 462 0
DWIDTH 9 0
BBX 10 13 1 0
BITMAP
0FC0
1D80
1800
1C00
1E00
3F00
7300
6380
E380
E300
E300
7F00
7C00
ENDCHAR
STARTCHAR 03B5
ENCODING 949
SWIDTH 462 0
DWIDTH 9 0
BBX 9 9 1 0
BITMAP
1F80
3F80
3000
3E00
3E00
6000
E000
7F00
7F00
ENDCHAR
STARTCHAR 03B6
ENCODING 950
SWIDTH 462 0
DWIDTH 9 0
BBX 9 16 2 -3
BITMAP
3F80
3F80
0700
0E00
1800
3000
7000
E000
E000
C000
E000
FC00
3E00
0600
0E00
0C00
ENDCHAR
STARTCHAR 03B7
ENCODING 951
SWIDTH 462 0
DWIDTH 9 0
BBX 9 12 1 -3
BITMAP
3F00
3F80
7380
7380
6300
6300
E700
E700
C600
0600
0E00
0E00
ENDCHAR
STARTCHAR 03B8
ENCODING 952
SWIDTH 462 0
DWIDTH 9 0
BBX 9 13 2 0
BITMAP
1F00
3F00
7300
6380
E380
FF00
FF00
C300
C700
C600
CE00
FC00
7800
ENDCHAR
STARTCHAR 03B9
ENCODING 953
SWIDTH 462 0
DWIDTH 9 0
BBX 7 9 2 0
BITMAP
F8
F8
18
38
30
30
30
3E
3E
ENDCHAR
STARTCHAR 03BA
ENCODING 954
SWIDTH 462 0
DWIDTH 9 0
BBX 10 9 1 0
BITMAP
31C0
3380
3600
7C00
7C00
6E00
6600
E700
E700
ENDCHAR
STARTCHAR 03BB
ENCODING 955
SWIDTH 462 0
DWIDTH 9 0
BBX 9 13 0 0
BITMAP
1E00
1F00
0700
0300
0700
0F00
0F00
1F80
1B80
3380
7380
6380
E380
ENDCHAR
STARTCHAR 03BC
ENCODING 956
SWIDTH 462 0
DWIDTH 9 0
BBX 10 12 0 -3
BITMAP
18C0
19C0
39C0
3180
3180
3180
7380
7F80
7F80
6000
E000
E000
ENDCHAR
STARTCHAR 03BD
ENCODING 957
SWIDTH 462 0
DWIDTH 9 0
BBX 9 9 2 0
BITMAP
E380
E300
E700
E600
6E00
6C00
7800
7800
7000
ENDCHAR
STARTCHAR 03BE
ENCODING 958
SWIDTH 462 0
DWIDTH 9 0
BBX 9 16 2 -3
BITMAP
1F80
3F80
3000
3000
3800
1E00
7E00
E000
C000
C000
E000
F800
7E00
0E00
0E00
0C00
ENDCHAR
STARTCHAR 03BF
ENCODING 959
SWIDTH 462 0
DWIDTH 9 0
BBX 9 9 1 0
BITMAP
1F00
3F80
7380
6380
E380
E300
E700
7E00
7C00
ENDCHAR
STARTCHAR 03C0
ENCODING 960
SWIDTH 462 0
DWIDTH 9 0
BBX 9 9 1 0
BITMAP
3F80
3F80
7380
7300
6300
6300
E700
E700
C600
ENDCHAR
STARTCHAR 03C1
ENCODING 961
SWIDTH 462 0
DWIDTH 9 0
BBX 10 12 0 -3
BITMAP
0F80
1FC0
39C0
31C0
31C0
7180
7380
7F00
7E00
6000
E000
C000
ENDCHAR
STARTCHAR 03C2
ENCODING 962
SWIDTH 462 0
DWIDTH 9 0
BBX 8 12 2 -3
BITMAP
3F
7F
E0
C0
C0
C0
E0
F8
7C
0E
0C
1C
ENDCHAR
STARTCHAR 03C3
ENCODING 963
SWIDTH 462 0
DWIDTH 9 0
BBX 10 9 1 0
BITMAP
1FC0
3FC0
7300
6300
E300
E300
E700
7E00
7C00
ENDCHAR
STARTCHAR 03C4
ENCODING 964
SWIDTH 462 0
DWIDTH 9 0
BBX 8 9 2 0
BITMAP
FF
FF
30
30
70
70
70
7E
3E
ENDCHAR
STARTCHAR 03C5
ENCODING 965
SWIDTH 462 0
DWIDTH 9 0
BBX 8 9 2 0
BITMAP
63
63
E7
C6
C6
C6
CE
FC
F8
ENDCHAR
STARTCHAR 03C6
ENCODING 966
SWIDTH 462 0
DWIDTH 9 0
BBX 9 12 1 -3
BITMAP
1F00
7F80
6D80
CD80
CD80
D980
DB00
FF00
7C00
3000
3000
3000
ENDCHAR
STARTCHAR 03C7
ENCODING 967
SWIDTH 462 0
DWIDTH 9 0
BBX 9 9 1 0
BITMAP
7180
3300
3F00
1E00
1C00
3E00
7600
6700
C700
ENDCHAR
STARTCHAR 03C8
ENCODING 968
SWIDTH 462 0
DWIDTH 9 0
BBX 10 12 1 -3
BITMAP
60C0
6080
6D80
4D80
C980
D980
DB00
FF00
7E00
3000
3000
3000
ENDCHAR
STARTCHAR 03C9
ENCODING 969
SWIDTH 462 0
DWIDTH 9 0
BBX 9 9 1 0
BITMAP
3180
6180
6180
C180
CD80
D980
D980
FF00
EF00
ENDCHAR
STARTCHAR 03CA
ENCODING 970
SWIDTH 462 0
DWIDTH 9 0
BBX 8 13 2 0
BITMAP
33
3B
10
00
F8
F8
18
38
30
30
30
3E
3E
ENDCHAR
STARTCHAR 03CB
ENCODING 971
SWIDTH 462 0
DWIDTH 9 0
BBX 8 13 2 0
BITMAP
33
33
02
00
63
63
E7
C6
C6
C6
CE
FC
F8
ENDCHAR
STARTCHAR 03CC
ENCODING 972
SWIDTH 462 0
DWIDTH 9 0
BBX 9 14 1 0
BITMAP
0180
0180
0300
0200
0000
1F00
3F80
7380
6380
E380
E300
E700
7E00
7C00
ENDCHAR
STARTCHAR 03CD
ENCODING 973
SWIDTH 462 0
DWIDTH 9 0
BBX 8 14 2 0
BITMAP
02
06
0C
08
00
63
63
E7
C6
C6
C6
CE
FC
F8
ENDCHAR
STARTCHAR 03CE
ENCODING 974
SWIDTH 462 0
DWIDTH 9 0
BBX 9 14 1 0
BITMAP
0100
0300
0600
0400
0000
3180
6180
6180
C180
CD80
D980
D980
FF00
EF00
ENDCHAR
STARTCHAR 0400
ENCODING 1024
SWIDTH 462 0
DWIDTH 9 0
BBX 10 16 1 0
BITMAP
0400
0F00
0300
0000
1FC0
1FC0
3800
3000
3000
3F00
7F00
6000
6000
6000
FF00
FF00
ENDCHAR
STARTCHAR 0401
ENCODING 1025
SWIDTH 462 0
DWIDTH 9 0
BBX 10 16 1 0
BITMAP
0CC0
0CC0
0CC0
0000
1FC0
1FC0
3800
3000
3000
3F00
7F00
6000
6000
6000
FF00
FF00
ENDCHAR
STARTCHAR 0402
ENCODING 1026
SWIDTH 462 0
DWIDTH 9 0
BBX 9 12 1 0
BITMAP
3F80
7F80
1800
3800
3E00
3F00
3B80
7180
7380
6380
6F00
EE00
ENDCHAR
STARTCHAR 0403
ENCODING 1027
SWIDTH 462 0
DWIDTH 9 0
BBX 12 16 0 0
BITMAP
0040
00E0
01C0
0000
07F0
07E0
0E00
0C00
0C00
0C00
1C00
1800
1800
1800
7E00
FE00
ENDCHAR
STARTCHAR 0404
ENCODING 1028
SWIDTH 462 0
DWIDTH 9 0
BBX 9 12 2 0
BITMAP
1F80
3F80
7000
6000
E000
FC00
FC00
C000
C000
E000
FE00
7E00
ENDCHAR
STARTCHAR 0405
ENCODING 1029
SWIDTH 462 0
DWIDTH 9 0
BBX 9 12 1 0
BITMAP
1F80
3F80
3000
3000
3800
3E00
0F00
0700
0300
0300
FF00
FE00
ENDCHAR
STARTCHAR 0406
ENCODING 1030
SWIDTH 462 0
DWIDTH 9 0
BBX 10 12 1 0
BITMAP
3FC0
3FC0
0600
0E00
0E00
0C00
0C00
1C00
1C00
1800
FF00
FE00
ENDCHAR
STARTCHAR 0407
ENCODING 1031
SWIDTH 462 0
DWIDTH 9 0
BBX 10 16 1 0
BITMAP
0CC0
0CC0
0CC0
0000
3FC0
3FC0
0600
0E00
0E00
0C00
0C00
1C00
1C00
1800
FF00
FE00
ENDCHAR
STARTCHAR 0408
ENCODING 1032
SWIDTH 462 0
DWIDTH 9 0
BBX 10 12 1 0
BITMAP
1FC0
1F80
0180
0180
0380
0380
0300
0300
0700
0600
FE00
FC00
ENDCHAR
STARTCHAR 0409
ENCODING 1033
SWIDTH 462 0
DWIDTH 9 0
BBX 10 12 0 0
BITMAP
0F00
1F00
1B00
1B00
1380
17C0
36C0
36C0
24C0
6CC0
CD80
CF00
ENDCHAR
STARTCHAR 040A
ENCODING 1034
SWIDTH 462 0
DWIDTH 9 0
BBX 10 12 0 0
BITMAP
1B00
1B00
1300
3300
3F00
3FC0
26C0
66C0
64C0
6CC0
4D80
CF00
ENDCHAR
STARTCHAR 040B
ENCODING 1035
SWIDTH 462 0
DWIDTH 9 0
BBX 8 12 2 0
BITMAP
7F
FF
30
30
7C
7E
67
67
E7
C6
C6
CE
ENDCHAR
STARTCHAR 040C
ENCODING 1036
SWIDTH 462 0
DWIDTH 9 0
BBX 10 16 1 0
BITMAP
0100
0380
0700
0000
38C0
39C0
3380
3700
7E00
7C00
7C00
6E00
E600
E700
C700
C300
ENDCHAR
STARTCHAR 040D
ENCODING 1037
SWIDTH 462 0
DWIDTH 9 0
BBX 10 16 1 0
BITMAP
0400
0E00
0300
0000
30C0
31C0
33C0
33C0
6780
6D80
6980
7B80
F300
E300
E300
C700
ENDCHAR
STARTCHAR 040E
ENCODING 1038
SWIDTH 462 0
DWIDTH 9 0
BBX 12 16 0 0
BITMAP
0640
07C0
0380
0000
1870
1860
1CE0
1CC0
0DC0
0D80
0F00
0700
0600
0C00
7C00
F800
ENDCHAR
STARTCHAR 040F
ENCODING 1039
SWIDTH 462 0
DWIDTH 9 0
BBX 10 15 1 -3
BITMAP
38C0
30C0
31C0
3180
7180
7180
6380
6380
E300
E300
FF00
FF00
3000
3000
3000
ENDCHAR
STARTCHAR 0410
ENCODING 1040
SWIDTH 462 0
DWIDTH 9 0
BBX 9 12 0 0
BITMAP
0380
0780
0780
0D80
0D80
1980
1980
3F80
3F80
6180
6180
E180
ENDCHAR
STARTCHAR 0411
ENCODING 1041
SWIDTH 462 0
DWIDTH 9 0
BBX 9 12 1 0
BITMAP
3F80
3F80
3000
3000
7E00
7F00
6380
6380
E380
E700
FF00
FC00
ENDCHAR
STARTCHAR 0412
ENCODING 1042
SWIDTH 462 0
DWIDTH 9 0
BBX 9 12 1 0
BITMAP
3F00
3F80
3180
3180
3380
7F00
7F00
6380
6380
E380
FF00
FC00
ENDCHAR
STARTCHAR 0413
ENCODING 1043
SWIDTH 462 0
DWIDTH 9 0
BBX 12 12 0 0
BITMAP
07F0
07E0
0E00
0C00
0C00
0C00
1C00
1800
1800
1800
7E00
FE00
ENDCHAR
STARTCHAR 0414
ENCODING 1044
SWIDTH 462 0
DWIDTH 9 0
BBX 12 15 -1 -3
BITMAP
03F0
03F0
0660
0660
0660
06E0
0CC0
0CC0
18C0
19C0
7FC0
7FC0
60C0
6180
E180
ENDCHAR
STARTCHAR 0415
ENCODING 1045
SWIDTH 462 0
DWIDTH 9 0
BBX 10 12 1 0
BITMAP
1FC0
1FC0
3800
3000
3000
3F00
7F00
6000
6000
6000
FF00
FF00
ENDCHAR
STARTCHAR 0416
ENCODING 1046
SWIDTH 462 0
DWIDTH 9 0
BBX 12 12 0 0
BITMAP
1B30
1B60
1B60
1BC0
0F80
0F80
1F80
3780
2D80
6D80
CD80
CD80
ENDCHAR
STARTCHAR 0417
ENCODING 1047
SWIDTH 462 0
DWIDTH 9 0
BBX 9 12 1 0
BITMAP
3F00
3F80
0180
0180
0380
3E00
3F00
0300
0300
8700
FF00
FC00
ENDCHAR
STARTCHAR 0418
ENCODING 1048
SWIDTH 462 0
DWIDTH 9 0
BBX 10 12 1 0
BITMAP
30C0
31C0
33C0
33C0
6780
6D80
6980
7B80
F300
E300
E300
C700
ENDCHAR
STARTCHAR 0419
ENCODING 1049
SWIDTH 462 0
DWIDTH 9 0
BBX 10 16 1 0
BITMAP
0CC0
0FC0
0780
0000
30C0
31C0
33C0
33C0
6780
6D80
6980
7B80
F300
E300
E300
C700
ENDCHAR
STARTCHAR 041A
ENCODING 1050
SWIDTH 462 0
DWIDTH 9 0
BBX 10 12 1 0
BITMAP
38C0
39C0
3380
3700
7E00
7C00
7C00
6E00
E600
E700
C700
C300
ENDCHAR
STARTCHAR 041B
ENCODING 1051
SWIDTH 462 0
DWIDTH 9 0
BBX 11 12 0 0
BITMAP
07E0
07E0
06E0
0CE0
0CC0
0CC0
1CC0
19C0
3980
3180
F180
E380
ENDCHAR
STARTCHAR 041C
ENCODING 1052
SWIDTH 462 0
DWIDTH 9 0
BBX 11 12 0 0
BITMAP
1C60
1CE0
1CE0
35E0
3540
37C0
36C0
66C0
60C0
6180
6180
C180
ENDCHAR
STARTCHAR 041D
ENCODING 1053
SWIDTH 462 0
DWIDTH 9 0
BBX 10 12 1 0
BITMAP
38C0
30C0
31C0
31C0
7180
7F80
7F80
6380
E300
C300
C700
C700
ENDCHAR
STARTCHAR 041E
ENCODING 1054
SWIDTH 462 0
DWIDTH 9 0
BBX 9 12 1 0
BITMAP
0F00
3F80
3180
7180
6180
6180
E180
E380
E300
E700
7E00
7C00
ENDCHAR
STARTCHAR 041F
ENCODING 1055
SWIDTH 462 0
DWIDTH 9 0
BBX 10 12 1 0
BITMAP
3FC0
3FC0
31C0
31C0
7180
6180
6380
6380
E300
E300
C700
C700
ENDCHAR
STARTCHAR 0420
ENCODING 1056
SWIDTH 462 0
DWIDTH 9 0
BBX 10 12 1 0
BITMAP
1F80
3F80
31C0
31C0
31C0
7380
7F00
7E00
6000
E000
C000
C000
ENDCHAR
STARTCHAR 0421
ENCODING 1057
SWIDTH 462 0
DWIDTH 9 0
BBX 9 12 2 0
BITMAP
1F80
3F80
7000
6000
E000
C000
C000
C000
C000
E000
FE00
7E00
ENDCHAR
STARTCHAR 0422
ENCODING 1058
SWIDTH 462 0
DWIDTH 9 0
BBX 9 12 3 0
BITMAP
FF80
FF00
1800
3800
3000
3000
3000
7000
6000
6000
6000
E000
ENDCHAR
STARTCHAR 0423
ENCODING 1059
SWIDTH 462 0
DWIDTH 9 0
BBX 12 12 0 0
BITMAP
1870
1860
1CE0
1CC0
0DC0
0D80
0F00
0700
0600
0C00
7C00
F800
ENDCHAR
STARTCHAR 0424
ENCODING 1060
SWIDTH 462 0
DWIDTH 9 0
BBX 10 13 1 0
BITMAP
0600
0600
1F80
3780
64C0
6CC0
4C80
CD80
C980
7B00
7E00
3C00
1800
ENDCHAR
STARTCHAR 0425
ENCODING 1061
SWIDTH 462 0
DWIDTH 9 0
BBX 11 12 0 0
BITMAP
1C60
0CE0
0CC0
0F80
0700
0700
0F00
1F00
1B00
3B80
7180
E180
ENDCHAR
STARTCHAR 0426
ENCODING 1062
SWIDTH 462 0
DWIDTH 9 0
BBX 10 15 1 -3
BITMAP
39C0
31C0
3180
3180
7380
6380
6300
6300
E300
C700
FF00
FF00
0300
0600
0600
ENDCHAR
STARTCHAR 0427
ENCODING 1063
SWIDTH 462 0
DWIDTH 9 0
BBX 9 12 2 0
BITMAP
7180
6380
6380
E300
E300
E700
FF00
7E00
0600
0600
0E00
0C00
ENDCHAR
STARTCHAR 0428
ENCODING 1064
SWIDTH 462 0
DWIDTH 9 0
BBX 12 12 0 0
BITMAP
1830
1860
3060
3060
3060
3640
66C0
66C0
6CC0
6CC0
FF80
FF80
ENDCHAR
STARTCHAR 0429
ENCODING 1065
SWIDTH 462 0
DWIDTH 9 0
BBX 10 15 1 -3
BITMAP
30C0
30C0
30C0
60C0
6180
6D80
6D80
C980
DB00
DB00
FF80
FF00
0300
0300
0300
ENDCHAR
STARTCHAR 042A
ENCODING 1066
SWIDTH 462 0
DWIDTH 9 0
BBX 8 12 2 0
BITMAP
78
F0
30
30
7C
7E
67
67
E7
C6
FE
F8
ENDCHAR
STARTCHAR 042B
ENCODING 1067
SWIDTH 462 0
DWIDTH 9 0
BBX 12 12 0 0
BITMAP
1830
1860
1060
3060
3C60
3EC0
26C0
66C0
66C0
6E80
7D80
F980
ENDCHAR
STARTCHAR 042C
ENCODING 1068
SWIDTH 462 0
DWIDTH 9 0
BBX 9 12 1 0
BITMAP
3800
3800
3000
3000
7E00
7F00
6380
6380
6380
E700
FF00
FC00
ENDCHAR
STARTCHAR 042D
ENCODING 1069
SWIDTH 462 0
DWIDTH 9 0
BBX 9 12 1 0
BITMAP
3F00
3F00
0380
0180
0180
1F80
1F80
0380
0300
0700
FE00
FC00
ENDCHAR
STARTCHAR 042E
ENCODING 1070
SWIDTH 462 0
DWIDTH 9 0
BBX 11 12 0 0
BITMAP
19C0
1BE0
1360
3660
3660
3C60
3C40
6CC0
6CC0
6C80
4F80
C700
ENDCHAR
STARTCHAR 042F
ENCODING 1071
SWIDTH 462 0
DWIDTH 9 0
BBX 11 12 0 0
BITMAP
07E0
0FE0
1CE0
18C0
38C0
1DC0
1FC0
1F80
3980
3380
6380
E300
ENDCHAR
STARTCHAR 0430
ENCODING 1072
SWIDTH 462 0
DWIDTH 9 0
BBX 9 9 1 0
BITMAP
1F80
3F80
7380
6300
E300
E300
E700
7F00
7B00
ENDCHAR
STARTCHAR 0431
ENCODING 1073
SWIDTH 462 0
DWIDTH 9 0
BBX 10 13 1 1
BITMAP
07C0
1FC0
3800
3000
7E00
7F00
6380
E380
E380
E380
E700
7E00
7C00
ENDCHAR
STARTCHAR 0432
ENCODING 1074
SWIDTH 462 0
DWIDTH 9 0
BBX 9 9 1 0
BITMAP
1F00
3B80
7380
6700
7E00
6300
E300
FF00
FE00
ENDCHAR
STARTCHAR 0433
ENCODING 1075
SWIDTH 462 0
DWIDTH 9 0
BBX 9 9 1 0
BITMAP
3F00
3F80
0380
0F00
3E00
7000
E000
FE00
7E00
ENDCHAR
STARTCHAR 0434
ENCODING 1076
SWIDTH 462 0
DWIDTH 9 0
BBX 9 13 1 0
BITMAP
3E00
3F00
0380
0180
1F80
3F80
7180
6180
E380
E300
E700
7E00
7C00
ENDCHAR
STARTCHAR 0435
ENCODING 1077
SWIDTH 462 0
DWIDTH 9 0
BBX 9 9 1 0
BITMAP
1F80
3F80
7180
6380
7F00
FC00
6000
7F00
3F00
ENDCHAR
STARTCHAR 0436
ENCODING 1078
SWIDTH 462 0
DWIDTH 9 0
BBX 11 9 0 0
BITMAP
3260
36C0
3680
3780
3F80
3580
2D80
EDC0
C980
ENDCHAR
STARTCHAR 0437
ENCODING 1079
SWIDTH 462 0
DWIDTH 9 0
BBX 9 9 1 0
BITMAP
3F00
3F80
0300
1F00
3E00
0700
0300
FF00
FE00
ENDCHAR
STARTCHAR 0438
ENCODING 1080
SWIDTH 462 0
DWIDTH 9 0
BBX 9 9 1 0
BITMAP
3180
7380
7380
6300
6300
6700
E700
7F00
7B00
ENDCHAR
STARTCHAR 0439
ENCODING 1081
SWIDTH 462 0
DWIDTH 9 0
BBX 9 13 1 0
BITMAP
1980
1F00
0600
0000
3180
7380
7380
6300
6300
6700
E700
7F00
7B00
ENDCHAR
STARTCHAR 043A
ENCODING 1082
SWIDTH 462 0
DWIDTH 9 0
BBX 10 9 1 0
BITMAP
31C0
3380
3600
7C00
7C00
6E00
6600
E700
E700
ENDCHAR
STARTCHAR 043B
ENCODING 1083
SWIDTH 462 0
DWIDTH 9 0
BBX 10 9 0 0
BITMAP
0FC0
0FC0
0DC0
19C0
1980
3980
3380
F380
E300
ENDCHAR
STARTCHAR 043C
ENCODING 1084
SWIDTH 462 0
DWIDTH 9 0
BBX 10 9 0 0
BITMAP
18C0
39C0
39C0
3BC0
6AC0
6EC0
6D80
6180
C180
ENDCHAR
STARTCHAR 043D
ENCODING 1085
SWIDTH 462 0
DWIDTH 9 0
BBX 9 9 1 0
BITMAP
3180
3180
7380
7F80
7F00
6300
E700
E700
C600
ENDCHAR
STARTCHAR 043E
ENCODING 1086
SWIDTH 462 0
DWIDTH 9 0
BBX 9 9 1 0
BITMAP
1F00
3F80
7380
6380
E380
E300
E700
7E00
7C00
ENDCHAR
STARTCHAR 043F
ENCODING 1087
SWIDTH 462 0
DWIDTH 9 0
BBX 9 9 1 0
BITMAP
3F00
3F80
7380
7380
6300
6300
E700
E700
C600
ENDCHAR
STARTCHAR 0440
ENCODING 1088
SWIDTH 462 0
DWIDTH 9 0
BBX 10 12 0 -3
BITMAP
1F80
1FC0
39C0
31C0
31C0
3180
7380
7F00
7E00
6000
E000
E000
ENDCHAR
STARTCHAR 0441
ENCODING 1089
SWIDTH 462 0
DWIDTH 9 0
BBX 9 9 1 0
BITMAP
1F80
3F80
7000
6000
6000
E000
6000
7F00
3F00
ENDCHAR
STARTCHAR 0442
ENCODING 1090
SWIDTH 462 0
DWIDTH 9 0
BBX 9 9 1 0
BITMAP
7F80
7F80
6D80
6D80
CD80
D900
C300
C300
8300
ENDCHAR
STARTCHAR 0443
ENCODING 1091
SWIDTH 462 0
DWIDTH 9 0
BBX 11 12 -1 -3
BITMAP
1C60
1C60
1CE0
0CC0
0DC0
0D80
0F80
0F00
0E00
0E00
7C00
F000
ENDCHAR
STARTCHAR 0444
ENCODING 1092
SWIDTH 462 0
DWIDTH 9 0
BBX 9 16 1 -3
BITMAP
0200
0600
0600
0600
1F00
7F80
6D80
CD80
CD80
D980
DB00
FF00
7C00
3000
3000
3000
ENDCHAR
STARTCHAR 0445
ENCODING 1093
SWIDTH 462 0
DWIDTH 9 0
BBX 9 9 1 0
BITMAP
7180
3300
3F00
1E00
1C00
3E00
7600
6700
C700
ENDCHAR
STARTCHAR 0446
ENCODING 1094
SWIDTH 462 0
DWIDTH 9 0
BBX 9 12 1 -3
BITMAP
3380
7380
6300
6300
6700
E700
E700
FF00
7B00
0300
0300
0700
ENDCHAR
STARTCHAR 0447
ENCODING 1095
SWIDTH 462 0
DWIDTH 9 0
BBX 8 9 2 0
BITMAP
E3
E7
C7
C6
FE
7E
0E
0C
0C
ENDCHAR
STARTCHAR 0448
ENCODING 1096
SWIDTH 462 0
DWIDTH 9 0
BBX 10 9 1 0
BITMAP
60C0
6180
6D80
4D80
C980
DB00
DB00
FF00
FD00
ENDCHAR
STARTCHAR 0449
ENCODING 1097
SWIDTH 462 0
DWIDTH 9 0
BBX 9 12 1 -3
BITMAP
6180
6180
6D80
C980
DB00
DB00
DB00
FF00
FD00
0100
0300
0300
ENDCHAR
STARTCHAR 044A
ENCODING 1098
SWIDTH 462 0
DWIDTH 9 0
BBX 8 9 2 0
BITMAP
F0
F0
60
7E
7E
E7
C7
FE
FC
ENDCHAR
STARTCHAR 044B
ENCODING 1099
SWIDTH 462 0
DWIDTH 9 0
BBX 11 9 0 0
BITMAP
3060
3040
30C0
3CC0
7EC0
6680
6780
7D80
F980
ENDCHAR
STARTCHAR 044C
ENCODING 1100
SWIDTH 462 0
DWIDTH 9 0
BBX 9 9 1 0
BITMAP
3000
3000
7000
7E00
7F00
6380
E300
FF00
FE00
ENDCHAR
STARTCHAR 044D
ENCODING 1101
SWIDTH 462 0
DWIDTH 9 0
BBX 9 9 1 0
BITMAP
3E00
3F00
0380
1F80
3F80
0300
0700
FE00
FC00
ENDCHAR
STARTCHAR 044E
ENCODING 1102
SWIDTH 462 0
DWIDTH 9 0
BBX 10 9 0 0
BITMAP
33C0
37C0
3640
3CC0
7CC0
6CC0
6C80
4F80
C700
ENDCHAR
STARTCHAR 044F
ENCODING 1103
SWIDTH 462 0
DWIDTH 9 0
BBX 10 9 0 0
BITMAP
1FC0
3FC0
30C0
31C0
3F80
1F80
3980
7380
E300
ENDCHAR
STARTCHAR 0450
ENCODING 1104
SWIDTH 462 0
DWIDTH 9 0
BBX 9 13 1 0
BITMAP
0400
0F00
0300
0000
1F80
3F80
7180
6380
7F00
FC00
6000
7F00
3F00
ENDCHAR
STARTCHAR 0451
ENCODING 1105
SWIDTH 462 0
DWIDTH 9 0
BBX 9 13 1 0
BITMAP
1980
1D80
0800
0000
1F80
3F80
7180
6380
7F00
FC00
6000
7F00
3F00
ENDCHAR
STARTCHAR 0452
ENCODING 1106
SWIDTH 462 0
DWIDTH 9 0
BBX 9 16 1 -3
BITMAP
1800
3F00
3E00
3800
3F00
3F80
3380
7380
7300
6300
6700
E700
E600
0600
1E00
3C00
ENDCHAR
STARTCHAR 0453
ENCODING 1107
SWIDTH 462 0
DWIDTH 9 0
BBX 9 13 1 0
BITMAP
0300
0700
0C00
0000
3F00
3F80
0380
0F00
3E00
7000
E000
FE00
7E00
ENDCHAR
STARTCHAR 0454
ENCODING 1108
SWIDTH 462 0
DWIDTH 9 0
BBX 8 9 2 0
BITMAP
3F
7F
E0
FC
FC
C0
E0
FE
7E
ENDCHAR
STARTCHAR 0455
ENCODING 1109
SWIDTH 462 0
DWIDTH 9 0
BBX 9 9 1 0
BITMAP
1F80
3F00
3000
3800
3E00
0700
0700
FE00
FE00
ENDCHAR
STARTCHAR 0456
ENCODING 1110
SWIDTH 462 0
DWIDTH 9 0
BBX 7 13 2 0
BITMAP
1C
1C
08
00
F8
F8
18
38
30
30
30
3E
3E
ENDCHAR
STARTCHAR 0457
ENCODING 1111
SWIDTH 462 0
DWIDTH 9 0
BBX 8 13 2 0
BITMAP
37
77
22
00
F8
F8
18
38
30
30
30
3E
3E
ENDCHAR
STARTCHAR 0458
ENCODING 1112
SWIDTH 462 0
DWIDTH 9 0
BBX 9 16 0 -3
BITMAP
0180
0380
0180
0000
1F80
1F80
0380
0300
0300
0700
0700
0600
0600
0E00
FC00
FC00
ENDCHAR
STARTCHAR 0459
ENCODING 1113
SWIDTH 462 0
DWIDTH 9 0
BBX 10 9 0 0
BITMAP
1F00
1200
3600
3780
37C0
24C0
6CC0
CD80
CF80
ENDCHAR
STARTCHAR 045A
ENCODING 1114
SWIDTH 462 0
DWIDTH 9 0
BBX 10 9 0 0
BITMAP
3200
3600
3600
3F80
7FC0
6CC0
6CC0
4D80
CF00
ENDCHAR
STARTCHAR 045B
ENCODING 1115
SWIDTH 462 0
DWIDTH 9 0
BBX 9 13 1 0
BITMAP
1800
3F00
3E00
3800
3F00
3F80
3380
7380
7300
6300
6700
E700
E600
ENDCHAR
STARTCHAR 045C
ENCODING 1116
SWIDTH 462 0
DWIDTH 9 0
BBX 10 13 1 0
BITMAP
0300
0700
0600
0000
31C0
3380
3600
7C00
7C00
6E00
6600
E700
E700
ENDCHAR
STARTCHAR 045D
ENCODING 1117
SWIDTH 462 0
DWIDTH 9 0
BBX 9 13 1 0
BITMAP
0C00
0E00
0600
0000
3180
7380
7380
6300
6300
6700
E700
7F00
7B00
ENDCHAR
STARTCHAR 045E
ENCODING 1118
SWIDTH 462 0
DWIDTH 9 0
BBX 11 16 -1 -3
BITMAP
0660
07C0
0300
0000
1C60
1C60
1CE0
0CC0
0DC0
0D80
0F80
0F00
0E00
0E00
7C00
F000
ENDCHAR
STARTCHAR 045F
ENCODING 1119
SWIDTH 462 0
DWIDTH 9 0
BBX 9 12 1 -3
BITMAP
3180
7380
7380
6300
6300
6700
E700
7F00
7B00
0000
3800
3000
ENDCHAR
STARTCHAR 0462
ENCODING 1122
SWIDTH 462 0
DWIDTH 9 0
BBX 8 13 2 0
BITMAP
38
7E
7E
30
70
7C
7E
67
E7
E7
C6
FE
F8
ENDCHAR
STARTCHAR 0463
ENCODING 1123
SWIDTH 462 0
DWIDTH 9 0
BBX 10 9 0 0
BITMAP
3C00
3600
2600
6780
67C0
6CC0
6CC0
CD80
CF00
ENDCHAR
STARTCHAR 0472
ENCODING 1138
SWIDTH 462 0
DWIDTH 9 0
BBX 9 12 1 0
BITMAP
0F00
3F80
3180
7180
6180
7D80
EF80
E380
E300
E700
7E00
7C00
ENDCHAR
STARTCHAR 0473
ENCODING 1139
SWIDTH 462 0
DWIDTH 9 0
BBX 9 9 1 0
BITMAP
1F00
3F80
7380
7B80
FF80
E700
E700
7E00
7C00
ENDCHAR
STARTCHAR 0474
ENCODING 1140
SWIDTH 462 0
DWIDTH 9 0
BBX 10 12 2 0
BITMAP
E1C0
E3C0
E300
E600
E600
EE00
EC00
7C00
7800
7000
7000
6000
ENDCHAR
STARTCHAR 0475
ENCODING 1141
SWIDTH 462 0
DWIDTH 9 0
BBX 9 9 2 0
BITMAP
C380
C780
CE00
CC00
D800
D800
F000
7000
6000
ENDCHAR
STARTCHAR 048A
ENCODING 1162
SWIDTH 462 0
DWIDTH 9 0
BBX 10 19 1 -3
BITMAP
0CC0
0F80
0700
0000
31C0
31C0
3380
3780
6580
6D80
7B00
7B00
F300
E300
E780
C700
0300
0600
0C00
ENDCHAR
STARTCHAR 048B
ENCODING 1163
SWIDTH 462 0
DWIDTH 9 0
BBX 9 15 1 -3
BITMAP
1980
1F00
0600
0000
3180
7380
7380
6300
6300
6700
E700
7F00
7B00
0300
0600
ENDCHAR
STARTCHAR 048C
ENCODING 1164
SWIDTH 462 0
DWIDTH 9 0
BBX 9 12 1 0
BITMAP
1800
7E00
7E00
3000
3C00
3F00
7300
6380
6380
6700
FE00
FC00
ENDCHAR
STARTCHAR 048D
ENCODING 1165
SWIDTH 462 0
DWIDTH 9 0
BBX 8 9 2 0
BITMAP
70
FC
60
7C
FE
E7
C6
FE
FC
ENDCHAR
STARTCHAR 048E
ENCODING 1166
SWIDTH 462 0
DWIDTH 9 0
BBX 10 12 1 0
BITMAP
1F80
3F80
31C0
31C0
35C0
7780
7F00
7F00
6300
E200
C000
C000
ENDCHAR
STARTCHAR 048F
ENCODING 1167
SWIDTH 462 0
DWIDTH 9 0
BBX 10 12 0 -3
BITMAP
1F80
1FC0
39C0
30C0
31C0
3780
7780
7F00
7F00
6300
E000
E000
ENDCHAR
STARTCHAR 0490
ENCODING 1168
SWIDTH 462 0
DWIDTH 9 0
BBX 12 14 0 0
BITMAP
0030
0030
07F0
07E0
0E00
0C00
0C00
0C00
1C00
1800
1800
1800
7E00
FE00
ENDCHAR
STARTCHAR 0491
ENCODING 1169
SWIDTH 462 0
DWIDTH 9 0
BBX 10 11 1 0
BITMAP
00C0
01C0
3F80
3F80
3000
3000
7000
7000
6000
6000
E000
ENDCHAR
STARTCHAR 0492
ENCODING 1170
SWIDTH 462 0
DWIDTH 9 0
BBX 12 12 0 0
BITMAP
07F0
07E0
0E00
0C00
0C00
3F80
3F00
1800
1800
1800
7E00
FE00
ENDCHAR
STARTCHAR 0493
ENCODING 1171
SWIDTH 462 0
DWIDTH 9 0
BBX 8 9 1 0
BITMAP
3F
37
03
77
3E
73
E0
7E
7E
ENDCHAR
STARTCHAR 0494
ENCODING 1172
SWIDTH 462 0
DWIDTH 9 0
BBX 9 15 1 -3
BITMAP
3F80
3F80
3000
3000
7C00
7F00
6700
6300
E300
E300
C300
C700
0600
3E00
3800
ENDCHAR
STARTCHAR 0495
ENCODING 1173
SWIDTH 462 0
DWIDTH 9 0
BBX 8 12 1 -3
BITMAP
3F
3F
30
7C
7F
67
63
E3
E3
07
1E
3C
ENDCHAR
STARTCHAR 0496
ENCODING 1174
SWIDTH 462 0
DWIDTH 9 0
BBX 12 15 0 -3
BITMAP
1B30
1B60
1B60
1BC0
0F80
0F80
1F80
3780
2D80
6D80
CDC0
CD80
0080
0180
0180
ENDCHAR
STARTCHAR 0497
ENCODING 1175
SWIDTH 462 0
DWIDTH 9 0
BBX 11 12 0 -3
BITMAP
3260
36C0
3680
3780
3F80
3580
2D80
EDC0
C980
0080
0180
0180
ENDCHAR
STARTCHAR 0498
ENCODING 1176
SWIDTH 462 0
DWIDTH 9 0
BBX 9 15 1 -3
BITMAP
3F00
3F80
0180
0180
0380
3E00
3F00
0300
0300
8700
FF00
FC00
3000
1800
7000
ENDCHAR
STARTCHAR 0499
ENCODING 1177
SWIDTH 462 0
DWIDTH 9 0
BBX 9 12 1 -3
BITMAP
3F00
3F80
0300
1F00
3E00
0700
0300
FF00
FE00
3000
1800
7000
ENDCHAR
STARTCHAR 049A
ENCODING 1178
SWIDTH 462 0
DWIDTH 9 0
BBX 10 15 1 -3
BITMAP
38C0
3980
3380
3700
7E00
7C00
7C00
6E00
E600
E600
C700
C300
0300
0300
0700
ENDCHAR
STARTCHAR 049B
ENCODING 1179
SWIDTH 462 0
DWIDTH 9 0
BBX 9 12 1 -3
BITMAP
3180
3300
3600
7C00
7C00
6E00
6600
E700
E700
0300
0300
0600
ENDCHAR
STARTCHAR 049C
ENCODING 1180
SWIDTH 462 0
DWIDTH 9 0
BBX 12 12 0 0
BITMAP
1870
1860
1AC0
37C0
3580
3F00
3F00
7F00
6980
6180
6180
E180
ENDCHAR
STARTCHAR 049D
ENCODING 1181
SWIDTH 462 0
DWIDTH 9 0
BBX 10 9 1 0
BITMAP
70C0
6D80
6B00
7E00
FE00
DE00
D300
C300
C300
ENDCHAR
STARTCHAR 049E
ENCODING 1182
SWIDTH 462 0
DWIDTH 9 0
BBX 11 13 1 0
BITMAP
1800
18E0
7DC0
3B80
3300
3600
3C00
7C00
6E00
6600
6700
E300
C300
ENDCHAR
STARTCHAR 049F
ENCODING 1183
SWIDTH 462 0
DWIDTH 9 0
BBX 10 10 1 0
BITMAP
3800
7DC0
3380
3600
7C00
7C00
6E00
6600
E700
C300
ENDCHAR
STARTCHAR 04A0
ENCODING 1184
SWIDTH 462 0
DWIDTH 9 0
BBX 10 12 2 0
BITMAP
79C0
F380
3300
3600
7C00
7800
7C00
6C00
EE00
CE00
C600
C600
ENDCHAR
STARTCHAR 04A1
ENCODING 1185
SWIDTH 462 0
DWIDTH 9 0
BBX 9 9 2 0
BITMAP
F380
F700
6E00
7C00
7800
FC00
CC00
CE00
C600
ENDCHAR
STARTCHAR 04A2
ENCODING 1186
SWIDTH 462 0
DWIDTH 9 0
BBX 10 15 1 -3
BITMAP
39C0
31C0
3180
3180
7380
7F80
7F00
6300
E300
C700
C700
C700
0300
0600
0600
ENDCHAR
STARTCHAR 04A3
ENCODING 1187
SWIDTH 462 0
DWIDTH 9 0
BBX 9 12 1 -3
BITMAP
3180
3380
7380
7F00
7F00
6700
E700
E700
C700
0300
0600
0600
ENDCHAR
STARTCHAR 04A4
ENCODING 1188
SWIDTH 462 0
DWIDTH 9 0
BBX 11 12 1 0
BITMAP
39E0
31E0
3180
3380
7380
7F00
7F00
6700
E700
C600
C600
C600
ENDCHAR
STARTCHAR 04A5
ENCODING 1189
SWIDTH 462 0
DWIDTH 9 0
BBX 10 9 1 0
BITMAP
33C0
33C0
7700
7F00
7E00
6600
E600
EE00
CC00
ENDCHAR
STARTCHAR 04A6
ENCODING 1190
SWIDTH 462 0
DWIDTH 9 0
BBX 10 15 0 -3
BITMAP
1F00
1F00
1300
3600
3780
37C0
26C0
64C0
6CC0
6CC0
6D80
C980
0180
0700
0E00
ENDCHAR
STARTCHAR 04A7
ENCODING 1191
SWIDTH 462 0
DWIDTH 9 0
BBX 10 12 0 -3
BITMAP
3E00
3600
6600
6700
6780
6CC0
CCC0
CC80
CD80
0180
0700
0600
ENDCHAR
STARTCHAR 04A8
ENCODING 1192
SWIDTH 462 0
DWIDTH 9 0
BBX 9 15 1 -3
BITMAP
0F80
1F80
3800
7300
6780
ED80
CD80
D980
D980
DB00
7F00
3C00
1800
0F00
0600
ENDCHAR
STARTCHAR 04A9
ENCODING 1193
SWIDTH 462 0
DWIDTH 9 0
BBX 9 12 1 -3
BITMAP
1F00
3E00
6000
6700
CD80
D980
D980
7F00
3E00
1C00
0E00
0200
ENDCHAR
STARTCHAR 04AA
ENCODING 1194
SWIDTH 462 0
DWIDTH 9 0
BBX 9 15 2 -3
BITMAP
1F80
3F80
7000
6000
E000
C000
C000
C000
C000
E000
FE00
7E00
3000
1800
7000
ENDCHAR
STARTCHAR 04AB
ENCODING 1195
SWIDTH 462 0
DWIDTH 9 0
BBX 9 12 1 -3
BITMAP
1F80
3F80
7000
6000
6000
E000
6000
7F00
3F00
1800
0C00
3C00
ENDCHAR
STARTCHAR 04AC
ENCODING 1196
SWIDTH 462 0
DWIDTH 9 0
BBX 9 15 3 -3
BITMAP
FF80
FF00
1800
3800
3000
3000
3000
7000
6000
6000
7000
F000
7000
6000
6000
ENDCHAR
STARTCHAR 04AD
ENCODING 1197
SWIDTH 462 0
DWIDTH 9 0
BBX 9 12 1 -3
BITMAP
7F80
7F80
6D80
6D80
C980
DB00
C300
C380
8300
0300
0300
0300
ENDCHAR
STARTCHAR 04AE
ENCODING 1198
SWIDTH 462 0
DWIDTH 9 0
BBX 9 12 3 0
BITMAP
C380
C300
C600
EE00
6C00
7800
7800
7000
7000
6000
6000
E000
ENDCHAR
STARTCHAR 04AF
ENCODING 1199
SWIDTH 462 0
DWIDTH 9 0
BBX 9 12 2 -3
BITMAP
E380
E300
E700
E600
6E00
6C00
7800
7800
7000
7000
6000
6000
ENDCHAR
STARTCHAR 04B0
ENCODING 1200
SWIDTH 462 0
DWIDTH 9 0
BBX 10 12 2 0
BITMAP
61C0
6180
6300
7700
3600
3C00
3C00
FE00
FE00
3000
3000
7000
ENDCHAR
STARTCHAR 04B1
ENCODING 1201
SWIDTH 462 0
DWIDTH 9 0
BBX 10 12 1 -3
BITMAP
71C0
7180
7380
7300
3700
3600
3C00
FE00
FE00
3800
3000
3000
ENDCHAR
STARTCHAR 04B2
ENCODING 1202
SWIDTH 462 0
DWIDTH 9 0
BBX 10 14 1 -3
BITMAP
31C0
1980
1B00
1E00
1E00
1C00
1C00
3600
7600
6700
C700
0300
0600
0600
ENDCHAR
STARTCHAR 04B3
ENCODING 1203
SWIDTH 462 0
DWIDTH 9 0
BBX 9 12 1 -3
BITMAP
7380
3300
3E00
1C00
1C00
3C00
7E00
E700
C700
0300
0600
0600
ENDCHAR
STARTCHAR 04B4
ENCODING 1204
SWIDTH 462 0
DWIDTH 9 0
BBX 10 15 1 -3
BITMAP
3EC0
7EC0
18C0
3980
3180
3180
3180
7300
6300
6300
7F80
FF00
0300
0300
0300
ENDCHAR
STARTCHAR 04B5
ENCODING 1205
SWIDTH 462 0
DWIDTH 9 0
BBX 8 12 2 -3
BITMAP
FB
FB
63
66
C6
C6
C6
FE
7E
06
06
06
ENDCHAR
STARTCHAR 04B6
ENCODING 1206
SWIDTH 462 0
DWIDTH 9 0
BBX 9 15 2 -3
BITMAP
6380
6380
6300
E300
E700
E700
FE00
7E00
0E00
0E00
0E00
0E00
0600
0C00
0C00
ENDCHAR
STARTCHAR 04B7
ENCODING 1207
SWIDTH 462 0
DWIDTH 9 0
BBX 8 12 2 -3
BITMAP
63
E7
E6
C6
FE
7E
0C
0E
0E
0E
0C
0C
ENDCHAR
STARTCHAR 04B8
ENCODING 1208
SWIDTH 462 0
DWIDTH 9 0
BBX 9 12 2 0
BITMAP
6180
6180
6380
E380
EB00
FB00
FF00
7F00
1600
3600
0600
0E00
ENDCHAR
STARTCHAR 04B9
ENCODING 1209
SWIDTH 462 0
DWIDTH 9 0
BBX 9 9 2 0
BITMAP
6380
E300
C300
D700
FF00
7E00
3600
2E00
0E00
ENDCHAR
STARTCHAR 04BA
ENCODING 1210
SWIDTH 462 0
DWIDTH 9 0
BBX 9 12 1 0
BITMAP
3800
3800
3000
3000
7F00
7F00
6380
6380
E300
E300
C300
C700
ENDCHAR
STARTCHAR 04BB
ENCODING 1211
SWIDTH 462 0
DWIDTH 9 0
BBX 9 13 1 0
BITMAP
1800
1800
3800
3800
3F00
3F80
7380
7380
6300
6300
E700
E700
C600
ENDCHAR
STARTCHAR 04BC
ENCODING 1212
SWIDTH 462 0
DWIDTH 9 0
BBX 9 12 2 0
BITMAP
0F00
1F80
1980
B980
B180
FF80
7F00
7000
6000
7000
3E00
3E00
ENDCHAR
STARTCHAR 04BD
ENCODING 1213
SWIDTH 462 0
DWIDTH 9 0
BBX 9 9 1 0
BITMAP
0780
0F80
D880
D980
FF00
3C00
3000
3F00
1F00
ENDCHAR
STARTCHAR 04BE
ENCODING 1214
SWIDTH 462 0
DWIDTH 9 0
BBX 9 15 2 -3
BITMAP
0F00
1F80
1980
B980
B180
FF80
7F00
7000
6000
7000
3E00
3E00
1800
1800
1000
ENDCHAR
STARTCHAR 04BF
ENCODING 1215
SWIDTH 462 0
DWIDTH 9 0
BBX 9 12 1 -3
BITMAP
0780
0F80
D880
D980
FF00
3C00
3000
3F00
1F00
0C00
0C00
1800
ENDCHAR
STARTCHAR 04C0
ENCODING 1216
SWIDTH 462 0
DWIDTH 9 0
BBX 10 12 1 0
BITMAP
3FC0
3FC0
0600
0E00
0E00
0C00
0C00
1C00
1C00
1800
FF00
FE00
ENDCHAR
STARTCHAR 04C1
ENCODING 1217
SWIDTH 462 0
DWIDTH 9 0
BBX 12 16 0 0
BITMAP
0660
07E0
03C0
0000
1B30
1B60
1B60
1BC0
0F80
0F80
1F80
3780
2D80
6D80
CD80
CD80
ENDCHAR
STARTCHAR 04C2
ENCODING 1218
SWIDTH 462 0
DWIDTH 9 0
BBX 11 13 0 0
BITMAP
0CC0
07C0
0300
0000
3260
36C0
3680
3780
3F80
3580
2D80
EDC0
C980
ENDCHAR
STARTCHAR 04C3
ENCODING 1219
SWIDTH 462 0
DWIDTH 9 0
BBX 11 15 1 -3
BITMAP
38E0
39C0
3380
3700
7E00
7E00
7F00
6380
E380
E380
C380
C300
0700
3E00
3C00
ENDCHAR
STARTCHAR 04C4
ENCODING 1220
SWIDTH 462 0
DWIDTH 9 0
BBX 10 12 1 -3
BITMAP
31C0
3300
7E00
7C00
7F00
6700
E300
E300
C300
0700
3E00
3C00
ENDCHAR
STARTCHAR 04C5
ENCODING 1221
SWIDTH 462 0
DWIDTH 9 0
BBX 11 15 0 -3
BITMAP
07E0
07E0
06C0
0CC0
0DC0
0DC0
1D80
1980
3980
3380
F380
E380
0180
0300
0600
ENDCHAR
STARTCHAR 04C6
ENCODING 1222
SWIDTH 462 0
DWIDTH 9 0
BBX 10 11 0 -3
BITMAP
0FC0
0FC0
0DC0
19C0
1980
3980
3380
F3C0
E380
0180
0300
ENDCHAR
STARTCHAR 04C7
ENCODING 1223
SWIDTH 462 0
DWIDTH 9 0
BBX 10 15 1 -3
BITMAP
38C0
30C0
31C0
31C0
7180
7F80
7F80
6380
E300
C300
C700
C700
0600
1E00
3C00
ENDCHAR
STARTCHAR 04C8
ENCODING 1224
SWIDTH 462 0
DWIDTH 9 0
BBX 9 12 1 -3
BITMAP
3180
3180
7380
7F80
7F00
6300
E700
E700
C600
0600
1E00
3C00
ENDCHAR
STARTCHAR 04C9
ENCODING 1225
SWIDTH 462 0
DWIDTH 9 0
BBX 10 15 1 -3
BITMAP
39C0
31C0
3180
3180
7380
7F80
7F00
6300
E700
C700
C700
C700
0300
0600
0C00
ENDCHAR
STARTCHAR 04CA
ENCODING 1226
SWIDTH 462 0
DWIDTH 9 0
BBX 9 11 1 -3
BITMAP
3180
3180
7380
7F80
7F00
6300
E700
E780
C700
0300
0600
ENDCHAR
STARTCHAR 04CB
ENCODING 1227
SWIDTH 462 0
DWIDTH 9 0
BBX 9 15 2 -3
BITMAP
7180
6380
6380
E300
E300
E700
FF00
7E00
0600
0600
1E00
1C00
1800
1800
3800
ENDCHAR
STARTCHAR 04CC
ENCODING 1228
SWIDTH 462 0
DWIDTH 9 0
BBX 8 12 2 -3
BITMAP
E3
E7
C7
C6
FE
7E
0E
1C
1C
18
30
30
ENDCHAR
STARTCHAR 04CD
ENCODING 1229
SWIDTH 462 0
DWIDTH 9 0
BBX 11 15 0 -3
BITMAP
1CE0
1CE0
1DC0
3540
3FC0
3EC0
3EC0
6CC0
6180
6180
6180
C180
0180
0300
0600
ENDCHAR
STARTCHAR 04CE
ENCODING 1230
SWIDTH 462 0
DWIDTH 9 0
BBX 10 11 0 -3
BITMAP
18C0
39C0
3BC0
2A80
6F80
6D80
6D80
61C0
C380
0180
0300
ENDCHAR
STARTCHAR 04CF
ENCODING 1231
SWIDTH 462 0
DWIDTH 9 0
BBX 10 12 1 0
BITMAP
3FC0
3FC0
0600
0E00
0E00
0C00
0C00
1C00
1C00
1800
FF00
FE00
ENDCHAR
STARTCHAR 04D0
ENCODING 1232
SWIDTH 462 0
DWIDTH 9 0
BBX 11 16 0 0
BITMAP
0660
07E0
0380
0000
0380
0780
0780
0D80
0D80
1980
1980
3F80
3F80
6180
6180
E180
ENDCHAR
STARTCHAR 04D1
ENCODING 1233
SWIDTH 462 0
DWIDTH 9 0
BBX 10 13 1 0
BITMAP
0CC0
0F80
0300
0000
1F80
3F80
7380
6300
E300
E300
E700
7F00
7B00
ENDCHAR
STARTCHAR 04D2
ENCODING 1234
SWIDTH 462 0
DWIDTH 9 0
BBX 11 16 0 0
BITMAP
0660
0EE0
0440
0000
0380
0780
0780
0D80
0D80
1980
1980
3F80
3F80
6180
6180
E180
ENDCHAR
STARTCHAR 04D3
ENCODING 1235
SWIDTH 462 0
DWIDTH 9 0
BBX 10 13 1 0
BITMAP
0CC0
0DC0
0880
0000
1F80
3F80
7380
6300
E300
E300
E700
7F00
7B00
ENDCHAR
STARTCHAR 04D4
ENCODING 1236
SWIDTH 462 0
DWIDTH 9 0
BBX 12 12 0 0
BITMAP
03F0
07E0
0780
0D80
0F00
1BC0
3BC0
3F00
7F00
6600
E7C0
C780
ENDCHAR
STARTCHAR 04D5
ENCODING 1237
SWIDTH 462 0
DWIDTH 9 0
BBX 10 9 1 0
BITMAP
7B80
5EC0
0CC0
3D80
7F00
DE00
9800
FF00
EF00
ENDCHAR
STARTCHAR 04D6
ENCODING 1238
SWIDTH 462 0
DWIDTH 9 0
BBX 10 16 1 0
BITMAP
0CC0
0FC0
0780
0000
1FC0
1FC0
3800
3000
3000
3F00
7F00
6000
6000
6000
FF00
FF00
ENDCHAR
STARTCHAR 04D7
ENCODING 1239
SWIDTH 462 0
DWIDTH 9 0
BBX 9 13 1 0
BITMAP
0D80
0F80
0600
0000
1F80
3F80
7180
6380
7F00
FC00
6000
7F00
3F00
ENDCHAR
STARTCHAR 04D8
ENCODING 1240
SWIDTH 462 0
DWIDTH 9 0
BBX 9 12 1 0
BITMAP
3F00
3F80
0180
0180
0180
7F80
FF80
C180
C380
E300
7E00
7C00
ENDCHAR
STARTCHAR 04D9
ENCODING 1241
SWIDTH 462 0
DWIDTH 9 0
BBX 9 9 1 0
BITMAP
7F00
3F00
0380
1F80
7F80
E300
C700
FE00
7C00
ENDCHAR
STARTCHAR 04DA
ENCODING 1242
SWIDTH 462 0
DWIDTH 9 0
BBX 9 16 1 0
BITMAP
0980
1D80
1980
0000
3F00
3F80
0180
0180
0180
7F80
FF80
C180
C380
E300
7E00
7C00
ENDCHAR
STARTCHAR 04DB
ENCODING 1243
SWIDTH 462 0
DWIDTH 9 0
BBX 9 13 1 0
BITMAP
1980
1B80
1100
0000
7F00
3F00
0380
1F80
7F80
E300
C700
FE00
7C00
ENDCHAR
STARTCHAR 04DC
ENCODING 1244
SWIDTH 462 0
DWIDTH 9 0
BBX 12 16 0 0
BITMAP
0660
0660
0660
0000
1B30
1B60
1B60
1BC0
0F80
0F80
1F80
3780
2D80
6D80
CD80
CD80
ENDCHAR
STARTCHAR 04DD
ENCODING 1245
SWIDTH 462 0
DWIDTH 9 0
BBX 11 13 0 0
BITMAP
0CC0
0CC0
0000
0000
3260
36C0
3680
3780
3F80
3580
2D80
EDC0
C980
ENDCHAR
STARTCHAR 04DE
ENCODING 1246
SWIDTH 462 0
DWIDTH 9 0
BBX 10 16 1 0
BITMAP
0880
1DC0
0980
0000
3F00
3F80
0180
0180
0380
3E00
3F00
0300
0300
8700
FF00
FC00
ENDCHAR
STARTCHAR 04DF
ENCODING 1247
SWIDTH 462 0
DWIDTH 9 0
BBX 9 13 1 0
BITMAP
1980
1D80
0000
0000
3F00
3F80
0300
1F00
3E00
0700
0300
FF00
FE00
ENDCHAR
STARTCHAR 04E0
ENCODING 1248
SWIDTH 462 0
DWIDTH 9 0
BBX 10 12 1 0
BITMAP
1FC0
3FC0
0380
0700
0E00
1E00
0700
0300
0300
0300
FF00
FE00
ENDCHAR
STARTCHAR 04E1
ENCODING 1249
SWIDTH 462 0
DWIDTH 9 0
BBX 10 12 0 -3
BITMAP
1FC0
3FC0
0380
0700
0C00
1E00
0700
0300
0300
0700
FF00
FC00
ENDCHAR
STARTCHAR 04E2
ENCODING 1250
SWIDTH 462 0
DWIDTH 9 0
BBX 10 15 1 0
BITMAP
0FC0
0000
0000
30C0
31C0
33C0
33C0
6780
6D80
6980
7B80
F300
E300
E300
C700
ENDCHAR
STARTCHAR 04E3
ENCODING 1251
SWIDTH 462 0
DWIDTH 9 0
BBX 9 13 1 0
BITMAP
1F80
1F80
0000
0000
3180
7380
7380
6300
6300
6700
E700
7F00
7B00
ENDCHAR
STARTCHAR 04E4
ENCODING 1252
SWIDTH 462 0
DWIDTH 9 0
BBX 10 16 1 0
BITMAP
0CC0
0DC0
0C80
0000
30C0
31C0
33C0
33C0
6780
6D80
6980
7B80
F300
E300
E300
C700
ENDCHAR
STARTCHAR 04E5
ENCODING 1253
SWIDTH 462 0
DWIDTH 9 0
BBX 9 13 1 0
BITMAP
1980
1980
0100
0000
3180
7380
7380
6300
6300
6700
E700
7F00
7B00
ENDCHAR
STARTCHAR 04E6
ENCODING 1254
SWIDTH 462 0
DWIDTH 9 0
BBX 10 16 1 0
BITMAP
0CC0
1DC0
0880
0000
0F00
3F80
3180
7180
6180
6180
E180
E380
E300
E700
7E00
7C00
ENDCHAR
STARTCHAR 04E7
ENCODING 1255
SWIDTH 462 0
DWIDTH 9 0
BBX 9 13 1 0
BITMAP
1980
1980
0100
0000
1F00
3F80
7380
6380
E380
E300
E700
7E00
7C00
ENDCHAR
STARTCHAR 04E8
ENCODING 1256
SWIDTH 462 0
DWIDTH 9 0
BBX 10 12 1 0
BITMAP
0F00
3F80
3180
71C0
6180
7F80
FF80
E380
E380
E700
7E00
7C00
ENDCHAR
STARTCHAR 04E9
ENCODING 1257
SWIDTH 462 0
DWIDTH 9 0
BBX 9 9 1 0
BITMAP
1F00
3F00
7380
6380
FF80
E300
E700
7E00
7C00
ENDCHAR
STARTCHAR 04EA
ENCODING 1258
SWIDTH 462 0
DWIDTH 9 0
BBX 10 16 1 0
BITMAP
0CC0
1DC0
0880
0000
0F00
3F80
3180
71C0
6180
7F80
FF80
E380
E380
E700
7E00
7C00
ENDCHAR
STARTCHAR 04EB
ENCODING 1259
SWIDTH 462 0
DWIDTH 9 0
BBX 9 13 1 0
BITMAP
1980
1980
0100
0000
1F00
3F00
7380
6380
FF80
E300
E700
7E00
7C00
ENDCHAR
STARTCHAR 04EC
ENCODING 1260
SWIDTH 462 0
DWIDTH 9 0
BBX 10 16 1 0
BITMAP
0C80
1DC0
0880
0000
3F00
3F00
0380
0180
0180
1F80
1F80
0380
0300
0700
FE00
FC00
ENDCHAR
STARTCHAR 04ED
ENCODING 1261
SWIDTH 462 0
DWIDTH 9 0
BBX 9 13 1 0
BITMAP
1980
1980
0000
0000
3E00
3F00
0380
1F80
3F80
0300
0700
FE00
FC00
ENDCHAR
STARTCHAR 04EE
ENCODING 1262
SWIDTH 462 0
DWIDTH 9 0
BBX 12 15 0 0
BITMAP
07E0
0000
0000
1870
1860
1CE0
1CC0
0DC0
0D80
0F00
0700
0600
0C00
7C00
F800
ENDCHAR
STARTCHAR 04EF
ENCODING 1263
SWIDTH 462 0
DWIDTH 9 0
BBX 11 16 -1 -3
BITMAP
07E0
07E0
0000
0000
1C60
1C60
1CE0
0CC0
0DC0
0D80
0F80
0F00
0E00
0E00
7C00
F000
ENDCHAR
STARTCHAR 04F0
ENCODING 1264
SWIDTH 462 0
DWIDTH 9 0
BBX 12 16 0 0
BITMAP
0660
0660
0660
0000
1870
1860
1CE0
1CC0
0DC0
0D80
0F00
0700
0600
0C00
7C00
F800
ENDCHAR
STARTCHAR 04F1
ENCODING 1265
SWIDTH 462 0
DWIDTH 9 0
BBX 11 16 -1 -3
BITMAP
0660
06E0
0440
0000
1C60
1C60
1CE0
0CC0
0DC0
0D80
0F80
0F00
0E00
0E00
7C00
F000
ENDCHAR
STARTCHAR 04F2
ENCODING 1266
SWIDTH 462 0
DWIDTH 9 0
BBX 13 16 0 0
BITMAP
0110
03B8
0660
0000
1870
1860
1CE0
1CC0
0DC0
0D80
0F00
0700
0600
0C00
7C00
F800
ENDCHAR
STARTCHAR 04F3
ENCODING 1267
SWIDTH 462 0
DWIDTH 9 0
BBX 12 16 -1 -3
BITMAP
0190
0370
0660
0000
1C60
1C60
1CE0
0CC0
0DC0
0D80
0F80
0F00
0E00
0E00
7C00
F000
ENDCHAR
STARTCHAR 04F4
ENCODING 1268
SWIDTH 462 0
DWIDTH 9 0
BBX 9 16 2 0
BITMAP
1100
3B80
1300
0000
7180
6380
6380
E300
E300
E700
FF00
7E00
0600
0600
0E00
0C00
ENDCHAR
STARTCHAR 04F5
ENCODING 1269
SWIDTH 462 0
DWIDTH 9 0
BBX 8 13 2 0
BITMAP
33
33
00
00
E3
E7
C7
C6
FE
7E
0E
0C
0C
ENDCHAR
STARTCHAR 04F6
ENCODING 1270
SWIDTH 462 0
DWIDTH 9 0
BBX 12 15 0 -3
BITMAP
07F0
07E0
0E00
0C00
0C00
0C00
1C00
1800
1800
1800
7E00
FE00
0600
0E00
0C00
ENDCHAR
STARTCHAR 04F7
ENCODING 1271
SWIDTH 462 0
DWIDTH 9 0
BBX 9 12 1 -3
BITMAP
3F00
3F80
0380
0F00
3E00
7000
E000
FF00
7E00
0600
0600
0E00
ENDCHAR
STARTCHAR 04F8
ENCODING 1272
SWIDTH 462 0
DWIDTH 9 0
BBX 12 16 0 0
BITMAP
0640
0EE0
0440
0000
1830
1860
1060
3060
3C60
3EC0
26C0
66C0
66C0
6E80
7D80
F980
ENDCHAR
STARTCHAR 04F9
ENCODING 1273
SWIDTH 462 0
DWIDTH 9 0
BBX 11 13 0 0
BITMAP
0CC0
0CC0
0000
0000
3060
3040
30C0
3CC0
7EC0
6680
6780
7D80
F980
ENDCHAR
STARTCHAR 1E80
ENCODING 7808
SWIDTH 462 0
DWIDTH 9 0
BBX 11 16 1 0
BITMAP
0400
0F00
0300
0000
3060
30C0
70C0
60C0
6CC0
6D80
7D80
D580
F500
E700
E700
C700
ENDCHAR
STARTCHAR 1E81
ENCODING 7809
SWIDTH 462 0
DWIDTH 9 0
BBX 10 13 1 0
BITMAP
0C00
0E00
0200
0000
60C0
60C0
6D80
4D80
DD80
D500
F700
E600
C600
ENDCHAR
STARTCHAR 1E82
ENCODING 7810
SWIDTH 462 0
DWIDTH 9 0
BBX 11 16 1 0
BITMAP
0180
0380
0700
0000
3060
30C0
70C0
60C0
6CC0
6D80
7D80
D580
F500
E700
E700
C700
ENDCHAR
STARTCHAR 1E83
ENCODING 7811
SWIDTH 462 0
DWIDTH 9 0
BBX 10 13 1 0
BITMAP
0300
0700
0400
0000
60C0
60C0
6D80
4D80
DD80
D500
F700
E600
C600
ENDCHAR
STARTCHAR 1E84
ENCODING 7812
SWIDTH 462 0
DWIDTH 9 0
BBX 11 16 1 0
BITMAP
0CC0
0CC0
0CC0
0000
3060
30C0
70C0
60C0
6CC0
6D80
7D80
D580
F500
E700
E700
C700
ENDCHAR
STARTCHAR 1E85
ENCODING 7813
SWIDTH 462 0
DWIDTH 9 0
BBX 10 13 1 0
BITMAP
1980
1D80
0800
0000
60C0
60C0
6D80
4D80
DD80
D500
F700
E600
C600
ENDCHAR
STARTCHAR 1EF2
ENCODING 7922
SWIDTH 462 0
DWIDTH 9 0
BBX 9 16 3 0
BITMAP
1000
3800
0C00
0000
C380
C300
C600
EE00
6C00
7800
7800
7000
7000
6000
6000
E000
ENDCHAR
STARTCHAR 1EF3
ENCODING 7923
SWIDTH 462 0
DWIDTH 9 0
BBX 11 16 -1 -3
BITMAP
0300
0780
0180
0000
1C60
1C60
1CE0
0CC0
0DC0
0D80
0F80
0F00
0E00
0E00
7C00
F000
ENDCHAR
STARTCHAR 1F00
ENCODING 7936
SWIDTH 462 0
DWIDTH 9 0
BBX 9 14 1 0
BITMAP
0300
0300
0200
0400
0000
1F80
3F80
7380
6300
E300
E300
E700
7F00
7F00
ENDCHAR
STARTCHAR 1F01
ENCODING 7937
SWIDTH 462 0
DWIDTH 9 0
BBX 9 14 1 0
BITMAP
0700
0600
0200
0200
0000
1F80
3F80
7380
6300
E300
E300
E700
7F00
7F00
ENDCHAR
STARTCHAR 1F02
ENCODING 7938
SWIDTH 462 0
DWIDTH 9 0
BBX 10 14 1 0
BITMAP
0D80
0D80
08C0
1000
0000
1F80
3F80
7380
6300
E300
E300
E700
7F00
7F00
ENDCHAR
STARTCHAR 1F03
ENCODING 7939
SWIDTH 462 0
DWIDTH 9 0
BBX 9 14 1 0
BITMAP
1F00
1980
0980
0880
0000
1F80
3F80
7380
6300
E300
E300
E700
7F00
7F00
ENDCHAR
STARTCHAR 1F04
ENCODING 7940
SWIDTH 462 0
DWIDTH 9 0
BBX 10 14 1 0
BITMAP
0E40
0EC0
0D80
0900
0000
1F80
3F80
7380
6300
E300
E300
E700
7F00
7F00
ENDCHAR
STARTCHAR 1F05
ENCODING 7941
SWIDTH 462 0
DWIDTH 9 0
BBX 10 14 1 0
BITMAP
1CC0
1980
0980
0100
0000
1F80
3F80
7380
6300
E300
E300
E700
7F00
7F00
ENDCHAR
STARTCHAR 1F06
ENCODING 7942
SWIDTH 462 0
DWIDTH 9 0
BBX 10 16 1 0
BITMAP
0380
07C0
0CC0
0300
0300
0200
0000
1F80
3F80
7380
6300
E300
E300
E700
7F00
7F00
ENDCHAR
STARTCHAR 1F07
ENCODING 7943
SWIDTH 462 0
DWIDTH 9 0
BBX 10 16 1 0
BITMAP
0780
0FC0
0CC0
0300
0200
0100
0000
1F80
3F80
7380
6300
E300
E300
E700
7F00
7F00
ENDCHAR
STARTCHAR 1F08
ENCODING 7944
SWIDTH 462 0
DWIDTH 9 0
BBX 9 12 0 0
BITMAP
3380
3780
3780
2D80
0D80
1980
1980
3F80
3F80
6180
6180
E180
ENDCHAR
STARTCHAR 1F09
ENCODING 7945
SWIDTH 462 0
DWIDTH 9 0
BBX 9 12 0 0
BITMAP
7380
6780
2780
2D80
0D80
1980
1980
3F80
3F80
6180
6180
E180
ENDCHAR
STARTCHAR 1F0A
ENCODING 7946
SWIDTH 462 0
DWIDTH 9 0
BBX 12 12 -3 0
BITMAP
6C70
6CF0
46F0
85B0
01B0
0330
0330
07F0
07F0
0C30
0C30
1C30
ENDCHAR
STARTCHAR 1F0B
ENCODING 7947
SWIDTH 462 0
DWIDTH 9 0
BBX 12 12 -3 0
BITMAP
6C70
ECF0
44F0
25B0
01B0
0330
0330
07F0
07F0
0C30
0C30
1C30
ENDCHAR
STARTCHAR 1F0C
ENCODING 7948
SWIDTH 462 0
DWIDTH 9 0
BBX 11 12 -2 0
BITMAP
E4E0
EDE0
D9E0
9360
0360
0660
0660
0FE0
0FE0
1860
1860
3860
ENDCHAR
STARTCHAR 1F0D
ENCODING 7949
SWIDTH 462 0
DWIDTH 9 0
BBX 11 12 -2 0
BITMAP
C4E0
CDE0
D9E0
5360
0360
0660
0660
0FE0
0FE0
1860
1860
3860
ENDCHAR
STARTCHAR 1F0E
ENCODING 7950
SWIDTH 462 0
DWIDTH 9 0
BBX 10 14 -1 0
BITMAP
3800
6C00
C5C0
33C0
33C0
26C0
06C0
0CC0
0CC0
1FC0
1FC0
30C0
30C0
70C0
ENDCHAR
STARTCHAR 1F0F
ENCODING 7951
SWIDTH 462 0
DWIDTH 9 0
BBX 10 14 -1 0
BITMAP
3800
6C00
C5C0
33C0
23C0
16C0
06C0
0CC0
0CC0
1FC0
1FC0
30C0
30C0
70C0
ENDCHAR
STARTCHAR 1F10
ENCODING 7952
SWIDTH 462 0
DWIDTH 9 0
BBX 9 14 1 0
BITMAP
0300
0300
0200
0400
0000
1F80
3F80
3000
3E00
3E00
6000
E000
7F00
7F00
ENDCHAR
STARTCHAR 1F11
ENCODING 7953
SWIDTH 462 0
DWIDTH 9 0
BBX 9 14 1 0
BITMAP
0700
0600
0200
0200
0000
1F80
3F80
3000
3E00
3E00
6000
E000
7F00
7F00
ENDCHAR
STARTCHAR 1F12
ENCODING 7954
SWIDTH 462 0
DWIDTH 9 0
BBX 10 14 1 0
BITMAP
0D80
0D80
08C0
1000
0000
1F80
3F80
3000
3E00
3E00
6000
E000
7F00
7F00
ENDCHAR
STARTCHAR 1F13
ENCODING 7955
SWIDTH 462 0
DWIDTH 9 0
BBX 9 14 1 0
BITMAP
1F00
1980
0980
0880
0000
1F80
3F80
3000
3E00
3E00
6000
E000
7F00
7F00
ENDCHAR
STARTCHAR 1F14
ENCODING 7956
SWIDTH 462 0
DWIDTH 9 0
BBX 10 14 1 0
BITMAP
0E40
0EC0
0D80
0900
0000
1F80
3F80
3000
3E00
3E00
6000
E000
7F00
7F00
ENDCHAR
STARTCHAR 1F15
ENCODING 7957
SWIDTH 462 0
DWIDTH 9 0
BBX 10 14 1 0
BITMAP
1CC0
1980
0980
0100
0000
1F80
3F80
3000
3E00
3E00
6000
E000
7F00
7F00
ENDCHAR
STARTCHAR 1F18
ENCODING 7960
SWIDTH 462 0
DWIDTH 9 0
BBX 11 12 0 0
BITMAP
EFE0
6FE0
DC00
9800
1800
1F80
3F80
3000
3000
3000
7F80
7F80
ENDCHAR
STARTCHAR 1F19
ENCODING 7961
SWIDTH 462 0
DWIDTH 9 0
BBX 11 12 0 0
BITMAP
CFE0
CFE0
DC00
5800
1800
1F80
3F80
3000
3000
3000
7F80
7F80
ENDCHAR
STARTCHAR 1F1A
ENCODING 7962
SWIDTH 462 0
DWIDTH 9 0
BBX 15 12 -4 0
BITMAP
ECFE
ECFE
C5C0
8580
0180
01F8
03F8
0300
0300
0300
07F8
07F8
ENDCHAR
STARTCHAR 1F1B
ENCODING 7963
SWIDTH 462 0
DWIDTH 9 0
BBX 15 12 -4 0
BITMAP
ECFE
CCFE
45C0
0580
0180
01F8
03F8
0300
0300
0300
07F8
07F8
ENDCHAR
STARTCHAR 1F1C
ENCODING 7964
SWIDTH 462 0
DWIDTH 9 0
BBX 15 12 -4 0
BITMAP
E6FE
6CFE
D9C0
8180
0180
01F8
03F8
0300
0300
0300
07F8
07F8
ENDCHAR
STARTCHAR 1F1D
ENCODING 7965
SWIDTH 462 0
DWIDTH 9 0
BBX 15 12 -4 0
BITMAP
E6FE
CCFE
D9C0
4180
0180
01F8
03F8
0300
0300
0300
07F8
07F8
ENDCHAR
STARTCHAR 1F20
ENCODING 7968
SWIDTH 462 0
DWIDTH 9 0
BBX 9 17 1 -3
BITMAP
0300
0300
0200
0400
0000
3F00
3F80
7380
7380
6300
6300
E700
E700
C600
0600
0E00
0E00
ENDCHAR
STARTCHAR 1F21
ENCODING 7969
SWIDTH 462 0
DWIDTH 9 0
BBX 9 17 1 -3
BITMAP
0700
0600
0200
0200
0000
3F00
3F80
7380
7380
6300
6300
E700
E700
C600
0600
0E00
0E00
ENDCHAR
STARTCHAR 1F22
ENCODING 7970
SWIDTH 462 0
DWIDTH 9 0
BBX 10 17 1 -3
BITMAP
0D80
0D80
08C0
1000
0000
3F00
3F80
7380
7380
6300
6300
E700
E700
C600
0600
0E00
0E00
ENDCHAR
STARTCHAR 1F23
ENCODING 7971
SWIDTH 462 0
DWIDTH 9 0
BBX 9 17 1 -3
BITMAP
1F00
1980
0980
0880
0000
3F00
3F80
7380
7380
6300
6300
E700
E700
C600
0600
0E00
0E00
ENDCHAR
STARTCHAR 1F24
ENCODING 7972
SWIDTH 462 0
DWIDTH 9 0
BBX 10 17 1 -3
BITMAP
0E40
0EC0
0D80
0900
0000
3F00
3F80
7380
7380
6300
6300
E700
E700
C600
0600
0E00
0E00
ENDCHAR
STARTCHAR 1F25
ENCODING 7973
SWIDTH 462 0
DWIDTH 9 0
BBX 10 17 1 -3
BITMAP
1CC0
1980
0980
0100
0000
3F00
3F80
7380
7380
6300
6300
E700
E700
C600
0600
0E00
0E00
ENDCHAR
STARTCHAR 1F26
ENCODING 7974
SWIDTH 462 0
DWIDTH 9 0
BBX 10 19 1 -3
BITMAP
0780
0F80
0CC0
0300
0300
0400
0000
3F00
3F80
7380
7380
6300
6300
E700
E700
C600
0600
0E00
0E00
ENDCHAR
STARTCHAR 1F27
ENCODING 7975
SWIDTH 462 0
DWIDTH 9 0
BBX 9 19 1 -3
BITMAP
0780
0F80
0880
0300
0200
0200
0000
3F00
3F80
7380
7380
6300
6300
E700
E700
C600
0600
0E00
0E00
ENDCHAR
STARTCHAR 1F28
ENCODING 7976
SWIDTH 462 0
DWIDTH 9 0
BBX 12 12 -1 0
BITMAP
6E30
6C30
6C70
8C70
1C60
1FE0
1FE0
18E0
38C0
30C0
31C0
31C0
ENDCHAR
STARTCHAR 1F29
ENCODING 7977
SWIDTH 462 0
DWIDTH 9 0
BBX 12 12 -1 0
BITMAP
EE30
CC30
4C70
0C70
1C60
1FE0
1FE0
18E0
38C0
30C0
31C0
31C0
ENDCHAR
STARTCHAR 1F2A
ENCODING 7978
SWIDTH 462 0
DWIDTH 9 0
BBX 16 12 -5 0
BITMAP
6CE3
64C3
46C7
80C7
01C6
01FE
01FE
018E
038C
030C
031C
031C
ENDCHAR
STARTCHAR 1F2B
ENCODING 7979
SWIDTH 462 0
DWIDTH 9 0
BBX 15 12 -4 0
BITMAP
D9C6
C986
CD8E
458E
038C
03FC
03FC
031C
0718
0618
0638
0638
ENDCHAR
STARTCHAR 1F2C
ENCODING 7980
SWIDTH 462 0
DWIDTH 9 0
BBX 15 12 -4 0
BITMAP
CDC6
CD86
D98E
118E
038C
03FC
03FC
031C
0718
0618
0638
0638
ENDCHAR
STARTCHAR 1F2D
ENCODING 7981
SWIDTH 462 0
DWIDTH 9 0
BBX 15 12 -4 0
BITMAP
CDC6
CD86
D98E
518E
038C
03FC
03FC
031C
0718
0618
0638
0638
ENDCHAR
STARTCHAR 1F2E
ENCODING 7982
SWIDTH 462 0
DWIDTH 9 0
BBX 14 14 -3 0
BITMAP
7800
F800
8B8C
330C
231C
431C
0718
07F8
07F8
0638
0E30
0C30
0C70
0C70
ENDCHAR
STARTCHAR 1F2F
ENCODING 7983
SWIDTH 462 0
DWIDTH 9 0
BBX 14 14 -3 0
BITMAP
7800
F800
8B8C
330C
231C
031C
0718
07F8
07F8
0638
0E30
0C30
0C70
0C70
ENDCHAR
STARTCHAR 1F30
ENCODING 7984
SWIDTH 462 0
DWIDTH 9 0
BBX 7 14 2 0
BITMAP
0E
06
0C
08
00
F8
F8
18
38
30
30
30
3E
3E
ENDCHAR
STARTCHAR 1F31
ENCODING 7985
SWIDTH 462 0
DWIDTH 9 0
BBX 7 14 2 0
BITMAP
0C
0C
0C
04
00
F8
F8
18
38
30
30
30
3E
3E
ENDCHAR
STARTCHAR 1F32
ENCODING 7986
SWIDTH 462 0
DWIDTH 9 0
BBX 9 14 2 0
BITMAP
1B00
1B00
1180
2100
0000
F800
F800
1800
3800
3000
3000
3000
3E00
3E00
ENDCHAR
STARTCHAR 1F33
ENCODING 7987
SWIDTH 462 0
DWIDTH 9 0
BBX 8 14 2 0
BITMAP
36
33
33
11
00
F8
F8
18
38
30
30
30
3E
3E
ENDCHAR
STARTCHAR 1F34
ENCODING 7988
SWIDTH 462 0
DWIDTH 9 0
BBX 9 14 2 0
BITMAP
1C80
1980
1B00
1200
0000
F800
F800
1800
3800
3000
3000
3000
3E00
3E00
ENDCHAR
STARTCHAR 1F35
ENCODING 7989
SWIDTH 462 0
DWIDTH 9 0
BBX 9 14 2 0
BITMAP
3980
3300
1600
1000
0000
F800
F800
1800
3800
3000
3000
3000
3E00
3E00
ENDCHAR
STARTCHAR 1F36
ENCODING 7990
SWIDTH 462 0
DWIDTH 9 0
BBX 8 16 2 0
BITMAP
0E
1F
11
0C
04
08
00
F8
F8
18
38
30
30
30
3E
3E
ENDCHAR
STARTCHAR 1F37
ENCODING 7991
SWIDTH 462 0
DWIDTH 9 0
BBX 8 16 2 0
BITMAP
0E
1B
11
0C
0C
04
00
F8
F8
18
38
30
30
30
3E
3E
ENDCHAR
STARTCHAR 1F38
ENCODING 7992
SWIDTH 462 0
DWIDTH 9 0
BBX 11 12 0 0
BITMAP
DFE0
DFE0
C300
0700
0700
0600
0600
0E00
0E00
0C00
7F80
7F00
ENDCHAR
STARTCHAR 1F39
ENCODING 7993
SWIDTH 462 0
DWIDTH 9 0
BBX 11 12 0 0
BITMAP
DFE0
DFE0
C300
4700
0700
0600
0600
0E00
0E00
0C00
7F80
7F00
ENDCHAR
STARTCHAR 1F3A
ENCODING 7994
SWIDTH 462 0
DWIDTH 9 0
BBX 15 12 -4 0
BITMAP
D9FE
CDFE
CC30
8470
0070
0060
0060
00E0
00E0
00C0
07F8
07F0
ENDCHAR
STARTCHAR 1F3B
ENCODING 7995
SWIDTH 462 0
DWIDTH 9 0
BBX 15 12 -4 0
BITMAP
EDFE
EDFE
4430
0470
0070
0060
0060
00E0
00E0
00C0
07F8
07F0
ENDCHAR
STARTCHAR 1F3C
ENCODING 7996
SWIDTH 462 0
DWIDTH 9 0
BBX 15 12 -4 0
BITMAP
E5FE
CDFE
D830
9070
0070
0060
0060
00E0
00E0
00C0
07F8
07F0
ENDCHAR
STARTCHAR 1F3D
ENCODING 7997
SWIDTH 462 0
DWIDTH 9 0
BBX 15 12 -4 0
BITMAP
CDFE
CDFE
D830
5070
0070
0060
0060
00E0
00E0
00C0
07F8
07F0
ENDCHAR
STARTCHAR 1F3E
ENCODING 7998
SWIDTH 462 0
DWIDTH 9 0
BBX 14 14 -3 0
BITMAP
3800
7C00
CFFC
33FC
3060
60E0
00E0
00C0
00C0
01C0
01C0
0180
0FF0
0FE0
ENDCHAR
STARTCHAR 1F3F
ENCODING 7999
SWIDTH 462 0
DWIDTH 9 0
BBX 14 14 -3 0
BITMAP
3800
7C00
CFFC
33FC
2060
10E0
00E0
00C0
00C0
01C0
01C0
0180
0FF0
0FE0
ENDCHAR
STARTCHAR 1F40
ENCODING 8000
SWIDTH 462 0
DWIDTH 9 0
BBX 9 14 1 0
BITMAP
0300
0300
0200
0400
0000
1F00
3F80
7380
6380
E380
E300
E700
7E00
7C00
ENDCHAR
STARTCHAR 1F41
ENCODING 8001
SWIDTH 462 0
DWIDTH 9 0
BBX 9 14 1 0
BITMAP
0700
0600
0200
0200
0000
1F00
3F80
7380
6380
E380
E300
E700
7E00
7C00
ENDCHAR
STARTCHAR 1F42
ENCODING 8002
SWIDTH 462 0
DWIDTH 9 0
BBX 10 14 1 0
BITMAP
0D80
0D80
08C0
1000
0000
1F00
3F80
7380
6380
E380
E300
E700
7E00
7C00
ENDCHAR
STARTCHAR 1F43
ENCODING 8003
SWIDTH 462 0
DWIDTH 9 0
BBX 9 14 1 0
BITMAP
1F00
1980
0980
0880
0000
1F00
3F80
7380
6380
E380
E300
E700
7E00
7C00
ENDCHAR
STARTCHAR 1F44
ENCODING 8004
SWIDTH 462 0
DWIDTH 9 0
BBX 10 14 1 0
BITMAP
0E40
0EC0
0D80
0900
0000
1F00
3F80
7380
6380
E380
E300
E700
7E00
7C00
ENDCHAR
STARTCHAR 1F45
ENCODING 8005
SWIDTH 462 0
DWIDTH 9 0
BBX 10 14 1 0
BITMAP
1CC0
1980
0980
0100
0000
1F00
3F80
7380
6380
E380
E300
E700
7E00
7C00
ENDCHAR
STARTCHAR 1F48
ENCODING 8008
SWIDTH 462 0
DWIDTH 9 0
BBX 10 12 0 0
BITMAP
C780
DFC0
D8C0
B8C0
30C0
30C0
70C0
71C0
7180
7380
3F00
3E00
ENDCHAR
STARTCHAR 1F49
ENCODING 8009
SWIDTH 462 0
DWIDTH 9 0
BBX 11 12 -1 0
BITMAP
E3C0
CFE0
4C60
5C60
1860
1860
3860
38E0
38C0
39C0
1F80
1F00
ENDCHAR
STARTCHAR 1F4A
ENCODING 8010
SWIDTH 462 0
DWIDTH 9 0
BBX 15 12 -5 0
BITMAP
6C3C
6CFE
46C6
85C6
0186
0186
0386
038E
038C
039C
01F8
01F0
ENDCHAR
STARTCHAR 1F4B
ENCODING 8011
SWIDTH 462 0
DWIDTH 9 0
BBX 15 12 -4 0
BITMAP
D878
D9FC
CD8C
4B8E
030C
030C
070C
071C
071C
0738
03F0
03E0
ENDCHAR
STARTCHAR 1F4C
ENCODING 8012
SWIDTH 462 0
DWIDTH 9 0
BBX 14 12 -4 0
BITMAP
E678
6DFC
D98C
838C
030C
030C
070C
071C
0718
0738
03F0
03E0
ENDCHAR
STARTCHAR 1F4D
ENCODING 8013
SWIDTH 462 0
DWIDTH 9 0
BBX 14 12 -4 0
BITMAP
E678
CFFC
4D8C
0B8C
030C
030C
070C
071C
0718
0738
03F0
03E0
ENDCHAR
STARTCHAR 1F50
ENCODING 8016
SWIDTH 462 0
DWIDTH 9 0
BBX 8 14 2 0
BITMAP
06
06
04
08
00
63
63
E7
C6
C6
C6
CE
FC
F8
ENDCHAR
STARTCHAR 1F51
ENCODING 8017
SWIDTH 462 0
DWIDTH 9 0
BBX 8 14 2 0
BITMAP
0C
0C
0C
04
00
63
63
E7
C6
C6
C6
CE
FC
F8
ENDCHAR
STARTCHAR 1F52
ENCODING 8018
SWIDTH 462 0
DWIDTH 9 0
BBX 8 14 2 0
BITMAP
3B
1B
31
21
00
63
63
E7
C6
C6
C6
CE
FC
F8
ENDCHAR
STARTCHAR 1F53
ENCODING 8019
SWIDTH 462 0
DWIDTH 9 0
BBX 8 14 2 0
BITMAP
36
36
33
10
00
63
63
E7
C6
C6
C6
CE
FC
F8
ENDCHAR
STARTCHAR 1F54
ENCODING 8020
SWIDTH 462 0
DWIDTH 9 0
BBX 9 14 2 0
BITMAP
1980
1980
1B00
0200
0000
6300
6300
E700
C600
C600
C600
CE00
FC00
F800
ENDCHAR
STARTCHAR 1F55
ENCODING 8021
SWIDTH 462 0
DWIDTH 9 0
BBX 9 14 2 0
BITMAP
3980
3300
1600
1000
0000
6300
6300
E700
C600
C600
C600
CE00
FC00
F800
ENDCHAR
STARTCHAR 1F56
ENCODING 8022
SWIDTH 462 0
DWIDTH 9 0
BBX 8 16 2 0
BITMAP
0F
1F
11
06
04
08
00
63
63
E7
C6
C6
C6
CE
FC
F8
ENDCHAR
STARTCHAR 1F57
ENCODING 8023
SWIDTH 462 0
DWIDTH 9 0
BBX 8 16 2 0
BITMAP
0E
1F
11
0C
04
04
00
63
63
E7
C6
C6
C6
CE
FC
F8
ENDCHAR
STARTCHAR 1F59
ENCODING 8025
SWIDTH 462 0
DWIDTH 9 0
BBX 13 12 -1 0
BITMAP
EC38
CC30
4C60
0EE0
06C0
0780
0780
0700
0700
0600
0600
0E00
ENDCHAR
STARTCHAR 1F5B
ENCODING 8027
SWIDTH 462 0
DWIDTH 9 0
BBX 16 12 -4 0
BITMAP
D987
CD86
CD8C
45DC
00D8
00F0
00F0
00E0
00E0
00C0
00C0
01C0
ENDCHAR
STARTCHAR 1F5D
ENCODING 8029
SWIDTH 462 0
DWIDTH 9 0
BBX 17 12 -5 0
BITMAP
E6C380
CCC300
4CC600
08EE00
006C00
007800
007800
007000
007000
006000
006000
00E000
ENDCHAR
STARTCHAR 1F5F
ENCODING 8031
SWIDTH 462 0
DWIDTH 9 0
BBX 15 14 -3 0
BITMAP
7000
D800
8B0E
630C
6318
23B8
01B0
01E0
01E0
01C0
01C0
0180
0180
0380
ENDCHAR
STARTCHAR 1F60
ENCODING 8032
SWIDTH 462 0
DWIDTH 9 0
BBX 9 14 1 0
BITMAP
0300
0300
0200
0400
0000
3180
6180
6180
C180
CD80
D980
D980
FF00
EF00
ENDCHAR
STARTCHAR 1F61
ENCODING 8033
SWIDTH 462 0
DWIDTH 9 0
BBX 9 14 1 0
BITMAP
0600
0600
0600
0200
0000
3180
6180
6180
C180
CD80
D980
D980
FF00
EF00
ENDCHAR
STARTCHAR 1F62
ENCODING 8034
SWIDTH 462 0
DWIDTH 9 0
BBX 9 14 1 0
BITMAP
1D80
0D80
1880
1080
0000
3180
6180
6180
C180
CD80
D980
D980
FF00
EF00
ENDCHAR
STARTCHAR 1F63
ENCODING 8035
SWIDTH 462 0
DWIDTH 9 0
BBX 9 14 1 0
BITMAP
1B00
1B00
1980
0800
0000
3180
6180
6180
C180
CD80
D980
D980
FF00
EF00
ENDCHAR
STARTCHAR 1F64
ENCODING 8036
SWIDTH 462 0
DWIDTH 9 0
BBX 10 14 1 0
BITMAP
0CC0
0DC0
0980
1100
0000
3180
6180
6180
C180
CD80
D980
D980
FF00
EF00
ENDCHAR
STARTCHAR 1F65
ENCODING 8037
SWIDTH 462 0
DWIDTH 9 0
BBX 9 14 1 0
BITMAP
1880
1980
1B00
0A00
0000
3180
6180
6180
C180
CD80
D980
D980
FF00
EF00
ENDCHAR
STARTCHAR 1F66
ENCODING 8038
SWIDTH 462 0
DWIDTH 9 0
BBX 9 16 1 0
BITMAP
0780
0F80
0880
0300
0200
0400
0000
3180
6180
6180
C180
CD80
D980
D980
FF00
EF00
ENDCHAR
STARTCHAR 1F67
ENCODING 8039
SWIDTH 462 0
DWIDTH 9 0
BBX 9 16 1 0
BITMAP
0700
0F80
0880
0600
0200
0200
0000
3180
6180
6180
C180
CD80
D980
D980
FF00
EF00
ENDCHAR
STARTCHAR 1F68
ENCODING 8040
SWIDTH 462 0
DWIDTH 9 0
BBX 12 12 -1 0
BITMAP
67E0
6FE0
4C70
9870
1870
1860
1860
18E0
18C0
1980
7BC0
7BC0
ENDCHAR
STARTCHAR 1F69
ENCODING 8041
SWIDTH 462 0
DWIDTH 9 0
BBX 12 12 -1 0
BITMAP
C7E0
CFE0
CC70
5870
1870
1860
1860
18E0
18C0
1980
7BC0
7BC0
ENDCHAR
STARTCHAR 1F6A
ENCODING 8042
SWIDTH 462 0
DWIDTH 9 0
BBX 16 12 -5 0
BITMAP
EC7E
6CFE
C4C7
8587
0187
0186
0186
018E
018C
0198
07BC
07BC
ENDCHAR
STARTCHAR 1F6B
ENCODING 8043
SWIDTH 462 0
DWIDTH 9 0
BBX 16 12 -5 0
BITMAP
EC7E
ECFE
44C7
2587
0187
0186
0186
018E
018C
0198
07BC
07BC
ENDCHAR
STARTCHAR 1F6C
ENCODING 8044
SWIDTH 462 0
DWIDTH 9 0
BBX 15 12 -4 0
BITMAP
E4FC
EDFC
D98E
930E
030E
030C
030C
031C
0318
0330
0F78
0F78
ENDCHAR
STARTCHAR 1F6D
ENCODING 8045
SWIDTH 462 0
DWIDTH 9 0
BBX 15 12 -4 0
BITMAP
C4FC
CDFC
D98E
530E
030E
030C
030C
031C
0318
0330
0F78
0F78
ENDCHAR
STARTCHAR 1F6E
ENCODING 8046
SWIDTH 462 0
DWIDTH 9 0
BBX 13 14 -2 0
BITMAP
7000
D800
8BF0
67F0
2638
4C38
0C38
0C30
0C30
0C70
0C60
0CC0
3DE0
3DE0
ENDCHAR
STARTCHAR 1F6F
ENCODING 8047
SWIDTH 462 0
DWIDTH 9 0
BBX 13 14 -2 0
BITMAP
7000
D800
8BF0
67F0
4638
2C38
0C38
0C30
0C30
0C70
0C60
0CC0
3DE0
3DE0
ENDCHAR
STARTCHAR 1F70
ENCODING 8048
SWIDTH 462 0
DWIDTH 9 0
BBX 9 14 1 0
BITMAP
0400
0600
0780
0100
0000
1F80
3F80
7380
6300
E300
E300
E700
7F00
7F00
ENDCHAR
STARTCHAR 1F71
ENCODING 8049
SWIDTH 462 0
DWIDTH 9 0
BBX 9 13 1 1
BITMAP
0380
0700
0400
0000
1F80
3F80
7380
6300
E300
E300
E700
7F00
7F00
ENDCHAR
STARTCHAR 1F72
ENCODING 8050
SWIDTH 462 0
DWIDTH 9 0
BBX 9 14 1 0
BITMAP
0400
0600
0780
0100
0000
1F80
3F80
3000
3E00
3E00
6000
E000
7F00
7F00
ENDCHAR
STARTCHAR 1F73
ENCODING 8051
SWIDTH 462 0
DWIDTH 9 0
BBX 9 13 1 1
BITMAP
0380
0700
0400
0000
1F80
3F80
3000
3E00
3E00
6000
E000
7F00
7F00
ENDCHAR
STARTCHAR 1F74
ENCODING 8052
SWIDTH 462 0
DWIDTH 9 0
BBX 9 16 1 -2
BITMAP
0E00
0700
0100
0000
3F00
3F80
7380
7380
6300
6300
E700
E700
C600
0600
0E00
0E00
ENDCHAR
STARTCHAR 1F75
ENCODING 8053
SWIDTH 462 0
DWIDTH 9 0
BBX 9 16 1 -2
BITMAP
0380
0700
0400
0000
3F00
3F80
7380
7380
6300
6300
E700
E700
C600
0600
0E00
0E00
ENDCHAR
STARTCHAR 1F76
ENCODING 8054
SWIDTH 462 0
DWIDTH 9 0
BBX 7 13 2 1
BITMAP
1C
0E
02
00
F8
F8
18
38
30
30
30
3E
3E
ENDCHAR
STARTCHAR 1F77
ENCODING 8055
SWIDTH 462 0
DWIDTH 9 0
BBX 7 14 2 0
BITMAP
02
06
1E
08
00
F8
F8
18
38
30
30
30
3E
3E
ENDCHAR
STARTCHAR 1F78
ENCODING 8056
SWIDTH 462 0
DWIDTH 9 0
BBX 9 14 1 0
BITMAP
0400
0600
0780
0100
0000
1F00
3F80
7380
6380
E380
E300
E700
7E00
7C00
ENDCHAR
STARTCHAR 1F79
ENCODING 8057
SWIDTH 462 0
DWIDTH 9 0
BBX 9 13 1 1
BITMAP
0380
0700
0400
0000
1F00
3F80
7380
6380
E380
E300
E700
7E00
7C00
ENDCHAR
STARTCHAR 1F7A
ENCODING 8058
SWIDTH 462 0
DWIDTH 9 0
BBX 8 13 2 1
BITMAP
1C
0E
02
00
63
63
E7
C6
C6
C6
CE
FC
F8
ENDCHAR
STARTCHAR 1F7B
ENCODING 8059
SWIDTH 462 0
DWIDTH 9 0
BBX 8 13 2 1
BITMAP
07
0E
08
00
63
63
E7
C6
C6
C6
CE
FC
F8
ENDCHAR
STARTCHAR 1F7C
ENCODING 8060
SWIDTH 462 0
DWIDTH 9 0
BBX 9 13 1 1
BITMAP
0C00
0F00
0300
0000
3180
6180
6180
C180
CD80
D980
D980
FF00
EF00
ENDCHAR
STARTCHAR 1F7D
ENCODING 8061
SWIDTH 462 0
DWIDTH 9 0
BBX 9 14 1 0
BITMAP
0100
0300
0F00
0400
0000
3180
6180
6180
C180
CD80
D980
D980
FF00
EF00
ENDCHAR
STARTCHAR 1F80
ENCODING 8064
SWIDTH 462 0
DWIDTH 9 0
BBX 9 17 1 -3
BITMAP
0300
0300
0200
0400
0000
1F80
3F80
7380
6300
E300
E300
E700
7F00
7F00
0000
3000
3800
ENDCHAR
STARTCHAR 1F81
ENCODING 8065
SWIDTH 462 0
DWIDTH 9 0
BBX 9 17 1 -3
BITMAP
0700
0600
0200
0200
0000
1F80
3F80
7380
6300
E300
E300
E700
7F00
7F00
0000
3000
3800
ENDCHAR
STARTCHAR 1F82
ENCODING 8066
SWIDTH 462 0
DWIDTH 9 0
BBX 10 17 1 -3
BITMAP
0D80
0D80
08C0
1000
0000
1F80
3F80
7380
6300
E300
E300
E700
7F00
7F00
0000
3000
3800
ENDCHAR
STARTCHAR 1F83
ENCODING 8067
SWIDTH 462 0
DWIDTH 9 0
BBX 9 17 1 -3
BITMAP
1F00
1980
0980
0880
0000
1F80
3F80
7380
6300
E300
E300
E700
7F00
7F00
0000
3000
3800
ENDCHAR
STARTCHAR 1F84
ENCODING 8068
SWIDTH 462 0
DWIDTH 9 0
BBX 10 17 1 -3
BITMAP
0E40
0EC0
0D80
0900
0000
1F80
3F80
7380
6300
E300
E300
E700
7F00
7F00
0000
3000
3800
ENDCHAR
STARTCHAR 1F85
ENCODING 8069
SWIDTH 462 0
DWIDTH 9 0
BBX 10 17 1 -3
BITMAP
1CC0
1980
0980
0100
0000
1F80
3F80
7380
6300
E300
E300
E700
7F00
7F00
0000
3000
3800
ENDCHAR
STARTCHAR 1F86
ENCODING 8070
SWIDTH 462 0
DWIDTH 9 0
BBX 10 19 1 -3
BITMAP
0380
07C0
0CC0
0300
0300
0200
0000
1F80
3F80
7380
6300
E300
E300
E700
7F00
7F00
0000
3000
3800
ENDCHAR
STARTCHAR 1F87
ENCODING 8071
SWIDTH 462 0
DWIDTH 9 0
BBX 10 19 1 -3
BITMAP
0780
0FC0
0CC0
0300
0200
0100
0000
1F80
3F80
7380
6300
E300
E300
E700
7F00
7F00
0000
3000
3800
ENDCHAR
STARTCHAR 1F88
ENCODING 8072
SWIDTH 462 0
DWIDTH 9 0
BBX 11 12 0 0
BITMAP
6E00
6E00
4A00
9E60
1EC0
36C0
36C0
3EC0
7E80
6780
C7C0
C6C0
ENDCHAR
STARTCHAR 1F89
ENCODING 8073
SWIDTH 462 0
DWIDTH 9 0
BBX 11 12 0 0
BITMAP
EE00
CE00
CA00
5E60
1EC0
36C0
36C0
3EC0
7E80
6780
C7C0
C6C0
ENDCHAR
STARTCHAR 1F8A
ENCODING 8074
SWIDTH 462 0
DWIDTH 9 0
BBX 15 12 -4 0
BITMAP
ECE0
6CE0
C4A0
85E6
01EC
036C
036C
03EC
07E8
0678
0C7C
0C6C
ENDCHAR
STARTCHAR 1F8B
ENCODING 8075
SWIDTH 462 0
DWIDTH 9 0
BBX 15 12 -4 0
BITMAP
ECE0
CCE0
44A0
05E6
01EC
036C
036C
03EC
07E8
0678
0C7C
0C6C
ENDCHAR
STARTCHAR 1F8C
ENCODING 8076
SWIDTH 462 0
DWIDTH 9 0
BBX 14 12 -3 0
BITMAP
E5C0
CDC0
D940
93CC
03D8
06D8
06D8
07D8
0FD0
0CF0
18F8
18D8
ENDCHAR
STARTCHAR 1F8D
ENCODING 8077
SWIDTH 462 0
DWIDTH 9 0
BBX 14 12 -3 0
BITMAP
C5C0
CDC0
D940
53CC
03D8
06D8
06D8
07D8
0FD0
0CF0
18F8
18D8
ENDCHAR
STARTCHAR 1F8E
ENCODING 8078
SWIDTH 462 0
DWIDTH 9 0
BBX 13 14 -2 0
BITMAP
7800
FC00
CF80
3380
3280
6798
07B0
0DB0
0DB0
0FB0
1FA0
19E0
31F0
31B0
ENDCHAR
STARTCHAR 1F8F
ENCODING 8079
SWIDTH 462 0
DWIDTH 9 0
BBX 13 14 -2 0
BITMAP
7800
FC00
CF80
3380
2280
1798
07B0
0DB0
0DB0
0FB0
1FA0
19E0
31F0
31B0
ENDCHAR
STARTCHAR 1F90
ENCODING 8080
SWIDTH 462 0
DWIDTH 9 0
BBX 9 17 1 -3
BITMAP
0300
0300
0200
0400
0000
3F00
3F80
7380
7380
6300
6300
E700
E700
C600
0600
CE00
EE00
ENDCHAR
STARTCHAR 1F91
ENCODING 8081
SWIDTH 462 0
DWIDTH 9 0
BBX 9 17 1 -3
BITMAP
0700
0600
0200
0200
0000
3F00
3F80
7380
7380
6300
6300
E700
E700
C600
0600
CE00
EE00
ENDCHAR
STARTCHAR 1F92
ENCODING 8082
SWIDTH 462 0
DWIDTH 9 0
BBX 9 17 1 -3
BITMAP
1D80
0D80
1880
1080
0000
3F00
3F80
7380
7380
6300
6300
E700
E700
C600
0600
CE00
EE00
ENDCHAR
STARTCHAR 1F93
ENCODING 8083
SWIDTH 462 0
DWIDTH 9 0
BBX 9 17 1 -3
BITMAP
1B00
1B00
1980
0800
0000
3F00
3F80
7380
7380
6300
6300
E700
E700
C600
0600
CE00
EE00
ENDCHAR
STARTCHAR 1F94
ENCODING 8084
SWIDTH 462 0
DWIDTH 9 0
BBX 10 17 1 -3
BITMAP
0CC0
0CC0
0D80
0100
0000
3F00
3F80
7380
7380
6300
6300
E700
E700
C600
0600
CE00
EE00
ENDCHAR
STARTCHAR 1F95
ENCODING 8085
SWIDTH 462 0
DWIDTH 9 0
BBX 9 17 1 -3
BITMAP
1880
1980
1B00
0A00
0000
3F00
3F80
7380
7380
6300
6300
E700
E700
C600
0600
CE00
EE00
ENDCHAR
STARTCHAR 1F96
ENCODING 8086
SWIDTH 462 0
DWIDTH 9 0
BBX 10 19 1 -3
BITMAP
0780
0F80
0CC0
0300
0300
0400
0000
3F00
3F80
7380
7380
6300
6300
E700
E700
C600
0600
CE00
EE00
ENDCHAR
STARTCHAR 1F97
ENCODING 8087
SWIDTH 462 0
DWIDTH 9 0
BBX 9 19 1 -3
BITMAP
0780
0F80
0880
0300
0200
0200
0000
3F00
3F80
7380
7380
6300
6300
E700
E700
C600
0600
CE00
EE00
ENDCHAR
STARTCHAR 1F98
ENCODING 8088
SWIDTH 462 0
DWIDTH 9 0
BBX 12 12 -1 0
BITMAP
ECC0
6980
D980
99B0
19E0
1F60
3F60
3360
3340
32C0
66E0
6660
ENDCHAR
STARTCHAR 1F99
ENCODING 8089
SWIDTH 462 0
DWIDTH 9 0
BBX 12 12 -1 0
BITMAP
CCC0
C980
D980
59B0
19E0
1F60
3F60
3360
3340
32C0
66E0
6660
ENDCHAR
STARTCHAR 1F9A
ENCODING 8090
SWIDTH 462 0
DWIDTH 9 0
BBX 16 12 -5 0
BITMAP
ECCC
EC98
C598
859B
019E
01F6
03F6
0336
0334
032C
066E
0666
ENDCHAR
STARTCHAR 1F9B
ENCODING 8091
SWIDTH 462 0
DWIDTH 9 0
BBX 16 12 -5 0
BITMAP
ECCC
CC98
4598
059B
019E
01F6
03F6
0336
0334
032C
066E
0666
ENDCHAR
STARTCHAR 1F9C
ENCODING 8092
SWIDTH 462 0
DWIDTH 9 0
BBX 16 12 -5 0
BITMAP
E6CC
6C98
D998
819B
019E
01F6
03F6
0336
0334
032C
066E
0666
ENDCHAR
STARTCHAR 1F9D
ENCODING 8093
SWIDTH 462 0
DWIDTH 9 0
BBX 16 12 -5 0
BITMAP
E6CC
CC98
D998
419B
019E
01F6
03F6
0336
0334
032C
066E
0666
ENDCHAR
STARTCHAR 1F9E
ENCODING 8094
SWIDTH 462 0
DWIDTH 9 0
BBX 14 14 -3 0
BITMAP
7000
D800
8B30
6260
2660
466C
0678
07D8
0FD8
0CD8
0CD0
0CB0
19B8
1998
ENDCHAR
STARTCHAR 1F9F
ENCODING 8095
SWIDTH 462 0
DWIDTH 9 0
BBX 14 14 -3 0
BITMAP
7000
D800
8B30
6260
6660
266C
0678
07D8
0FD8
0CD8
0CD0
0CB0
19B8
1998
ENDCHAR
STARTCHAR 1FA0
ENCODING 8096
SWIDTH 462 0
DWIDTH 9 0
BBX 9 17 1 -3
BITMAP
0700
0300
0600
0400
0000
3180
6180
6180
C180
CD80
D980
D980
FF00
EF00
0000
3000
3800
ENDCHAR
STARTCHAR 1FA1
ENCODING 8097
SWIDTH 462 0
DWIDTH 9 0
BBX 9 17 1 -3
BITMAP
0600
0600
0400
0200
0000
3180
6180
6180
C180
CD80
D980
D980
FF00
EF00
0000
3000
3800
ENDCHAR
STARTCHAR 1FA2
ENCODING 8098
SWIDTH 462 0
DWIDTH 9 0
BBX 9 17 1 -3
BITMAP
1F00
1D80
1980
1080
0000
3180
6180
6180
C180
CD80
D980
D980
FF00
EF00
0000
3000
3800
ENDCHAR
STARTCHAR 1FA3
ENCODING 8099
SWIDTH 462 0
DWIDTH 9 0
BBX 9 17 1 -3
BITMAP
3B00
3B00
1100
0900
0000
3180
6180
6180
C180
CD80
D980
D980
FF00
EF00
0000
3000
3800
ENDCHAR
STARTCHAR 1FA4
ENCODING 8100
SWIDTH 462 0
DWIDTH 9 0
BBX 10 17 1 -3
BITMAP
0CC0
0D80
0B00
1100
0000
3180
6180
6180
C180
CD80
D980
D980
FF00
EF00
0000
3000
3800
ENDCHAR
STARTCHAR 1FA5
ENCODING 8101
SWIDTH 462 0
DWIDTH 9 0
BBX 9 17 1 -3
BITMAP
1880
1980
1B00
0A00
0000
3180
6180
6180
C180
CD80
D980
D980
FF00
EF00
0000
3000
3800
ENDCHAR
STARTCHAR 1FA6
ENCODING 8102
SWIDTH 462 0
DWIDTH 9 0
BBX 9 19 1 -3
BITMAP
0700
0F80
0880
0600
0200
0400
0000
3180
6180
6180
C180
CD80
D980
D980
FF00
EF00
0000
3000
3800
ENDCHAR
STARTCHAR 1FA7
ENCODING 8103
SWIDTH 462 0
DWIDTH 9 0
BBX 9 19 1 -3
BITMAP
0700
0D80
0880
0600
0600
0200
0000
3180
6180
6180
C180
CD80
D980
D980
FF00
EF00
0000
3000
3800
ENDCHAR
STARTCHAR 1FA8
ENCODING 8104
SWIDTH 462 0
DWIDTH 9 0
BBX 12 12 -1 0
BITMAP
6700
6F80
7980
99B0
11E0
3160
3360
3360
3240
36C0
76E0
7E60
ENDCHAR
STARTCHAR 1FA9
ENCODING 8105
SWIDTH 462 0
DWIDTH 9 0
BBX 12 12 -1 0
BITMAP
C700
CF80
D980
59B0
11E0
3160
3360
3360
3240
36C0
76E0
7E60
ENDCHAR
STARTCHAR 1FAA
ENCODING 8106
SWIDTH 462 0
DWIDTH 9 0
BBX 16 12 -5 0
BITMAP
F870
ECF8
CD98
859B
011E
0316
0336
0336
0324
036C
076E
07E6
ENDCHAR
STARTCHAR 1FAB
ENCODING 8107
SWIDTH 462 0
DWIDTH 9 0
BBX 16 12 -5 0
BITMAP
F870
CCF8
4D98
459B
011E
0316
0336
0336
0324
036C
076E
07E6
ENDCHAR
STARTCHAR 1FAC
ENCODING 8108
SWIDTH 462 0
DWIDTH 9 0
BBX 15 12 -4 0
BITMAP
ECE0
CDF0
DB30
9336
023C
062C
066C
066C
0648
06D8
0EDC
0FCC
ENDCHAR
STARTCHAR 1FAD
ENCODING 8109
SWIDTH 462 0
DWIDTH 9 0
BBX 15 12 -4 0
BITMAP
CCE0
CDF0
9B30
5336
023C
062C
066C
066C
0648
06D8
0EDC
0FCC
ENDCHAR
STARTCHAR 1FAE
ENCODING 8110
SWIDTH 462 0
DWIDTH 9 0
BBX 13 14 -2 0
BITMAP
7000
D800
8B80
67C0
2CC0
4CD8
08F0
18B0
19B0
19B0
1920
1B60
3B70
3F30
ENDCHAR
STARTCHAR 1FAF
ENCODING 8111
SWIDTH 462 0
DWIDTH 9 0
BBX 14 14 -3 0
BITMAP
3800
6C00
C5C0
33E0
2660
166C
0478
0C58
0CD8
0CD8
0C90
0DB0
1DB8
1F98
ENDCHAR
STARTCHAR 1FB0
ENCODING 8112
SWIDTH 462 0
DWIDTH 9 0
BBX 9 13 1 0
BITMAP
0C80
0F80
0200
0000
1F80
3F80
7380
6300
E300
E300
E700
7F00
7F00
ENDCHAR
STARTCHAR 1FB1
ENCODING 8113
SWIDTH 462 0
DWIDTH 9 0
BBX 9 13 1 0
BITMAP
0F80
0F80
0000
0000
1F80
3F80
7380
6300
E300
E300
E700
7F00
7F00
ENDCHAR
STARTCHAR 1FB2
ENCODING 8114
SWIDTH 462 0
DWIDTH 9 0
BBX 9 16 1 -2
BITMAP
0E00
0700
0100
0000
1F80
3F80
7380
6300
E300
E300
E700
7F00
7F00
0000
3000
3800
ENDCHAR
STARTCHAR 1FB3
ENCODING 8115
SWIDTH 462 0
DWIDTH 9 0
BBX 9 12 1 -3
BITMAP
1F80
3F80
7380
6300
E300
E300
E700
7F00
7F00
0000
3000
3800
ENDCHAR
STARTCHAR 1FB4
ENCODING 8116
SWIDTH 462 0
DWIDTH 9 0
BBX 9 16 1 -2
BITMAP
0380
0700
0400
0000
1F80
3F80
7380
6300
E300
E300
E700
7F00
7F00
0000
3000
3800
ENDCHAR
STARTCHAR 1FB6
ENCODING 8118
SWIDTH 462 0
DWIDTH 9 0
BBX 9 13 1 0
BITMAP
0700
0F80
0980
0000
1F80
3F80
7380
6300
E300
E300
E700
7F00
7F00
ENDCHAR
STARTCHAR 1FB7
ENCODING 8119
SWIDTH 462 0
DWIDTH 9 0
BBX 9 16 1 -3
BITMAP
0700
0F80
0980
0000
1F80
3F80
7380
6300
E300
E300
E700
7F00
7F00
0000
3000
3800
ENDCHAR
STARTCHAR 1FB8
ENCODING 8120
SWIDTH 462 0
DWIDTH 9 0
BBX 11 16 0 0
BITMAP
0660
03C0
0380
0000
0380
0780
0780
0D80
0D80
1980
1980
3F80
3F80
6180
6180
E180
ENDCHAR
STARTCHAR 1FB9
ENCODING 8121
SWIDTH 462 0
DWIDTH 9 0
BBX 11 15 0 0
BITMAP
07E0
0000
0000
0380
0780
0780
0D80
0D80
1980
1980
3F80
3F80
6180
6180
E180
ENDCHAR
STARTCHAR 1FBA
ENCODING 8122
SWIDTH 462 0
DWIDTH 9 0
BBX 9 12 0 0
BITMAP
C380
F780
3780
0D80
0D80
1980
1980
3F80
3F80
6180
6180
E180
ENDCHAR
STARTCHAR 1FBB
ENCODING 8123
SWIDTH 462 0
DWIDTH 9 0
BBX 9 12 0 0
BITMAP
3380
F780
C780
0D80
0D80
1980
1980
3F80
3F80
6180
6180
E180
ENDCHAR
STARTCHAR 1FBC
ENCODING 8124
SWIDTH 462 0
DWIDTH 9 0
BBX 11 12 0 0
BITMAP
0E00
0E00
0A00
1E60
1EC0
36C0
36C0
3EC0
7E80
6780
C7C0
C6C0
ENDCHAR
STARTCHAR 1FBD
ENCODING 8125
SWIDTH 462 0
DWIDTH 9 0
BBX 2 4 6 10
BITMAP
C0
C0
C0
80
ENDCHAR
STARTCHAR 1FBE
ENCODING 8126
SWIDTH 462 0
DWIDTH 9 0
BBX 3 2 3 -3
BITMAP
C0
E0
ENDCHAR
STARTCHAR 1FBF
ENCODING 8127
SWIDTH 462 0
DWIDTH 9 0
BBX 2 4 6 10
BITMAP
C0
C0
C0
80
ENDCHAR
STARTCHAR 1FC0
ENCODING 8128
SWIDTH 462 0
DWIDTH 9 0
BBX 6 3 4 10
BITMAP
78
EC
CC
ENDCHAR
STARTCHAR 1FC1
ENCODING 8129
SWIDTH 462 0
DWIDTH 9 0
BBX 6 6 4 10
BITMAP
3C
7C
44
44
EC
44
ENDCHAR
STARTCHAR 1FC2
ENCODING 8130
SWIDTH 462 0
DWIDTH 9 0
BBX 9 16 1 -2
BITMAP
0E00
0700
0100
0000
3F00
3F80
7380
7380
6300
6300
E700
E700
C600
0600
CE00
EE00
ENDCHAR
STARTCHAR 1FC3
ENCODING 8131
SWIDTH 462 0
DWIDTH 9 0
BBX 9 12 1 -3
BITMAP
3F00
3F80
7380
7380
6300
6300
E700
E700
C600
0600
CE00
EE00
ENDCHAR
STARTCHAR 1FC4
ENCODING 8132
SWIDTH 462 0
DWIDTH 9 0
BBX 9 16 1 -2
BITMAP
0380
0700
0400
0000
3F00
3F80
7380
7380
6300
6300
E700
E700
C600
0600
CE00
EE00
ENDCHAR
STARTCHAR 1FC6
ENCODING 8134
SWIDTH 462 0
DWIDTH 9 0
BBX 9 16 1 -3
BITMAP
0700
0F80
0980
0000
3F00
3F80
7380
7380
6300
6300
E700
E700
C600
0600
0E00
0E00
ENDCHAR
STARTCHAR 1FC7
ENCODING 8135
SWIDTH 462 0
DWIDTH 9 0
BBX 9 16 1 -3
BITMAP
0700
0F80
0980
0000
3F00
3F80
7380
7380
6300
6300
E700
E700
C600
0600
CE00
EE00
ENDCHAR
STARTCHAR 1FC8
ENCODING 8136
SWIDTH 462 0
DWIDTH 9 0
BBX 12 12 -1 0
BITMAP
C7F0
E7F0
2E00
0C00
0C00
0FC0
1FC0
1800
1800
1800
3FC0
3FC0
ENDCHAR
STARTCHAR 1FC9
ENCODING 8137
SWIDTH 462 0
DWIDTH 9 0
BBX 12 12 -1 0
BITMAP
67F0
E7F0
8E00
0C00
0C00
0FC0
1FC0
1800
1800
1800
3FC0
3FC0
ENDCHAR
STARTCHAR 1FCA
ENCODING 8138
SWIDTH 462 0
DWIDTH 9 0
BBX 13 12 -2 0
BITMAP
C718
F618
3638
0638
0E30
0FF0
0FF0
0C70
1C60
1860
18E0
18E0
ENDCHAR
STARTCHAR 1FCB
ENCODING 8139
SWIDTH 462 0
DWIDTH 9 0
BBX 13 12 -2 0
BITMAP
3718
F618
C638
0638
0E30
0FF0
0FF0
0C70
1C60
1860
18E0
18E0
ENDCHAR
STARTCHAR 1FCC
ENCODING 8140
SWIDTH 462 0
DWIDTH 9 0
BBX 11 12 0 0
BITMAP
1980
1300
3300
3360
33C0
3EC0
7EC0
66C0
6680
6580
CDC0
CCC0
ENDCHAR
STARTCHAR 1FCD
ENCODING 8141
SWIDTH 462 0
DWIDTH 9 0
BBX 6 4 4 10
BITMAP
D8
CC
CC
84
ENDCHAR
STARTCHAR 1FCE
ENCODING 8142
SWIDTH 462 0
DWIDTH 9 0
BBX 7 4 4 10
BITMAP
66
6C
58
88
ENDCHAR
STARTCHAR 1FCF
ENCODING 8143
SWIDTH 462 0
DWIDTH 9 0
BBX 5 6 5 10
BITMAP
78
F8
88
30
20
40
ENDCHAR
STARTCHAR 1FD0
ENCODING 8144
SWIDTH 462 0
DWIDTH 9 0
BBX 7 13 2 0
BITMAP
36
3E
08
00
F8
F8
18
38
30
30
30
3E
3E
ENDCHAR
STARTCHAR 1FD1
ENCODING 8145
SWIDTH 462 0
DWIDTH 9 0
BBX 7 13 2 0
BITMAP
3E
3E
00
00
F8
F8
18
38
30
30
30
3E
3E
ENDCHAR
STARTCHAR 1FD2
ENCODING 8146
SWIDTH 462 0
DWIDTH 9 0
BBX 9 14 2 0
BITMAP
0800
6D80
7580
0400
0000
F800
F800
1800
3800
3000
3000
3000
3E00
3E00
ENDCHAR
STARTCHAR 1FD3
ENCODING 8147
SWIDTH 462 0
DWIDTH 9 0
BBX 9 14 2 0
BITMAP
0400
6780
7D80
0800
0000
F800
F800
1800
3800
3000
3000
3000
3E00
3E00
ENDCHAR
STARTCHAR 1FD6
ENCODING 8150
SWIDTH 462 0
DWIDTH 9 0
BBX 7 13 2 0
BITMAP
1E
3E
32
00
F8
F8
18
38
30
30
30
3E
3E
ENDCHAR
STARTCHAR 1FD7
ENCODING 8151
SWIDTH 462 0
DWIDTH 9 0
BBX 8 16 2 0
BITMAP
0E
1B
11
13
33
33
00
F8
F8
18
38
30
30
30
3E
3E
ENDCHAR
STARTCHAR 1FD8
ENCODING 8152
SWIDTH 462 0
DWIDTH 9 0
BBX 10 16 1 0
BITMAP
0CC0
0780
0700
0000
3FC0
3FC0
0600
0E00
0E00
0C00
0C00
1C00
1C00
1800
FF00
FE00
ENDCHAR
STARTCHAR 1FD9
ENCODING 8153
SWIDTH 462 0
DWIDTH 9 0
BBX 10 15 1 0
BITMAP
0FC0
0000
0000
3FC0
3FC0
0600
0E00
0E00
0C00
0C00
1C00
1C00
1800
FF00
FE00
ENDCHAR
STARTCHAR 1FDA
ENCODING 8154
SWIDTH 462 0
DWIDTH 9 0
BBX 13 12 -2 0
BITMAP
C7F8
F7F8
30C0
01C0
01C0
0180
0180
0380
0380
0300
1FE0
1FC0
ENDCHAR
STARTCHAR 1FDB
ENCODING 8155
SWIDTH 462 0
DWIDTH 9 0
BBX 13 12 -2 0
BITMAP
37F8
F7F8
C0C0
01C0
01C0
0180
0180
0380
0380
0300
1FE0
1FC0
ENDCHAR
STARTCHAR 1FDD
ENCODING 8157
SWIDTH 462 0
DWIDTH 9 0
BBX 6 4 4 10
BITMAP
D8
D8
CC
40
ENDCHAR
STARTCHAR 1FDE
ENCODING 8158
SWIDTH 462 0
DWIDTH 9 0
BBX 6 4 4 10
BITMAP
C4
CC
D8
50
ENDCHAR
STARTCHAR 1FDF
ENCODING 8159
SWIDTH 462 0
DWIDTH 9 0
BBX 5 6 5 10
BITMAP
70
F8
88
60
20
20
ENDCHAR
STARTCHAR 1FE0
ENCODING 8160
SWIDTH 462 0
DWIDTH 9 0
BBX 8 13 2 0
BITMAP
1B
1F
0C
00
63
63
E7
C6
C6
C6
CE
FC
F8
ENDCHAR
STARTCHAR 1FE1
ENCODING 8161
SWIDTH 462 0
DWIDTH 9 0
BBX 8 13 2 0
BITMAP
1F
3F
00
00
63
63
E7
C6
C6
C6
CE
FC
F8
ENDCHAR
STARTCHAR 1FE2
ENCODING 8162
SWIDTH 462 0
DWIDTH 9 0
BBX 9 14 2 0
BITMAP
0800
6D80
7580
0400
0000
6300
6300
E700
C600
C600
C600
CE00
FC00
F800
ENDCHAR
STARTCHAR 1FE3
ENCODING 8163
SWIDTH 462 0
DWIDTH 9 0
BBX 9 14 2 0
BITMAP
0400
6780
7D80
0800
0000
6300
6300
E700
C600
C600
C600
CE00
FC00
F800
ENDCHAR
STARTCHAR 1FE4
ENCODING 8164
SWIDTH 462 0
DWIDTH 9 0
BBX 10 17 0 -3
BITMAP
0180
0180
0100
0200
0000
0F80
1FC0
39C0
31C0
31C0
7180
7380
7F00
7E00
6000
E000
C000
ENDCHAR
STARTCHAR 1FE5
ENCODING 8165
SWIDTH 462 0
DWIDTH 9 0
BBX 10 17 0 -3
BITMAP
0380
0300
0100
0100
0000
0F80
1FC0
39C0
31C0
31C0
7180
7380
7F00
7E00
6000
E000
C000
ENDCHAR
STARTCHAR 1FE6
ENCODING 8166
SWIDTH 462 0
DWIDTH 9 0
BBX 8 13 2 0
BITMAP
1E
1F
33
00
63
63
E7
C6
C6
C6
CE
FC
F8
ENDCHAR
STARTCHAR 1FE7
ENCODING 8167
SWIDTH 462 0
DWIDTH 9 0
BBX 8 16 2 0
BITMAP
0F
1F
11
11
3B
13
00
63
63
E7
C6
C6
C6
CE
FC
F8
ENDCHAR
STARTCHAR 1FE8
ENCODING 8168
SWIDTH 462 0
DWIDTH 9 0
BBX 9 16 3 0
BITMAP
3300
1E00
1C00
0000
C380
C300
C600
EE00
6C00
7800
7800
7000
7000
6000
6000
E000
ENDCHAR
STARTCHAR 1FE9
ENCODING 8169
SWIDTH 462 0
DWIDTH 9 0
BBX 9 15 3 0
BITMAP
3F00
0000
0000
C380
C300
C600
EE00
6C00
7800
7800
7000
7000
6000
6000
E000
ENDCHAR
STARTCHAR 1FEA
ENCODING 8170
SWIDTH 462 0
DWIDTH 9 0
BBX 14 12 -2 0
BITMAP
C61C
F618
3630
0770
0360
03C0
03C0
0380
0380
0300
0300
0700
ENDCHAR
STARTCHAR 1FEB
ENCODING 8171
SWIDTH 462 0
DWIDTH 9 0
BBX 14 12 -2 0
BITMAP
361C
F618
C630
0770
0360
03C0
03C0
0380
0380
0300
0300
0700
ENDCHAR
STARTCHAR 1FEC
ENCODING 8172
SWIDTH 462 0
DWIDTH 9 0
BBX 11 13 0 0
BITMAP
C000
CFC0
DFC0
58E0
18E0
18E0
39C0
3F80
3F00
3000
7000
6000
6000
ENDCHAR
STARTCHAR 1FED
ENCODING 8173
SWIDTH 462 0
DWIDTH 9 0
BBX 8 4 3 10
BITMAP
10
DB
EB
08
ENDCHAR
STARTCHAR 1FEE
ENCODING 8174
SWIDTH 462 0
DWIDTH 9 0
BBX 8 4 3 10
BITMAP
08
CF
FB
10
ENDCHAR
STARTCHAR 1FEF
ENCODING 8175
SWIDTH 462 0
DWIDTH 9 0
BBX 4 3 5 11
BITMAP
E0
70
30
ENDCHAR
STARTCHAR 1FF2
ENCODING 8178
SWIDTH 462 0
DWIDTH 9 0
BBX 9 17 1 -3
BITMAP
0800
0C00
0F00
0200
0000
3180
6180
6180
C180
CD80
D980
D980
FF00
EF00
0000
3000
3800
ENDCHAR
STARTCHAR 1FF3
ENCODING 8179
SWIDTH 462 0
DWIDTH 9 0
BBX 9 12 1 -3
BITMAP
3180
6180
6180
C180
CD80
D980
D980
FF00
EF00
0000
3000
3800
ENDCHAR
STARTCHAR 1FF4
ENCODING 8180
SWIDTH 462 0
DWIDTH 9 0
BBX 9 17 1 -3
BITMAP
0100
0300
0F00
0400
0000
3180
6180
6180
C180
CD80
D980
D980
FF00
EF00
0000
3000
3800
ENDCHAR
STARTCHAR 1FF6
ENCODING 8182
SWIDTH 462 0
DWIDTH 9 0
BBX 9 13 1 0
BITMAP
0F00
0F80
1980
0000
3180
6180
6180
C180
CD80
D980
D980
FF00
EF00
ENDCHAR
STARTCHAR 1FF7
ENCODING 8183
SWIDTH 462 0
DWIDTH 9 0
BBX 9 16 1 -3
BITMAP
0F00
0F80
1980
0000
3180
6180
6180
C180
CD80
D980
D980
FF00
EF00
0000
3000
3800
ENDCHAR
STARTCHAR 1FF8
ENCODING 8184
SWIDTH 462 0
DWIDTH 9 0
BBX 12 12 -2 0
BITMAP
C1E0
F7F0
3630
0E30
0C30
0C30
1C30
1C70
1C60
1CE0
0FC0
0F80
ENDCHAR
STARTCHAR 1FF9
ENCODING 8185
SWIDTH 462 0
DWIDTH 9 0
BBX 11 12 -1 0
BITMAP
63C0
EFE0
8C60
1C60
1860
1860
3860
38E0
38C0
39C0
1F80
1F00
ENDCHAR
STARTCHAR 1FFA
ENCODING 8186
SWIDTH 462 0
DWIDTH 9 0
BBX 13 12 -2 0
BITMAP
C3F0
F7F0
3638
0C38
0C38
0C30
0C30
0C70
0C60
0CC0
3DE0
3DE0
ENDCHAR
STARTCHAR 1FFB
ENCODING 8187
SWIDTH 462 0
DWIDTH 9 0
BBX 13 12 -2 0
BITMAP
33F0
F7F0
C638
0C38
0C38
0C30
0C30
0C70
0C60
0CC0
3DE0
3DE0
ENDCHAR
STARTCHAR 1FFC
ENCODING 8188
SWIDTH 462 0
DWIDTH 9 0
BBX 11 12 0 0
BITMAP
0E00
1F00
3300
3360
23C0
62C0
66C0
66C0
6480
6D80
EDC0
FCC0
ENDCHAR
STARTCHAR 1FFD
ENCODING 8189
SWIDTH 462 0
DWIDTH 9 0
BBX 4 4 5 10
BITMAP
10
30
F0
40
ENDCHAR
STARTCHAR 1FFE
ENCODING 8190
SWIDTH 462 0
DWIDTH 9 0
BBX 2 4 6 10
BITMAP
C0
C0
C0
40
ENDCHAR
STARTCHAR 2013
ENCODING 8211
SWIDTH 462 0
DWIDTH 9 0
BBX 8 2 2 4
BITMAP
FF
FE
ENDCHAR
STARTCHAR 2014
ENCODING 8212
SWIDTH 462 0
DWIDTH 9 0
BBX 10 2 1 4
BITMAP
FFC0
FF80
ENDCHAR
STARTCHAR 2015
ENCODING 8213
SWIDTH 462 0
DWIDTH 9 0
BBX 10 2 1 4
BITMAP
FFC0
FF80
ENDCHAR
STARTCHAR 2018
ENCODING 8216
SWIDTH 462 0
DWIDTH 9 0
BBX 5 6 5 8
BITMAP
38
60
C0
E0
E0
60
ENDCHAR
STARTCHAR 2019
ENCODING 8217
SWIDTH 462 0
DWIDTH 9 0
BBX 4 6 5 8
BITMAP
70
70
70
30
E0
C0
ENDCHAR
STARTCHAR 201A
ENCODING 8218
SWIDTH 462 0
DWIDTH 9 0
BBX 5 6 2 -3
BITMAP
30
78
70
30
E0
C0
ENDCHAR
STARTCHAR 201C
ENCODING 8220
SWIDTH 462 0
DWIDTH 9 0
BBX 9 5 3 8
BITMAP
7380
4600
E600
E700
4600
ENDCHAR
STARTCHAR 201D
ENCODING 8221
SWIDTH 462 0
DWIDTH 9 0
BBX 8 5 3 8
BITMAP
77
77
23
E6
8C
ENDCHAR
STARTCHAR 201E
ENCODING 8222
SWIDTH 462 0
DWIDTH 9 0
BBX 9 6 0 -3
BITMAP
2100
7380
7380
3100
E700
C400
ENDCHAR
STARTCHAR 2020
ENCODING 8224
SWIDTH 462 0
DWIDTH 9 0
BBX 7 15 3 -3
BITMAP
18
18
18
FE
FE
30
30
70
60
60
60
60
C0
C0
C0
ENDCHAR
STARTCHAR 2021
ENCODING 8225
SWIDTH 462 0
DWIDTH 9 0
BBX 8 15 2 -3
BITMAP
0C
0C
0C
7F
7F
18
18
38
FE
FE
30
30
60
60
60
ENDCHAR
STARTCHAR 2022
ENCODING 8226
SWIDTH 462 0
DWIDTH 9 0
BBX 6 6 3 3
BITMAP
30
78
FC
FC
78
30
ENDCHAR
STARTCHAR 2026
ENCODING 8230
SWIDTH 462 0
DWIDTH 9 0
BBX 8 2 1 0
BITMAP
DB
DB
ENDCHAR
STARTCHAR 2030
ENCODING 8240
SWIDTH 462 0
DWIDTH 9 0
BBX 9 12 2 0
BITMAP
7000
D000
B000
A380
EC00
3000
C000
6700
FD00
B900
AB00
EE00
ENDCHAR
STARTCHAR 2039
ENCODING 8249
SWIDTH 462 0
DWIDTH 9 0
BBX 5 8 3 1
BITMAP
18
18
30
70
E0
60
30
30
ENDCHAR
STARTCHAR 203A
ENCODING 8250
SWIDTH 462 0
DWIDTH 9 0
BBX 5 8 3 1
BITMAP
60
70
30
38
38
70
E0
C0
ENDCHAR
STARTCHAR 2044
ENCODING 8260
SWIDTH 462 0
DWIDTH 9 0
BBX 10 12 1 0
BITMAP
00C0
0180
0380
0300
0600
0C00
1C00
1800
3000
6000
E000
C000
ENDCHAR
STARTCHAR 2070
ENCODING 8304
SWIDTH 462 0
DWIDTH 9 0
BBX 6 7 4 5
BITMAP
78
CC
CC
A8
98
F8
E0
ENDCHAR
STARTCHAR 2074
ENCODING 8308
SWIDTH 462 0
DWIDTH 9 0
BBX 6 7 3 5
BITMAP
0C
1C
3C
6C
FC
18
18
ENDCHAR
STARTCHAR 2075
ENCODING 8309
SWIDTH 462 0
DWIDTH 9 0
BBX 6 7 4 5
BITMAP
7C
60
60
F8
18
F8
E0
ENDCHAR
STARTCHAR 2076
ENCODING 8310
SWIDTH 462 0
DWIDTH 9 0
BBX 5 7 4 5
BITMAP
38
60
F0
F8
98
F0
60
ENDCHAR
STARTCHAR 2077
ENCODING 8311
SWIDTH 462 0
DWIDTH 9 0
BBX 6 7 4 5
BITMAP
7C
FC
18
30
60
60
C0
ENDCHAR
STARTCHAR 2078
ENCODING 8312
SWIDTH 462 0
DWIDTH 9 0
BBX 6 7 4 5
BITMAP
78
CC
78
F8
98
F8
F0
ENDCHAR
STARTCHAR 2079
ENCODING 8313
SWIDTH 462 0
DWIDTH 9 0
BBX 6 7 4 5
BITMAP
78
CC
CC
78
18
F0
C0
ENDCHAR
STARTCHAR 2080
ENCODING 8320
SWIDTH 462 0
DWIDTH 9 0
BBX 6 7 2 0
BITMAP
3C
6C
64
D4
CC
FC
78
ENDCHAR
STARTCHAR 2081
ENCODING 8321
SWIDTH 462 0
DWIDTH 9 0
BBX 6 7 2 0
BITMAP
18
78
58
10
30
FC
F8
ENDCHAR
STARTCHAR 2082
ENCODING 8322
SWIDTH 462 0
DWIDTH 9 0
BBX 6 7 2 0
BITMAP
3C
7C
0C
18
70
7C
F8
ENDCHAR
STARTCHAR 2083
ENCODING 8323
SWIDTH 462 0
DWIDTH 9 0
BBX 6 7 2 0
BITMAP
7C
2C
0C
38
0C
5C
F8
ENDCHAR
STARTCHAR 2084
ENCODING 8324
SWIDTH 462 0
DWIDTH 9 0
BBX 6 7 2 0
BITMAP
0C
1C
3C
68
FC
18
18
ENDCHAR
STARTCHAR 2085
ENCODING 8325
SWIDTH 462 0
DWIDTH 9 0
BBX 6 7 2 0
BITMAP
3C
3C
20
78
0C
78
F8
ENDCHAR
STARTCHAR 2086
ENCODING 8326
SWIDTH 462 0
DWIDTH 9 0
BBX 6 7 2 0
BITMAP
1C
38
60
78
CC
D8
78
ENDCHAR
STARTCHAR 2087
ENCODING 8327
SWIDTH 462 0
DWIDTH 9 0
BBX 6 7 3 0
BITMAP
FC
FC
18
30
60
40
C0
ENDCHAR
STARTCHAR 2088
ENCODING 8328
SWIDTH 462 0
DWIDTH 9 0
BBX 6 7 2 0
BITMAP
3C
64
6C
38
4C
CC
78
ENDCHAR
STARTCHAR 2089
ENCODING 8329
SWIDTH 462 0
DWIDTH 9 0
BBX 5 7 3 0
BITMAP
78
D8
C8
F8
18
F0
E0
ENDCHAR
STARTCHAR 20AC
ENCODING 8364
SWIDTH 462 0
DWIDTH 9 0
BBX 11 12 1 0
BITMAP
07E0
0FC0
1C00
1800
7F80
3000
3000
FE00
3000
3000
3F00
1F00
ENDCHAR
STARTCHAR 20AE
ENCODING 8366
SWIDTH 462 0
DWIDTH 9 0
BBX 10 12 2 0
BITMAP
7FC0
7F80
0C00
1E00
1F00
3C00
7A00
3E00
7C00
F000
B000
7000
ENDCHAR
STARTCHAR 20B4
ENCODING 8372
SWIDTH 462 0
DWIDTH 9 0
BBX 10 12 1 0
BITMAP
1F00
1F80
0180
0380
7FC0
0E00
3800
FF80
6000
E000
7E00
7E00
ENDCHAR
STARTCHAR 20B9
ENCODING 8377
SWIDTH 462 0
DWIDTH 9 0
BBX 10 12 2 0
BITMAP
7FC0
7F80
0600
7F00
FF00
0C00
F800
C000
E000
7000
3000
3800
ENDCHAR
STARTCHAR 2113
ENCODING 8467
SWIDTH 462 0
DWIDTH 9 0
BBX 7 13 2 0
BITMAP
3C
36
22
26
26
24
28
38
30
E0
A0
32
3E
ENDCHAR
STARTCHAR 2116
ENCODING 8470
SWIDTH 462 0
DWIDTH 9 0
BBX 12 12 0 0
BITMAP
1370
12B0
32B0
37A0
3FE0
3CC0
7C00
7FC0
5FC0
5800
C800
C800
ENDCHAR
STARTCHAR 2122
ENCODING 8482
SWIDTH 462 0
DWIDTH 9 0
BBX 9 5 2 7
BITMAP
F580
6580
6B80
6A80
6880
ENDCHAR
STARTCHAR 2126
ENCODING 8486
SWIDTH 462 0
DWIDTH 9 0
BBX 11 12 0 0
BITMAP
0FC0
1FC0
18E0
30E0
30E0
30C0
30C0
31C0
3180
3300
F780
F780
ENDCHAR
STARTCHAR 212E
ENCODING 8494
SWIDTH 462 0
DWIDTH 9 0
BBX 9 8 1 0
BITMAP
0800
7700
4100
C180
FE00
C000
4000
3F00
ENDCHAR
STARTCHAR 2153
ENCODING 8531
SWIDTH 462 0
DWIDTH 9 0
BBX 10 12 1 0
BITMAP
18C0
7180
1300
3200
3600
0C00
1800
1780
3180
6300
C180
8F00
ENDCHAR
STARTCHAR 2154
ENCODING 8532
SWIDTH 462 0
DWIDTH 9 0
BBX 10 12 1 0
BITMAP
78C0
0980
3100
6300
7E00
0C00
0800
1F80
3180
6300
4180
CF00
ENDCHAR
STARTCHAR 2155
ENCODING 8533
SWIDTH 462 0
DWIDTH 9 0
BBX 10 12 1 0
BITMAP
18C0
7180
1300
3300
3600
0C00
1800
1B80
3200
6700
C100
CF00
ENDCHAR
STARTCHAR 2156
ENCODING 8534
SWIDTH 462 0
DWIDTH 9 0
BBX 10 12 1 0
BITMAP
78C0
0980
3180
6300
7E00
0C00
0C00
1B80
3200
6700
6100
CF00
ENDCHAR
STARTCHAR 2157
ENCODING 8535
SWIDTH 462 0
DWIDTH 9 0
BBX 10 12 1 0
BITMAP
38C0
0980
3980
5B00
7600
0C00
0C00
1B80
3200
6700
6100
CF00
ENDCHAR
STARTCHAR 2158
ENCODING 8536
SWIDTH 462 0
DWIDTH 9 0
BBX 10 12 1 0
BITMAP
18C0
2880
5980
7B00
1600
0400
0C00
1B80
3200
2700
6100
CF00
ENDCHAR
STARTCHAR 2159
ENCODING 8537
SWIDTH 462 0
DWIDTH 9 0
BBX 10 12 1 0
BITMAP
18C0
7980
1300
3200
3600
0C00
1800
1380
3600
6F00
CD00
8F00
ENDCHAR
STARTCHAR 215A
ENCODING 8538
SWIDTH 462 0
DWIDTH 9 0
BBX 10 12 1 0
BITMAP
38C0
2180
3900
5B00
7600
0C00
0800
1B80
3600
6F00
4D00
CF00
ENDCHAR
STARTCHAR 215B
ENCODING 8539
SWIDTH 462 0
DWIDTH 9 0
BBX 10 12 1 0
BITMAP
18C0
7980
1300
3200
3600
0C00
1800
1780
3480
6700
CD80
8F00
ENDCHAR
STARTCHAR 215C
ENCODING 8540
SWIDTH 462 0
DWIDTH 9 0
BBX 10 12 1 0
BITMAP
38C0
0980
3900
5B00
7600
0C00
0800
1F80
3480
6700
4D80
CF00
ENDCHAR
STARTCHAR 215D
ENCODING 8541
SWIDTH 462 0
DWIDTH 9 0
BBX 10 12 1 0
BITMAP
38C0
2180
3900
5B00
7600
0C00
0800
1F80
3480
6700
4D80
CF00
ENDCHAR
STARTCHAR 215E
ENCODING 8542
SWIDTH 462 0
DWIDTH 9 0
BBX 11 12 0 0
BITMAP
1E60
0CC0
0980
1B00
1300
0600
0C00
1BC0
1A40
3380
66C0
C780
ENDCHAR
STARTCHAR 2202
ENCODING 8706
SWIDTH 462 0
DWIDTH 9 0
BBX 10 13 1 0
BITMAP
1F00
1F80
0180
01C0
0FC0
3FC0
7180
6180
E180
E380
E700
7E00
7C00
ENDCHAR
STARTCHAR 2206
ENCODING 8710
SWIDTH 462 0
DWIDTH 9 0
BBX 9 12 0 0
BITMAP
0380
0780
0780
0D80
1D80
1980
3980
3180
3180
6180
7F80
FF80
ENDCHAR
STARTCHAR 220F
ENCODING 8719
SWIDTH 462 0
DWIDTH 9 0
BBX 11 14 0 -2
BITMAP
1FE0
1FE0
18E0
18E0
38C0
30C0
31C0
31C0
7180
7180
6380
6380
E300
E300
ENDCHAR
STARTCHAR 2211
ENCODING 8721
SWIDTH 462 0
DWIDTH 9 0
BBX 11 14 0 -2
BITMAP
1FE0
1FE0
1C00
0C00
0E00
0600
0700
0E00
0C00
1800
3000
7000
FF80
FF00
ENDCHAR
STARTCHAR 2212
ENCODING 8722
SWIDTH 462 0
DWIDTH 9 0
BBX 8 2 2 4
BITMAP
FF
FF
ENDCHAR
STARTCHAR 2215
ENCODING 8725
SWIDTH 462 0
DWIDTH 9 0
BBX 10 12 1 0
BITMAP
00C0
0180
0380
0300
0600
0C00
1C00
1800
3000
6000
E000
C000
ENDCHAR
STARTCHAR 2219
ENCODING 8729
SWIDTH 462 0
DWIDTH 9 0
BBX 3 4 4 3
BITMAP
60
E0
E0
40
ENDCHAR
STARTCHAR 221A
ENCODING 8730
SWIDTH 462 0
DWIDTH 9 0
BBX 12 14 1 0
BITMAP
0070
0060
00E0
00C0
0180
0180
0300
7300
F600
3600
3C00
3C00
3800
3800
ENDCHAR
STARTCHAR 221E
ENCODING 8734
SWIDTH 462 0
DWIDTH 9 0
BBX 9 6 1 2
BITMAP
3380
7F80
CC80
DD80
F780
6200
ENDCHAR
STARTCHAR 222B
ENCODING 8747
SWIDTH 462 0
DWIDTH 9 0
BBX 11 16 0 -3
BITMAP
01E0
03E0
0300
0700
0600
0600
0600
0E00
0E00
0C00
0C00
0C00
1C00
1800
F800
F000
ENDCHAR
STARTCHAR 2248
ENCODING 8776
SWIDTH 462 0
DWIDTH 9 0
BBX 10 8 1 1
BITMAP
1CC0
3FC0
6F80
0300
3100
7D80
FF00
C600
ENDCHAR
STARTCHAR 2260
ENCODING 8800
SWIDTH 462 0
DWIDTH 9 0
BBX 10 10 1 0
BITMAP
0080
0180
3FC0
7FC0
0400
0C00
7F80
FF80
6000
6000
ENDCHAR
STARTCHAR 2264
ENCODING 8804
SWIDTH 462 0
DWIDTH 9 0
BBX 10 11 1 0
BITMAP
0040
03C0
1F80
3C00
7800
3E00
0F80
0300
0000
FF00
FF00
ENDCHAR
STARTCHAR 2265
ENCODING 8805
SWIDTH 462 0
DWIDTH 9 0
BBX 10 11 1 0
BITMAP
1000
3C00
1F00
07C0
03C0
1F80
7C00
6000
0000
FF00
FF00
ENDCHAR
STARTCHAR 2500
ENCODING 9472
SWIDTH 462 0
DWIDTH 9 0
BBX 10 1 0 6
BITMAP
FFC0
ENDCHAR
STARTCHAR 2502
ENCODING 9474
SWIDTH 462 0
DWIDTH 9 0
BBX 2 19 4 -3
BITMAP
C0
C0
C0
C0
C0
C0
C0
C0
C0
C0
C0
C0
C0
C0
C0
C0
C0
C0
C0
ENDCHAR
STARTCHAR 250C
ENCODING 9484
SWIDTH 462 0
DWIDTH 9 0
BBX 6 10 4 -3
BITMAP
FC
C0
C0
C0
C0
C0
C0
C0
C0
C0
ENDCHAR
STARTCHAR 2510
ENCODING 9488
SWIDTH 462 0
DWIDTH 9 0
BBX 6 10 0 -3
BITMAP
FC
0C
0C
0C
0C
0C
0C
0C
0C
0C
ENDCHAR
STARTCHAR 2514
ENCODING 9492
SWIDTH 462 0
DWIDTH 9 0
BBX 6 10 4 6
BITMAP
C0
C0
C0
C0
C0
C0
C0
C0
C0
FC
ENDCHAR
STARTCHAR 2518
ENCODING 9496
SWIDTH 462 0
DWIDTH 9 0
BBX 6 10 0 6
BITMAP
0C
0C
0C
0C
0C
0C
0C
0C
0C
FC
ENDCHAR
STARTCHAR 251C
ENCODING 9500
SWIDTH 462 0
DWIDTH 9 0
BBX 6 19 4 -3
BITMAP
C0
C0
C0
C0
C0
C0
C0
C0
C0
FC
C0
C0
C0
C0
C0
C0
C0
C0
C0
ENDCHAR
STARTCHAR 2524
ENCODING 9508
SWIDTH 462 0
DWIDTH 9 0
BBX 6 19 0 -3
BITMAP
0C
0C
0C
0C
0C
0C
0C
0C
0C
FC
0C
0C
0C
0C
0C
0C
0C
0C
0C
ENDCHAR
STARTCHAR 252C
ENCODING 9516
SWIDTH 462 0
DWIDTH 9 0
BBX 10 10 0 -3
BITMAP
FFC0
0C00
0C00
0C00
0C00
0C00
0C00
0C00
0C00
0C00
ENDCHAR
STARTCHAR 2534
ENCODING 9524
SWIDTH 462 0
DWIDTH 9 0
BBX 10 10 0 6
BITMAP
0C00
0C00
0C00
0C00
0C00
0C00
0C00
0C00
0C00
FFC0
ENDCHAR
STARTCHAR 253C
ENCODING 9532
SWIDTH 462 0
DWIDTH 9 0
BBX 10 19 0 -3
BITMAP
0C00
0C00
0C00
0C00
0C00
0C00
0C00
0C00
0C00
FFC0
0C00
0C00
0C00
0C00
0C00
0C00
0C00
0C00
0C00
ENDCHAR
STARTCHAR 2550
ENCODING 9552
SWIDTH 462 0
DWIDTH 9 0
BBX 10 5 0 4
BITMAP
FFC0
FFC0
0000
FFC0
FFC0
ENDCHAR
STARTCHAR 2551
ENCODING 9553
SWIDTH 462 0
DWIDTH 9 0
BBX 4 19 3 -3
BITMAP
90
90
90
90
90
90
90
90
90
90
90
90
90
90
90
90
90
90
90
ENDCHAR
STARTCHAR 2552
ENCODING 9554
SWIDTH 462 0
DWIDTH 9 0
BBX 6 12 4 -3
BITMAP
FC
FC
00
FC
FC
C0
C0
C0
C0
C0
C0
C0
ENDCHAR
STARTCHAR 2553
ENCODING 9555
SWIDTH 462 0
DWIDTH 9 0
BBX 7 10 3 -3
BITMAP
9E
90
90
90
90
90
90
90
90
90
ENDCHAR
STARTCHAR 2554
ENCODING 9556
SWIDTH 462 0
DWIDTH 9 0
BBX 7 12 3 -3
BITMAP
FE
FE
80
9E
9E
90
90
90
90
90
90
90
ENDCHAR
STARTCHAR 2555
ENCODING 9557
SWIDTH 462 0
DWIDTH 9 0
BBX 6 12 0 -3
BITMAP
FC
FC
00
FC
FC
0C
0C
0C
0C
0C
0C
0C
ENDCHAR
STARTCHAR 2556
ENCODING 9558
SWIDTH 462 0
DWIDTH 9 0
BBX 7 10 0 -3
BITMAP
F2
12
12
12
12
12
12
12
12
12
ENDCHAR
STARTCHAR 2557
ENCODING 9559
SWIDTH 462 0
DWIDTH 9 0
BBX 7 12 0 -3
BITMAP
FE
FE
02
F2
F2
12
12
12
12
12
12
12
ENDCHAR
STARTCHAR 2558
ENCODING 9560
SWIDTH 462 0
DWIDTH 9 0
BBX 6 12 4 4
BITMAP
C0
C0
C0
C0
C0
C0
C0
FC
FC
00
FC
FC
ENDCHAR
STARTCHAR 2559
ENCODING 9561
SWIDTH 462 0
DWIDTH 9 0
BBX 7 10 3 6
BITMAP
90
90
90
90
90
90
90
90
90
9E
ENDCHAR
STARTCHAR 255A
ENCODING 9562
SWIDTH 462 0
DWIDTH 9 0
BBX 7 12 3 4
BITMAP
90
90
90
90
90
90
90
9E
9E
80
FE
FE
ENDCHAR
STARTCHAR 255B
ENCODING 9563
SWIDTH 462 0
DWIDTH 9 0
BBX 6 12 0 4
BITMAP
0C
0C
0C
0C
0C
0C
0C
FC
FC
00
FC
FC
ENDCHAR
STARTCHAR 255C
ENCODING 9564
SWIDTH 462 0
DWIDTH 9 0
BBX 7 10 0 6
BITMAP
12
12
12
12
12
12
12
12
12
F2
ENDCHAR
STARTCHAR 255D
ENCODING 9565
SWIDTH 462 0
DWIDTH 9 0
BBX 7 12 0 4
BITMAP
12
12
12
12
12
12
12
F2
F2
02
FE
FE
ENDCHAR
STARTCHAR 255E
ENCODING 9566
SWIDTH 462 0
DWIDTH 9 0
BBX 6 19 4 -3
BITMAP
C0
C0
C0
C0
C0
C0
C0
FC
FC
00
FC
FC
C0
C0
C0
C0
C0
C0
C0
ENDCHAR
STARTCHAR 255F
ENCODING 9567
SWIDTH 462 0
DWIDTH 9 0
BBX 7 19 3 -3
BITMAP
90
90
90
90
90
90
90
90
90
9E
90
90
90
90
90
90
90
90
90
ENDCHAR
STARTCHAR 2560
ENCODING 9568
SWIDTH 462 0
DWIDTH 9 0
BBX 7 19 3 -3
BITMAP
90
90
90
90
90
90
90
9E
9E
80
9E
9E
90
90
90
90
90
90
90
ENDCHAR
STARTCHAR 2561
ENCODING 9569
SWIDTH 462 0
DWIDTH 9 0
BBX 6 19 0 -3
BITMAP
0C
0C
0C
0C
0C
0C
0C
FC
FC
00
FC
FC
0C
0C
0C
0C
0C
0C
0C
ENDCHAR
STARTCHAR 2562
ENCODING 9570
SWIDTH 462 0
DWIDTH 9 0
BBX 7 19 0 -3
BITMAP
12
12
12
12
12
12
12
12
12
F2
12
12
12
12
12
12
12
12
12
ENDCHAR
STARTCHAR 2563
ENCODING 9571
SWIDTH 462 0
DWIDTH 9 0
BBX 7 19 0 -3
BITMAP
12
12
12
12
12
12
12
F2
F2
02
F2
F2
12
12
12
12
12
12
12
ENDCHAR
STARTCHAR 2564
ENCODING 9572
SWIDTH 462 0
DWIDTH 9 0
BBX 10 12 0 -3
BITMAP
FFC0
FFC0
0000
FFC0
FFC0
0C00
0C00
0C00
0C00
0C00
0C00
0C00
ENDCHAR
STARTCHAR 2565
ENCODING 9573
SWIDTH 462 0
DWIDTH 9 0
BBX 10 10 0 -3
BITMAP
FFC0
1200
1200
1200
1200
1200
1200
1200
1200
1200
ENDCHAR
STARTCHAR 2566
ENCODING 9574
SWIDTH 462 0
DWIDTH 9 0
BBX 10 12 0 -3
BITMAP
FFC0
FFC0
0000
F3C0
F3C0
1200
1200
1200
1200
1200
1200
1200
ENDCHAR
STARTCHAR 2567
ENCODING 9575
SWIDTH 462 0
DWIDTH 9 0
BBX 10 12 0 4
BITMAP
0C00
0C00
0C00
0C00
0C00
0C00
0C00
FFC0
FFC0
0000
FFC0
FFC0
ENDCHAR
STARTCHAR 2568
ENCODING 9576
SWIDTH 462 0
DWIDTH 9 0
BBX 10 10 0 6
BITMAP
1200
1200
1200
1200
1200
1200
1200
1200
1200
FFC0
ENDCHAR
STARTCHAR 2569
ENCODING 9577
SWIDTH 462 0
DWIDTH 9 0
BBX 10 12 0 4
BITMAP
1200
1200
1200
1200
1200
1200
1200
F3C0
F3C0
0000
FFC0
FFC0
ENDCHAR
STARTCHAR 256A
ENCODING 9578
SWIDTH 462 0
DWIDTH 9 0
BBX 10 19 0 -3
BITMAP
0C00
0C00
0C00
0C00
0C00
0C00
0C00
FFC0
FFC0
0C00
FFC0
FFC0
0C00
0C00
0C00
0C00
0C00
0C00
0C00
ENDCHAR
STARTCHAR 256B
ENCODING 9579
SWIDTH 462 0
DWIDTH 9 0
BBX 10 19 0 -3
BITMAP
1200
1200
1200
1200
1200
1200
1200
1200
1200
FFC0
1200
1200
1200
1200
1200
1200
1200
1200
1200
ENDCHAR
STARTCHAR 256C
ENCODING 9580
SWIDTH 462 0
DWIDTH 9 0
BBX 10 19 0 -3
BITMAP
1200
1200
1200
1200
1200
1200
1200
F3C0
F3C0
0000
F3C0
F3C0
1200
1200
1200
1200
1200
1200
1200
ENDCHAR
STARTCHAR 2588
ENCODING 9608
SWIDTH 462 0
DWIDTH 9 0
BBX 10 19 0 -3
BITMAP
FFC0
FFC0
FFC0
FFC0
FFC0
FFC0
FFC0
FFC0
FFC0
FFC0
FFC0
FFC0
FFC0
FFC0
FFC0
FFC0
FFC0
FFC0
FFC0
ENDCHAR
STARTCHAR 2591
ENCODING 9617
SWIDTH 462 0
DWIDTH 9 0
BBX 10 19 0 -3
BITMAP
9240
0000
0000
9240
0000
0000
9240
0000
0000
9240
0000
0000
9240
0000
0000
9240
0000
0000
9240
ENDCHAR
STARTCHAR 2592
ENCODING 9618
SWIDTH 462 0
DWIDTH 9 0
BBX 10 19 0 -3
BITMAP
9240
6D80
0000
9240
6D80
0000
9240
6D80
0000
9240
6D80
0000
9240
0000
0000
9240
0000
0000
9240
ENDCHAR
STARTCHAR 2593
ENCODING 9619
SWIDTH 462 0
DWIDTH 9 0
BBX 10 19 0 -3
BITMAP
FFC0
FFC0
DB40
FFC0
FFC0
DB40
FFC0
FFC0
DB40
FFC0
FFC0
DB40
FFC0
DB40
FFC0
FFC0
DB40
FFC0
FFC0
ENDCHAR
STARTCHAR 25CA
ENCODING 9674
SWIDTH 462 0
DWIDTH 9 0
BBX 8 12 2 0
BITMAP
04
0C
1E
3E
76
E3
C7
EE
7C
78
30
20
ENDCHAR
STARTCHAR E0FF
ENCODING 57599
SWIDTH 462 0
DWIDTH 9 0
BBX 7 7 3 6
BITMAP
7C
EE
FA
BE
D6
7E
3C
ENDCHAR
STARTCHAR EFFD
ENCODING 61437
SWIDTH 462 0
DWIDTH 9 0
BBX 12 12 0 0
BITMAP
3DF0
6DB0
CDB0
FDE0
CF20
FB60
71C0
0000
0000
1C00
1C00
1C00
ENDCHAR
STARTCHAR F000
ENCODING 61440
SWIDTH 462 0
DWIDTH 9 0
BBX 16 13 -3 0
BITMAP
7E3F
8281
8281
8281
8281
0201
FC7E
8281
8281
8281
8281
8281
FC7E
ENDCHAR
STARTCHAR F001
ENCODING 61441
SWIDTH 462 0
DWIDTH 9 0
BBX 14 16 -2 -3
BITMAP
03DC
07DC
0618
0600
0FB8
1FB0
0C30
0C30
0C70
0C60
1C60
1860
18E0
1800
F800
F000
ENDCHAR
STARTCHAR F002
ENCODING 61442
SWIDTH 462 0
DWIDTH 9 0
BBX 13 16 -2 -3
BITMAP
03D8
07D8
0618
0638
0FB0
1FB0
0C30
0C30
0C60
0C60
1C60
1870
1830
1800
F800
F000
ENDCHAR
STARTCHAR F506
ENCODING 62726
SWIDTH 462 0
DWIDTH 9 0
BBX 10 12 1 0
BITMAP
18C0
7180
1300
3200
3600
0C00
1800
1780
3180
6300
C200
8600
ENDCHAR
STARTCHAR F507
ENCODING 62727
SWIDTH 462 0
DWIDTH 9 0
BBX 10 12 1 0
BITMAP
78C0
0980
3100
6300
7E00
0C00
0800
1F80
3180
6300
4200
C600
ENDCHAR
STARTCHAR F508
ENCODING 62728
SWIDTH 462 0
DWIDTH 9 0
BBX 10 12 1 0
BITMAP
38C0
0980
3900
5B00
7600
0C00
0800
1F80
3180
6300
4200
C600
ENDCHAR
STARTCHAR F509
ENCODING 62729
SWIDTH 462 0
DWIDTH 9 0
BBX 10 12 1 0
BITMAP
18C0
2980
5980
7B00
1600
0C00
0C00
1F80
3180
6300
6200
C600
ENDCHAR
STARTCHAR F50A
ENCODING 62730
SWIDTH 462 0
DWIDTH 9 0
BBX 10 12 1 0
BITMAP
38C0
2180
3900
5B00
7600
0C00
0800
1F80
3180
6300
4200
C600
ENDCHAR
STARTCHAR F50B
ENCODING 62731
SWIDTH 462 0
DWIDTH 9 0
BBX 10 12 1 0
BITMAP
38C0
6180
7900
5B00
7600
0C00
0800
1F80
3180
6300
4200
C600
ENDCHAR
STARTCHAR F50C
ENCODING 62732
SWIDTH 462 0
DWIDTH 9 0
BBX 10 12 1 0
BITMAP
18C0
7980
1300
3200
3600
0C00
1800
1380
3480
6780
C180
8600
ENDCHAR
STARTCHAR F50D
ENCODING 62733
SWIDTH 462 0
DWIDTH 9 0
BBX 10 12 1 0
BITMAP
78C0
0980
3180
6300
7E00
0C00
0C00
1B80
3480
6780
6180
C600
ENDCHAR
STARTCHAR F50E
ENCODING 62734
SWIDTH 462 0
DWIDTH 9 0
BBX 10 12 1 0
BITMAP
18C0
2880
5980
7B00
1600
0400
0C00
1B80
3480
2780
6180
C600
ENDCHAR
STARTCHAR F50F
ENCODING 62735
SWIDTH 462 0
DWIDTH 9 0
BBX 10 12 1 0
BITMAP
38C0
2180
3900
5B00
7600
0C00
0800
1B80
3480
6780
4180
C600
ENDCHAR
STARTCHAR F510
ENCODING 62736
SWIDTH 462 0
DWIDTH 9 0
BBX 11 12 0 0
BITMAP
1E60
0CC0
0980
1B00
1300
0600
0C00
19C0
1A40
33C0
60C0
C300
ENDCHAR
STARTCHAR F511
ENCODING 62737
SWIDTH 462 0
DWIDTH 9 0
BBX 10 12 1 0
BITMAP
78C0
6980
7900
5B00
7600
0C00
0800
1B80
3480
6780
4180
C600
ENDCHAR
STARTCHAR F80A
ENCODING 63498
SWIDTH 462 0
DWIDTH 9 0
BBX 6 7 4 7
BITMAP
3C
6C
DC
FC
CC
F8
70
ENDCHAR
STARTCHAR F80B
ENCODING 63499
SWIDTH 462 0
DWIDTH 9 0
BBX 5 7 4 7
BITMAP
38
78
30
30
30
F8
F8
ENDCHAR
STARTCHAR F80C
ENCODING 63500
SWIDTH 462 0
DWIDTH 9 0
BBX 6 7 4 7
BITMAP
78
4C
18
38
60
F8
F8
ENDCHAR
STARTCHAR F80D
ENCODING 63501
SWIDTH 462 0
DWIDTH 9 0
BBX 6 7 4 7
BITMAP
7C
4C
38
38
08
F8
F0
ENDCHAR
STARTCHAR F80E
ENCODING 63502
SWIDTH 462 0
DWIDTH 9 0
BBX 6 7 4 7
BITMAP
1C
3C
68
D8
FC
18
10
ENDCHAR
STARTCHAR F80F
ENCODING 63503
SWIDTH 462 0
DWIDTH 9 0
BBX 6 7 4 7
BITMAP
3C
20
70
78
18
F8
F0
ENDCHAR
STARTCHAR F810
ENCODING 63504
SWIDTH 462 0
DWIDTH 9 0
BBX 6 7 4 7
BITMAP
3C
70
F8
D8
C8
F8
70
ENDCHAR
STARTCHAR F811
ENCODING 63505
SWIDTH 462 0
DWIDTH 9 0
BBX 5 7 5 7
BITMAP
F8
18
30
60
60
C0
C0
ENDCHAR
STARTCHAR F812
ENCODING 63506
SWIDTH 462 0
DWIDTH 9 0
BBX 6 7 4 7
BITMAP
7C
6C
6C
78
CC
F8
70
ENDCHAR
STARTCHAR F813
ENCODING 63507
SWIDTH 462 0
DWIDTH 9 0
BBX 6 7 4 7
BITMAP
3C
6C
6C
7C
18
F0
C0
ENDCHAR
STARTCHAR F814
ENCODING 63508
SWIDTH 462 0
DWIDTH 9 0
BBX 6 7 2 -2
BITMAP
38
7C
CC
FC
CC
D8
F0
ENDCHAR
STARTCHAR F815
ENCODING 63509
SWIDTH 462 0
DWIDTH 9 0
BBX 6 7 1 -2
BITMAP
0C
38
78
18
18
7C
FC
ENDCHAR
STARTCHAR F816
ENCODING 63510
SWIDTH 462 0
DWIDTH 9 0
BBX 5 7 2 -2
BITMAP
78
78
08
38
70
F8
F8
ENDCHAR
STARTCHAR F817
ENCODING 63511
SWIDTH 462 0
DWIDTH 9 0
BBX 6 7 2 -2
BITMAP
78
7C
08
38
18
98
F0
ENDCHAR
STARTCHAR F818
ENCODING 63512
SWIDTH 462 0
DWIDTH 9 0
BBX 6 7 2 -2
BITMAP
0C
38
68
58
FC
F8
10
ENDCHAR
STARTCHAR F819
ENCODING 63513
SWIDTH 462 0
DWIDTH 9 0
BBX 6 7 2 -2
BITMAP
3C
7C
60
78
18
98
F0
ENDCHAR
STARTCHAR F81A
ENCODING 63514
SWIDTH 462 0
DWIDTH 9 0
BBX 6 7 2 -2
BITMAP
1C
7C
C0
F8
D8
D8
F0
ENDCHAR
STARTCHAR F81B
ENCODING 63515
SWIDTH 462 0
DWIDTH 9 0
BBX 5 7 3 -2
BITMAP
F8
F8
30
60
60
C0
C0
ENDCHAR
STARTCHAR F81C
ENCODING 63516
SWIDTH 462 0
DWIDTH 9 0
BBX 6 7 2 -2
BITMAP
38
6C
6C
78
D8
D8
F8
ENDCHAR
STARTCHAR F81D
ENCODING 63517
SWIDTH 462 0
DWIDTH 9 0
BBX 6 7 2 -2
BITMAP
38
6C
4C
7C
28
38
E0
ENDCHAR
STARTCHAR FB01
ENCODING 64257
SWIDTH 462 0
DWIDTH 9 0
BBX 14 16 -2 -3
BITMAP
03DC
07DC
0618
0600
0FB8
1FB0
0C30
0C30
0C70
0C60
1C60
1860
18E0
1800
F800
F000
ENDCHAR
STARTCHAR FB02
ENCODING 64258
SWIDTH 462 0
DWIDTH 9 0
BBX 13 16 -2 -3
BITMAP
03D8
07D8
0618
0638
0FB0
1FB0
0C30
0C30
0C60
0C60
1C60
1870
1830
1800
F800
F000
ENDCHAR
STARTCHAR FFFD
ENCODING 65533
SWIDTH 462 0
DWIDTH 9 0
BBX 10 9 0 0
BITMAP
0C00
1E00
2100
7D80
FBC0
7780
3F00
1600
0C00
ENDCHAR
ENDFONT
